<svg width="48" height="48" viewBox="0 0 48 48" fill="none" xmlns="http://www.w3.org/2000/svg">
<rect width="48" height="48" rx="24" fill="#FFFACC"/>
<g clip-path="url(#clip0_47_1955)">
<path d="M12.332 35.6666C12.332 33.1913 13.3154 30.8173 15.0657 29.067C16.816 27.3166 19.19 26.3333 21.6654 26.3333C24.1407 26.3333 26.5147 27.3166 28.265 29.067C30.0154 30.8173 30.9987 33.1913 30.9987 35.6666H28.6654C28.6654 33.8101 27.9279 32.0296 26.6151 30.7169C25.3024 29.4041 23.5219 28.6666 21.6654 28.6666C19.8088 28.6666 18.0284 29.4041 16.7156 30.7169C15.4029 32.0296 14.6654 33.8101 14.6654 35.6666H12.332ZM21.6654 25.1666C17.7979 25.1666 14.6654 22.0341 14.6654 18.1666C14.6654 14.2991 17.7979 11.1666 21.6654 11.1666C25.5329 11.1666 28.6654 14.2991 28.6654 18.1666C28.6654 22.0341 25.5329 25.1666 21.6654 25.1666ZM21.6654 22.8333C24.2437 22.8333 26.332 20.745 26.332 18.1666C26.332 15.5883 24.2437 13.5 21.6654 13.5C19.087 13.5 16.9987 15.5883 16.9987 18.1666C16.9987 20.745 19.087 22.8333 21.6654 22.8333ZM31.33 27.1535C32.9696 27.8919 34.361 29.0881 35.337 30.5983C36.3131 32.1085 36.8322 33.8685 36.832 35.6666H34.4987C34.499 34.3179 34.1097 32.9979 33.3776 31.8651C32.6456 30.7324 31.602 29.8352 30.3722 29.2815L31.3289 27.1535H31.33ZM30.5274 13.9818C31.7028 14.4663 32.7078 15.2891 33.4149 16.3457C34.1219 17.4024 34.4992 18.6452 34.4987 19.9166C34.4992 21.5177 33.901 23.0611 32.8217 24.2436C31.7423 25.4261 30.2598 26.1623 28.6654 26.3076V23.9591C29.5298 23.8353 30.3318 23.4376 30.9536 22.8245C31.5753 22.2113 31.9842 21.415 32.12 20.5524C32.2559 19.6898 32.1117 18.8063 31.7085 18.0317C31.3053 17.2571 30.6644 16.6322 29.8799 16.2486L30.5274 13.9818Z" fill="#2D2D2D"/>
</g>
<defs>
<clipPath id="clip0_47_1955">
<rect width="28" height="28" fill="white" transform="translate(10 10)"/>
</clipPath>
</defs>
</svg>
