<svg width="22" height="16" viewBox="0 0 22 16" fill="none" xmlns="http://www.w3.org/2000/svg">
<path d="M21.9082 7.6C19.687 2.91 15.5084 0 11 0C6.49157 0 2.31303 2.91 0.0918013 7.6C0.0312527 7.72617 0 7.86234 0 8C0 8.13766 0.0312527 8.27383 0.0918013 8.4C2.31303 13.09 6.49157 16 11 16C15.5084 16 19.687 13.09 21.9082 8.4C21.9687 8.27383 22 8.13766 22 8C22 7.86234 21.9687 7.72617 21.9082 7.6ZM11 14C7.51421 14 4.21536 11.71 2.31303 8C4.21536 4.29 7.51421 2 11 2C14.4858 2 17.7846 4.29 19.687 8C17.7846 11.71 14.4858 14 11 14ZM11 4C10.1301 4 9.27967 4.2346 8.55634 4.67412C7.83302 5.11365 7.26926 5.73836 6.93635 6.46927C6.60344 7.20017 6.51633 8.00444 6.68605 8.78036C6.85576 9.55629 7.27468 10.269 7.88981 10.8284C8.50495 11.3878 9.28868 11.7688 10.1419 11.9231C10.9951 12.0775 11.8795 11.9983 12.6832 11.6955C13.4869 11.3928 14.1739 10.8801 14.6572 10.2223C15.1405 9.56448 15.3985 8.79113 15.3985 8C15.3985 6.93913 14.9351 5.92172 14.1102 5.17157C13.2853 4.42143 12.1665 4 11 4ZM11 10C10.565 10 10.1398 9.8827 9.77817 9.66294C9.41651 9.44318 9.13463 9.13082 8.96817 8.76537C8.80172 8.39991 8.75817 7.99778 8.84302 7.60982C8.92788 7.22186 9.13734 6.86549 9.44491 6.58579C9.75248 6.30608 10.1443 6.1156 10.571 6.03843C10.9976 5.96126 11.4398 6.00087 11.8416 6.15224C12.2435 6.30362 12.5869 6.55996 12.8286 6.88886C13.0703 7.21776 13.1992 7.60444 13.1992 8C13.1992 8.53043 12.9675 9.03914 12.5551 9.41421C12.1427 9.78929 11.5833 10 11 10Z" fill="#B1B6B8"/>
</svg>
