<svg width="229" height="201" viewBox="0 0 229 201" fill="none" xmlns="http://www.w3.org/2000/svg">
<g clip-path="url(#clip0_319_7602)">
<rect x="46.5" y="55.1695" width="138" height="138" rx="69" fill="#EFF1F1"/>
<path d="M85.5458 132.106C81.5004 132.35 77.6957 134.113 74.8914 137.044L35.8203 177.853L73.7042 211.246L106.04 163.887C108.162 160.781 109.591 157.253 110.23 153.544L85.5458 132.106Z" fill="#0D4667"/>
<g style="mix-blend-mode:screen" opacity="0.5">
<path d="M85.5458 132.106C81.5004 132.35 77.6957 134.113 74.8914 137.044L35.8203 177.853L73.7042 211.246L106.04 163.887C108.162 160.781 109.591 157.253 110.23 153.544L85.5458 132.106Z" fill="#0D4667"/>
</g>
<path d="M66.5742 158.602C70.0144 154.13 73.7095 149.86 77.6411 145.815C81.6526 141.851 85.8884 138.122 90.3278 134.645C87.8107 135.623 85.4072 136.871 83.1594 138.369C80.5899 140.069 78.2014 142.029 76.0314 144.218C73.8605 146.406 71.9203 148.811 70.2414 151.397C68.7623 153.659 67.5327 156.075 66.5742 158.602Z" fill="#0D4667"/>
<path d="M58.4883 185.204C64.5248 179.863 71.5019 172.044 77.7346 163.65C83.9672 155.257 89.4655 146.319 92.8509 139.008C87.3477 144.888 80.8987 153.025 74.6711 161.358C68.4434 169.691 62.5428 178.241 58.4883 185.204Z" fill="#0D4667"/>
<path d="M86.1211 159.02C90.5126 155.115 94.6728 147.216 95.4374 141.386C91.0459 145.291 86.8757 153.196 86.1211 159.02Z" fill="#0D4667"/>
<path d="M74.9688 182.135C79.8633 178.457 85.7086 173.067 91.2119 167.384C92.5852 165.958 93.9384 164.512 95.2362 163.066C96.661 161.503 97.6817 159.614 98.2092 157.564C98.3361 157.087 98.4352 156.602 98.506 156.113C98.5714 155.655 98.6368 155.206 98.7022 154.758C98.8279 153.866 98.9436 152.989 99.0442 152.128C99.2505 150.415 99.4064 148.777 99.507 147.246C98.9336 148.667 98.3651 150.213 97.8017 151.846C97.5234 152.662 97.2467 153.502 96.9717 154.365C96.8359 154.793 96.7001 155.231 96.5642 155.67C96.4423 156.085 96.2996 156.493 96.1367 156.894C95.4944 158.503 94.5208 159.959 93.2794 161.166C91.8809 162.527 90.4825 163.932 89.1092 165.363C83.616 171.066 78.4649 177.107 74.9688 182.135Z" fill="#0D4667"/>
<path d="M92.918 176.16C96.2914 172.71 99.0616 168.716 101.112 164.345C103.229 160.005 104.6 155.338 105.167 150.541C103.562 154.204 101.616 158.919 99.4021 163.524C97.1888 168.129 94.7591 172.613 92.918 176.16Z" fill="#0D4667"/>
<path d="M116.522 142.616L116.411 142.757C116.074 143.171 115.657 143.514 115.184 143.763C114.712 144.012 114.194 144.164 113.662 144.208C113.13 144.252 112.594 144.188 112.087 144.02C111.58 143.852 111.113 143.584 110.712 143.23L95.8419 130.131C95.4293 129.768 95.0965 129.323 94.8647 128.824C94.6329 128.326 94.5071 127.784 94.4952 127.234C94.4834 126.684 94.5858 126.138 94.796 125.629C95.0062 125.121 95.3195 124.662 95.7161 124.282L93.2412 123.949C92.8778 123.9 92.51 123.997 92.2178 124.219C91.9257 124.441 91.733 124.77 91.6818 125.133V125.33C91.6386 125.62 91.5042 125.89 91.298 126.099C91.0918 126.308 90.8246 126.446 90.5348 126.493L88.9804 126.786C88.7228 126.834 88.4841 126.954 88.2918 127.132C88.0996 127.311 87.9616 127.54 87.8939 127.793L87.6776 128.61C87.6143 128.857 87.484 129.082 87.3012 129.26C87.1183 129.437 86.89 129.561 86.6413 129.617C86.3343 129.686 86.0595 129.857 85.8621 130.102C85.6647 130.347 85.5563 130.652 85.5547 130.967V132.086C85.5512 132.751 85.7248 133.405 86.0578 133.98L86.7469 135.149C91.0941 142.533 97.5679 148.428 105.319 152.062L107.9 153.271C108.626 153.611 109.444 153.707 110.229 153.544C110.602 153.464 110.945 153.279 111.218 153.012C111.49 152.744 111.681 152.404 111.768 152.032C111.842 151.732 111.984 151.453 112.184 151.218C112.384 150.983 112.636 150.797 112.92 150.677L113.111 150.591C113.469 150.433 113.774 150.175 113.988 149.846C114.201 149.518 114.314 149.134 114.314 148.742V148.531C114.314 148.177 114.407 147.83 114.584 147.524C114.76 147.218 115.014 146.964 115.32 146.787L115.365 146.757C115.648 146.595 115.888 146.366 116.063 146.09C116.238 145.815 116.344 145.501 116.371 145.175L116.522 142.616Z" fill="#EE6F4E"/>
<g style="mix-blend-mode:multiply">
<path d="M112.136 148.233C110.446 147.105 108.539 145.805 106.602 144.324C102.563 141.265 98.8839 137.756 95.6362 133.864C94.0617 131.995 92.6733 130.151 91.4609 128.514C92.2077 130.7 93.2214 132.784 94.4792 134.721C97.3363 139.178 101.217 142.885 105.798 145.533C107.79 146.694 109.919 147.601 112.136 148.233Z" fill="#EE6F4E"/>
<path d="M97.9091 140.6C95.2588 137.463 92.2037 134.693 88.8242 132.363C91.4745 135.5 94.5296 138.27 97.9091 140.6Z" fill="#EE6F4E"/>
<path d="M106.088 148.908C104.126 147.261 101.52 145.256 99.0051 143.17C96.4899 141.084 93.9747 138.933 92.0078 137.326C93.7348 139.888 95.8318 142.181 98.2304 144.127C100.601 146.099 103.248 147.71 106.088 148.908Z" fill="#EE6F4E"/>
</g>
<path d="M178.401 84.4196C177.973 83.871 177.349 83.5093 176.661 83.4097C175.974 83.3102 175.274 83.4807 174.708 83.8855L161.031 93.6445L176.791 74.2727C177.356 73.5604 177.627 72.659 177.551 71.7527C177.474 70.8464 177.054 70.0037 176.378 69.3969C175.701 68.7901 174.819 68.4651 173.911 68.4882C173.003 68.5114 172.139 68.8811 171.494 69.5216L153.339 88.0168L172.842 62.4279C173.424 61.6532 173.687 60.6845 173.576 59.7215C173.466 58.7585 172.99 57.8747 172.248 57.2523C171.506 56.63 170.554 56.3166 169.588 56.3769C168.622 56.4371 167.716 56.8664 167.057 57.5761L145.059 81.5831L160.935 57.4249C161.471 56.5776 161.66 55.5556 161.461 54.5723C161.263 53.5891 160.693 52.7207 159.87 52.1484C159.047 51.5762 158.036 51.3444 157.047 51.5015C156.057 51.6585 155.167 52.1923 154.561 52.9913L141.986 70.2119C138.703 74.7039 134.982 78.8573 130.878 82.6109L126.079 86.9991L123.725 72.7814C123.479 71.2903 122.719 69.9331 121.576 68.9461C120.433 67.9591 118.981 67.405 117.472 67.3804C117.188 67.3716 116.905 67.4246 116.644 67.5357C116.382 67.6469 116.147 67.8136 115.956 68.0243C115.765 68.235 115.621 68.4847 115.536 68.7563C115.45 69.0278 115.424 69.3147 115.46 69.5972L117.04 82.2229L115.777 93.3624C115.642 94.5602 115.676 95.7712 115.878 96.9596C116.201 98.8347 116.1 100.758 115.583 102.589C115.066 104.42 114.146 106.112 112.89 107.54L111.733 108.86L92.6172 127.269L113.82 145.961L130.526 125.41C133.614 121.909 137.507 119.214 141.87 117.561L142.554 117.304C146.368 115.859 149.829 113.614 152.705 110.719L164.406 98.9346L177.953 88.2033C178.509 87.7584 178.869 87.1118 178.952 86.4035C179.036 85.6952 178.838 84.9824 178.401 84.4196Z" fill="#E8A592"/>
<g style="mix-blend-mode:screen" opacity="0.5">
<path d="M178.401 84.4196C177.973 83.871 177.349 83.5093 176.661 83.4097C175.974 83.3102 175.274 83.4807 174.708 83.8855L161.031 93.6445L176.791 74.2727C177.356 73.5604 177.627 72.659 177.551 71.7527C177.474 70.8464 177.054 70.0037 176.378 69.3969C175.701 68.7901 174.819 68.4651 173.911 68.4882C173.003 68.5114 172.139 68.8811 171.494 69.5216L153.339 88.0168L172.842 62.4279C173.424 61.6532 173.687 60.6845 173.576 59.7215C173.466 58.7585 172.99 57.8747 172.248 57.2523C171.506 56.63 170.554 56.3166 169.588 56.3769C168.622 56.4371 167.716 56.8664 167.057 57.5761L145.059 81.5831L160.935 57.4249C161.471 56.5776 161.66 55.5556 161.461 54.5723C161.263 53.5891 160.693 52.7207 159.87 52.1484C159.047 51.5762 158.036 51.3444 157.047 51.5015C156.057 51.6585 155.167 52.1923 154.561 52.9913L141.986 70.2119C138.703 74.7039 134.982 78.8573 130.878 82.6109L126.079 86.9991L123.725 72.7814C123.479 71.2903 122.719 69.9331 121.576 68.9461C120.433 67.9591 118.981 67.405 117.472 67.3804C117.188 67.3716 116.905 67.4246 116.644 67.5357C116.382 67.6469 116.147 67.8136 115.956 68.0243C115.765 68.235 115.621 68.4847 115.536 68.7563C115.45 69.0278 115.424 69.3147 115.46 69.5972L117.04 82.2229L115.777 93.3624C115.642 94.5602 115.676 95.7712 115.878 96.9596C116.201 98.8347 116.1 100.758 115.583 102.589C115.066 104.42 114.146 106.112 112.89 107.54L111.733 108.86L92.6172 127.269L113.82 145.961L130.526 125.41C133.614 121.909 137.507 119.214 141.87 117.561L142.554 117.304C146.368 115.859 149.829 113.614 152.705 110.719L164.406 98.9346L177.953 88.2033C178.509 87.7584 178.869 87.1118 178.952 86.4035C179.036 85.6952 178.838 84.9824 178.401 84.4196Z" fill="#E8A592"/>
</g>
<path d="M126.078 86.9991L126.677 87.7599C129.177 90.8862 130.85 94.5926 131.543 98.5373C132.236 102.482 131.925 106.538 130.641 110.331C132.818 106.683 133.616 102.373 132.888 98.185C132.161 93.9973 129.957 90.2104 126.677 87.513L126.078 86.9991Z" fill="#E8A592"/>
<path d="M163.044 97.9521L138.969 76.1116L141.368 79.2504C146.488 85.9252 152.773 91.6147 159.92 96.0427L163.044 97.9521Z" fill="#E8A592"/>
<path d="M133.047 86.6918C134.51 87.7583 135.812 89.029 136.915 90.4654C138.186 92.1069 139.222 93.918 139.994 95.8462C140.772 97.7823 141.28 99.8168 141.503 101.892C141.681 103.694 141.602 105.513 141.267 107.293C141.053 105.538 140.748 103.796 140.351 102.073C139.902 100.152 139.311 98.2656 138.585 96.4306C137.846 94.6005 136.974 92.8273 135.975 91.1254C135.075 89.5985 134.098 88.1187 133.047 86.6918Z" fill="#E8A592"/>
<path d="M134.629 84.9083C138.04 87.0042 142.24 89.9868 146.4 93.0147C150.56 96.0427 154.68 99.1462 157.713 101.756C153.313 99.8347 149.145 97.4194 145.288 94.5564C141.381 91.7561 137.805 88.5192 134.629 84.9083Z" fill="#E8A592"/>
<path d="M148.445 62.2162C148.168 62.05 147.871 61.8938 147.539 61.7124C146.499 61.2105 145.387 60.8707 144.244 60.7048C143.242 60.5626 142.224 60.5779 141.226 60.7501C139.272 61.1241 137.445 61.9911 135.919 63.2692C135.118 63.9161 134.377 64.6344 133.706 65.4155C133.037 66.1788 132.425 66.9905 131.875 67.8439C131.318 68.727 130.814 69.6422 130.365 70.5847C129.943 71.4725 129.576 72.3862 129.269 73.3204C128.512 75.6425 128.067 78.0551 127.946 80.4948C127.829 82.9663 127.998 85.443 128.449 87.8757C128.899 90.3272 129.593 92.7273 130.521 95.0401C131.92 98.5693 133.86 101.858 136.271 104.789L136.643 105.242C136.789 105.424 136.93 105.605 137.071 105.792C137.438 105.907 137.795 106.023 138.153 106.154L138.389 106.24C141.898 107.342 145.552 107.91 149.229 107.928C151.734 107.953 154.234 107.73 156.695 107.263C159.14 106.799 161.524 106.058 163.803 105.056C166.044 104.064 168.144 102.78 170.05 101.237C170.814 100.611 171.538 99.9382 172.218 99.2217C172.935 98.4639 173.607 97.6648 174.231 96.8286C174.84 96.0094 175.39 95.1473 175.875 94.2491C176.363 93.3459 176.767 92.3998 177.083 91.4226C177.719 89.5512 177.865 87.5474 177.505 85.6035C177.31 84.6201 176.958 83.6744 176.464 82.8023C175.89 81.8096 175.165 80.9122 174.316 80.1421C173.901 79.7563 173.459 79.401 172.993 79.0791L172.812 78.9581L172.389 78.6962C171.992 78.4626 171.582 78.2506 171.162 78.0613C170.04 77.5646 168.855 77.2255 167.641 77.0537C166.443 76.8818 165.23 76.8446 164.024 76.9429C162.752 77.036 161.492 77.252 160.261 77.5877C159.019 77.9235 157.808 78.3634 156.639 78.9027C156 79.2 155.367 79.5325 154.758 79.9104C154.9 79.1749 154.994 78.4311 155.04 77.6835C155.125 76.4073 155.099 75.1262 154.964 73.8544C154.832 72.5924 154.581 71.3458 154.215 70.1312C153.868 68.9786 153.394 67.8684 152.801 66.8211C152.203 65.7649 151.463 64.7953 150.603 63.9393C150.153 63.5017 149.672 63.0976 149.164 62.7301L149.013 62.6294C148.807 62.4832 148.616 62.3674 148.42 62.2515" fill="#EE6F4E"/>
<path d="M134.33 125.259C134.33 123.789 133.747 122.38 132.71 121.34C131.672 120.301 130.264 119.717 128.797 119.717C130.264 119.717 131.672 119.133 132.71 118.094C133.747 117.055 134.33 115.645 134.33 114.175C134.33 115.645 134.913 117.055 135.951 118.094C136.989 119.133 138.396 119.717 139.864 119.717C138.396 119.717 136.989 120.301 135.951 121.34C134.913 122.38 134.33 123.789 134.33 125.259Z" fill="#FFE26C"/>
<path d="M121.813 60.0851C121.813 59.3177 121.509 58.5816 120.968 58.0384C120.426 57.4953 119.692 57.1895 118.926 57.1882C119.692 57.1882 120.426 56.8835 120.968 56.3411C121.509 55.7988 121.813 55.0632 121.813 54.2962C121.813 54.6764 121.888 55.0529 122.034 55.4041C122.179 55.7553 122.392 56.0743 122.661 56.3429C122.929 56.6115 123.248 56.8244 123.599 56.9695C123.95 57.1145 124.326 57.1888 124.706 57.1882C123.939 57.1882 123.203 57.4934 122.66 58.0367C122.118 58.5799 121.813 59.3168 121.813 60.0851Z" fill="#FFE26C"/>
</g>
<path d="M177.998 84.6969C177.571 84.1497 176.95 83.7889 176.264 83.6896C175.577 83.5904 174.879 83.7604 174.315 84.1642L160.673 93.8983L176.393 74.5758C176.956 73.8654 177.227 72.9663 177.151 72.0623C177.074 71.1583 176.656 70.3177 175.981 69.7125C175.306 69.1072 174.426 68.783 173.52 68.8062C172.615 68.8293 171.752 69.198 171.109 69.8369L153.001 88.285L172.454 62.7612C173.034 61.9886 173.296 61.0223 173.186 60.0618C173.076 59.1012 172.602 58.2196 171.862 57.5989C171.122 56.9781 170.172 56.6656 169.208 56.7257C168.245 56.7858 167.341 57.2139 166.684 57.9218L144.742 81.8676L160.577 57.7711C161.112 56.9259 161.3 55.9065 161.102 54.9257C160.904 53.945 160.336 53.0788 159.515 52.508C158.694 51.9372 157.685 51.706 156.699 51.8627C155.712 52.0194 154.824 52.5518 154.22 53.3487L141.676 70.5254C138.402 75.0059 134.691 79.1488 130.597 82.8928L125.81 87.2698L123.462 73.0883C123.217 71.6011 122.458 70.2473 121.319 69.2628C120.179 68.2784 118.73 67.7257 117.225 67.7011C116.942 67.6923 116.66 67.7452 116.399 67.8561C116.138 67.9669 115.904 68.1332 115.713 68.3434C115.522 68.5535 115.379 68.8026 115.294 69.0735C115.208 69.3443 115.183 69.6305 115.218 69.9123L116.794 82.5058L115.534 93.6168C115.4 94.8117 115.433 96.0196 115.635 97.2049C115.957 99.0753 115.857 100.994 115.341 102.82C114.825 104.647 113.907 106.334 112.654 107.758L111.5 109.075L92.4336 127.437L113.583 146.081L130.246 125.583C133.326 122.09 137.209 119.403 141.561 117.754L142.243 117.497C146.047 116.056 149.499 113.816 152.368 110.929L164.039 99.1749L177.552 88.4709C178.107 88.0272 178.465 87.3822 178.549 86.6757C178.632 85.9692 178.435 85.2582 177.998 84.6969Z" fill="#E8A592"/>
<g style="mix-blend-mode:screen" opacity="0.5">
<path d="M177.998 84.6969C177.571 84.1497 176.95 83.7889 176.264 83.6896C175.577 83.5904 174.879 83.7604 174.315 84.1642L160.673 93.8983L176.393 74.5758C176.956 73.8654 177.227 72.9663 177.151 72.0623C177.074 71.1583 176.656 70.3177 175.981 69.7125C175.306 69.1072 174.426 68.783 173.52 68.8062C172.615 68.8293 171.752 69.198 171.109 69.8369L153.001 88.285L172.454 62.7612C173.034 61.9886 173.296 61.0223 173.186 60.0618C173.076 59.1012 172.602 58.2196 171.862 57.5989C171.122 56.9781 170.172 56.6656 169.208 56.7257C168.245 56.7858 167.341 57.2139 166.684 57.9218L144.742 81.8676L160.577 57.7711C161.112 56.9259 161.3 55.9065 161.102 54.9257C160.904 53.945 160.336 53.0788 159.515 52.508C158.694 51.9372 157.685 51.706 156.699 51.8627C155.712 52.0194 154.824 52.5518 154.22 53.3487L141.676 70.5254C138.402 75.0059 134.691 79.1488 130.597 82.8928L125.81 87.2698L123.462 73.0883C123.217 71.6011 122.458 70.2473 121.319 69.2628C120.179 68.2784 118.73 67.7257 117.225 67.7011C116.942 67.6923 116.66 67.7452 116.399 67.8561C116.138 67.9669 115.904 68.1332 115.713 68.3434C115.522 68.5535 115.379 68.8026 115.294 69.0735C115.208 69.3443 115.183 69.6305 115.218 69.9123L116.794 82.5058L115.534 93.6168C115.4 94.8117 115.433 96.0196 115.635 97.2049C115.957 99.0753 115.857 100.994 115.341 102.82C114.825 104.647 113.907 106.334 112.654 107.758L111.5 109.075L92.4336 127.437L113.583 146.081L130.246 125.583C133.326 122.09 137.209 119.403 141.561 117.754L142.243 117.497C146.047 116.056 149.499 113.816 152.368 110.929L164.039 99.1749L177.552 88.4709C178.107 88.0272 178.465 87.3822 178.549 86.6757C178.632 85.9692 178.435 85.2582 177.998 84.6969Z" fill="#E8A592"/>
</g>
<path d="M125.809 87.2698L126.406 88.0287C128.899 91.147 130.568 94.844 131.259 98.7786C131.95 102.713 131.641 106.759 130.36 110.542C132.531 106.903 133.327 102.604 132.601 98.4272C131.876 94.2502 129.677 90.4729 126.406 87.7824L125.809 87.2698Z" fill="#E8A592"/>
<path d="M162.682 98.1949L138.668 76.41L141.061 79.5408C146.168 86.1987 152.437 91.8737 159.566 96.2903L162.682 98.1949Z" fill="#E8A592"/>
<path d="M132.762 86.9633C134.221 88.0271 135.52 89.2946 136.62 90.7273C137.888 92.3646 138.921 94.171 139.691 96.0943C140.468 98.0255 140.974 100.055 141.196 102.125C141.374 103.923 141.295 105.737 140.96 107.512C140.748 105.762 140.443 104.024 140.047 102.306C139.599 100.389 139.01 98.5075 138.286 96.6773C137.549 94.8518 136.678 93.0831 135.682 91.3856C134.784 89.8625 133.81 88.3865 132.762 86.9633Z" fill="#E8A592"/>
<path d="M134.336 85.1843C137.738 87.2749 141.928 90.2499 146.077 93.2701C150.227 96.2903 154.336 99.386 157.362 101.989C152.972 100.073 148.815 97.6635 144.968 94.8079C141.071 92.0147 137.504 88.786 134.336 85.1843Z" fill="#E8A592"/>
<path d="M148.119 62.5501C147.843 62.3843 147.547 62.2285 147.216 62.0476C146.178 61.5469 145.069 61.208 143.929 61.0425C142.93 60.9007 141.914 60.916 140.919 61.0878C138.97 61.4608 137.148 62.3256 135.625 63.6004C134.826 64.2457 134.087 64.9622 133.417 65.7412C132.75 66.5026 132.14 67.3122 131.591 68.1634C131.036 69.0443 130.533 69.9571 130.086 70.8972C129.664 71.7828 129.299 72.6942 128.992 73.626C128.237 75.9421 127.793 78.3486 127.672 80.7821C127.556 83.2473 127.724 85.7177 128.174 88.1442C128.623 90.5895 129.315 92.9835 130.241 95.2903C131.637 98.8105 133.572 102.091 135.976 105.014L136.348 105.467C136.493 105.648 136.634 105.828 136.774 106.014C137.14 106.13 137.497 106.246 137.853 106.376L138.089 106.462C141.589 107.56 145.234 108.128 148.902 108.145C151.399 108.171 153.894 107.948 156.348 107.482C158.787 107.019 161.165 106.28 163.438 105.281C165.673 104.291 167.768 103.01 169.669 101.471C170.431 100.847 171.154 100.176 171.832 99.4613C172.547 98.7054 173.217 97.9084 173.839 97.0743C174.447 96.2571 174.995 95.3972 175.48 94.5013C175.966 93.6004 176.369 92.6567 176.684 91.6821C177.319 89.8154 177.464 87.8168 177.105 85.8778C176.91 84.8969 176.56 83.9536 176.067 83.0837C175.494 82.0935 174.771 81.1984 173.924 80.4303C173.51 80.0455 173.069 79.6911 172.605 79.37L172.424 79.2494L172.003 78.988C171.606 78.755 171.197 78.5437 170.778 78.3548C169.659 77.8593 168.477 77.5211 167.266 77.3498C166.071 77.1783 164.861 77.1413 163.658 77.2392C162.39 77.3321 161.133 77.5475 159.905 77.8825C158.666 78.2174 157.458 78.6561 156.293 79.1941C155.655 79.4906 155.023 79.8223 154.416 80.1992C154.557 79.4656 154.651 78.7236 154.697 77.9779C154.782 76.7051 154.757 75.4272 154.622 74.1587C154.49 72.8999 154.24 71.6564 153.874 70.445C153.528 69.2953 153.055 68.1879 152.464 67.1433C151.867 66.0897 151.129 65.1227 150.271 64.2688C149.823 63.8323 149.343 63.4292 148.836 63.0627L148.686 62.9622C148.48 62.8165 148.29 62.7009 148.094 62.5853" fill="#EE6F4E"/>
<path d="M131.926 19.0558C131.926 17.5897 131.344 16.1836 130.309 15.147C129.274 14.1103 127.87 13.5279 126.406 13.5279C127.87 13.5279 129.274 12.9455 130.309 11.9088C131.344 10.8721 131.926 9.46609 131.926 8C131.926 9.46609 132.507 10.8721 133.542 11.9088C134.577 12.9455 135.981 13.5279 137.445 13.5279C135.981 13.5279 134.577 14.1103 133.542 15.147C132.507 16.1836 131.926 17.5897 131.926 19.0558Z" fill="#FFE26C"/>
<path d="M206.422 97.6422C206.422 96.1761 205.84 94.7701 204.805 93.7334C203.77 92.6967 202.366 92.1143 200.902 92.1143C202.366 92.1143 203.77 91.5319 204.805 90.4952C205.84 89.4585 206.422 88.0525 206.422 86.5864C206.422 88.0525 207.003 89.4585 208.038 90.4952C209.073 91.5319 210.477 92.1143 211.941 92.1143C210.477 92.1143 209.073 92.6967 208.038 93.7334C207.003 94.7701 206.422 96.1761 206.422 97.6422Z" fill="#FFE26C"/>
<path d="M134.043 125.432C134.043 123.966 133.461 122.56 132.426 121.524C131.391 120.487 129.987 119.904 128.523 119.904C129.987 119.904 131.391 119.322 132.426 118.285C133.461 117.249 134.043 115.843 134.043 114.377C134.043 115.843 134.624 117.249 135.659 118.285C136.694 119.322 138.098 119.904 139.562 119.904C138.098 119.904 136.694 120.487 135.659 121.524C134.624 122.56 134.043 123.966 134.043 125.432Z" fill="#FFE26C"/>
<path d="M145.946 40.0467C145.946 39.2816 145.643 38.5479 145.103 38.007C144.563 37.466 143.83 37.1621 143.066 37.1621C143.445 37.1621 143.82 37.0873 144.17 36.9421C144.519 36.7968 144.837 36.5839 145.105 36.3155C145.372 36.0471 145.584 35.7285 145.729 35.378C145.873 35.0274 145.947 34.6518 145.946 34.2725C145.946 34.6518 146.02 35.0274 146.164 35.378C146.309 35.7285 146.521 36.0471 146.788 36.3155C147.056 36.5839 147.374 36.7968 147.723 36.9421C148.073 37.0873 148.448 37.1621 148.827 37.1621C148.063 37.1621 147.33 37.466 146.79 38.007C146.25 38.5479 145.946 39.2816 145.946 40.0467Z" fill="#FFE26C"/>
<path d="M121.556 60.4244C121.556 59.659 121.253 58.9247 120.713 58.383C120.173 57.8412 119.44 57.5362 118.676 57.5349C119.44 57.5349 120.172 57.231 120.712 56.69C121.252 56.149 121.556 55.4154 121.556 54.6503C121.556 55.0296 121.631 55.4051 121.776 55.7554C121.921 56.1057 122.133 56.4239 122.401 56.6918C122.669 56.9597 122.987 57.1721 123.337 57.3167C123.687 57.4614 124.062 57.5355 124.441 57.5349C123.676 57.5349 122.942 57.8393 122.401 58.3812C121.86 58.9231 121.556 59.6581 121.556 60.4244Z" fill="#FFE26C"/>
<defs>
<clipPath id="clip0_319_7602">
<rect x="46.5" y="55.1695" width="138" height="138" rx="69" fill="white"/>
</clipPath>
</defs>
</svg>
