<svg width="48" height="48" viewBox="0 0 48 48" fill="none" xmlns="http://www.w3.org/2000/svg">
<rect width="48" height="48" rx="24" fill="#E4FAF4"/>
<g clip-path="url(#clip0_47_1948)">
<path d="M33.3346 35.6667H31.0013V33.3334C31.0013 32.4052 30.6326 31.5149 29.9762 30.8585C29.3198 30.2022 28.4296 29.8334 27.5013 29.8334H20.5013C19.573 29.8334 18.6828 30.2022 18.0264 30.8585C17.3701 31.5149 17.0013 32.4052 17.0013 33.3334V35.6667H14.668V33.3334C14.668 31.7863 15.2826 30.3026 16.3765 29.2086C17.4705 28.1147 18.9542 27.5001 20.5013 27.5001H27.5013C29.0484 27.5001 30.5321 28.1147 31.6261 29.2086C32.7201 30.3026 33.3346 31.7863 33.3346 33.3334V35.6667ZM24.0013 25.1667C23.082 25.1667 22.1718 24.9857 21.3225 24.6339C20.4732 24.2821 19.7016 23.7665 19.0516 23.1165C18.4015 22.4665 17.8859 21.6948 17.5341 20.8455C17.1824 19.9963 17.0013 19.086 17.0013 18.1667C17.0013 17.2475 17.1824 16.3372 17.5341 15.488C17.8859 14.6387 18.4015 13.867 19.0516 13.217C19.7016 12.567 20.4732 12.0514 21.3225 11.6996C22.1718 11.3478 23.082 11.1667 24.0013 11.1667C25.8578 11.1667 27.6383 11.9042 28.951 13.217C30.2638 14.5298 31.0013 16.3102 31.0013 18.1667C31.0013 20.0233 30.2638 21.8037 28.951 23.1165C27.6383 24.4292 25.8578 25.1667 24.0013 25.1667ZM24.0013 22.8334C25.239 22.8334 26.426 22.3417 27.3011 21.4666C28.1763 20.5914 28.668 19.4044 28.668 18.1667C28.668 16.9291 28.1763 15.7421 27.3011 14.8669C26.426 13.9917 25.239 13.5001 24.0013 13.5001C22.7636 13.5001 21.5766 13.9917 20.7015 14.8669C19.8263 15.7421 19.3346 16.9291 19.3346 18.1667C19.3346 19.4044 19.8263 20.5914 20.7015 21.4666C21.5766 22.3417 22.7636 22.8334 24.0013 22.8334Z" fill="#2D2D2D"/>
</g>
<defs>
<clipPath id="clip0_47_1948">
<rect width="28" height="28" fill="white" transform="translate(10 10)"/>
</clipPath>
</defs>
</svg>
