<svg width="26" height="26" viewBox="0 0 26 26" fill="none" xmlns="http://www.w3.org/2000/svg">
<path d="M7.80369 8.70897L11.9627 4.23515V17.7074C11.9627 18.2812 12.4248 18.7433 12.9986 18.7433C13.5724 18.7433 14.0345 18.2812 14.0345 17.7074V4.23515L18.1935 8.70897C18.5845 9.13046 19.2396 9.15077 19.6611 8.76483C20.0826 8.37382 20.1029 7.71874 19.717 7.29726L13.7603 0.888662C13.1763 0.299599 12.4603 0.624599 12.242 0.888662L6.28533 7.29726C5.89432 7.71874 5.91971 8.37382 6.34119 8.76483C6.7576 9.15077 7.41268 9.13046 7.80369 8.70897Z" fill="#2F856E"/>
<path d="M24.4055 17.3267C23.8316 17.3267 23.3695 17.7888 23.3695 18.3626V23.3595H2.63047V18.3626C2.63047 17.7888 2.16836 17.3267 1.59453 17.3267C1.0207 17.3267 0.558594 17.7938 0.558594 18.3626V24.3954C0.558594 24.9692 1.0207 25.4313 1.59453 25.4313H24.4055C24.9793 25.4313 25.4414 24.9692 25.4414 24.3954V18.3626C25.4414 17.7938 24.9793 17.3267 24.4055 17.3267Z" fill="#2F856E"/>
</svg>
