<svg width="16" height="16" viewBox="0 0 16 16" fill="none" xmlns="http://www.w3.org/2000/svg">
<g clip-path="url(#clip0_1247_274)">
<path d="M11.332 1.99999C11.5071 1.8249 11.715 1.686 11.9438 1.59124C12.1725 1.49648 12.4177 1.44771 12.6654 1.44771C12.913 1.44771 13.1582 1.49648 13.387 1.59124C13.6157 1.686 13.8236 1.8249 13.9987 1.99999C14.1738 2.17509 14.3127 2.38296 14.4074 2.61173C14.5022 2.84051 14.551 3.0857 14.551 3.33333C14.551 3.58095 14.5022 3.82615 14.4074 4.05492C14.3127 4.28369 14.1738 4.49156 13.9987 4.66666L4.9987 13.6667L1.33203 14.6667L2.33203 11L11.332 1.99999Z" stroke="white" stroke-width="1.5" stroke-linecap="round" stroke-linejoin="round"/>
</g>
<defs>
<clipPath id="clip0_1247_274">
<rect width="16" height="16" fill="white"/>
</clipPath>
</defs>
</svg>
