<svg xmlns="http://www.w3.org/2000/svg" width="136" height="151.111" viewBox="0 0 136 151.111">
  <g id="social-media" transform="translate(-40 -16)">
    <path id="Path_808" data-name="Path 808" d="M48,72H178.963V197.926a5.037,5.037,0,0,1-5.037,5.037H53.037A5.037,5.037,0,0,1,48,197.926V72" transform="translate(-5.481 -38.37)" fill="#8760e6"/>
    <rect id="Rectangle_1173" data-name="Rectangle 1173" width="100" height="58" transform="translate(58 49.111)" fill="#7148db"/>
    <path id="Path_809" data-name="Path 809" d="M217.481,243.7H152l2.729-10,2.295-8.418A12.592,12.592,0,0,1,169.173,216h31.135a12.592,12.592,0,0,1,12.149,9.281l2.3,8.431Z" transform="translate(-76.741 -137.037)" fill="#02c26a"/>
    <path id="Path_810" data-name="Path 810" d="M169.186,277.04l-2.075,5.185H152l2.729-10Z" transform="translate(-76.741 -175.558)" fill="#ffceb6"/>
    <path id="Path_811" data-name="Path 811" d="M327.111,282.252H312v-5.037l12.385-4.955Z" transform="translate(-186.37 -175.586)" fill="#ffceb6"/>
    <path id="Path_812" data-name="Path 812" d="M96,341.343h0A5.343,5.343,0,0,1,101.343,336h0a5.343,5.343,0,0,1,3.778,1.565l.954.954.954-.954A5.342,5.342,0,0,1,110.806,336h0a5.343,5.343,0,0,1,5.343,5.343h0a5.343,5.343,0,0,1-1.565,3.778l-8.509,8.509-8.509-8.509A5.343,5.343,0,0,1,96,341.343Z" transform="translate(-38.37 -219.259)" fill="#f5714f"/>
    <circle id="Ellipse_252" data-name="Ellipse 252" cx="5" cy="5" r="5" transform="translate(63 144.111)" fill="#b89dfa"/>
    <path id="Path_813" data-name="Path 813" d="M244.593,200v8.815a6.38,6.38,0,0,1-.126,1.259A6.3,6.3,0,0,1,232,208.815V200Z" transform="translate(-131.556 -126.074)" fill="#ffceb6"/>
    <path id="Path_814" data-name="Path 814" d="M239.556,191.111h0A7.556,7.556,0,0,1,232,183.556v-2.519L237.037,176h10.074v7.556A7.556,7.556,0,0,1,239.556,191.111Z" transform="translate(-131.556 -109.63)" fill="#ffceb6"/>
    <path id="Path_815" data-name="Path 815" d="M247.111,154.074,249.2,149.9a4.075,4.075,0,0,0,.43-1.822h0A4.075,4.075,0,0,0,245.555,144h-6A7.556,7.556,0,0,0,232,151.556v7.556l5.037-5.037Z" transform="translate(-131.556 -87.704)" fill="#c47220"/>
    <path id="Path_816" data-name="Path 816" d="M48,39.111V29.037A5.037,5.037,0,0,1,53.037,24H173.926a5.037,5.037,0,0,1,5.037,5.037V39.111Z" transform="translate(-5.481 -5.481)" fill="#a88af2"/>
    <path id="Path_817" data-name="Path 817" d="M168.444,167.111A7.564,7.564,0,0,0,176,159.556v-136A7.564,7.564,0,0,0,168.444,16H47.556A7.564,7.564,0,0,0,40,23.556v136a7.564,7.564,0,0,0,7.556,7.556ZM47.556,21.037H168.444a2.521,2.521,0,0,1,2.519,2.519v7.556H45.037V23.556A2.521,2.521,0,0,1,47.556,21.037ZM45.037,159.556V36.148H170.963V159.556a2.521,2.521,0,0,1-2.519,2.519H47.556A2.521,2.521,0,0,1,45.037,159.556Z"/>
    <circle id="Ellipse_253" data-name="Ellipse 253" cx="2.5" cy="2.5" r="2.5" transform="translate(50 23.111)"/>
    <circle id="Ellipse_254" data-name="Ellipse 254" cx="2.5" cy="2.5" r="2.5" transform="translate(58 23.111)"/>
    <circle id="Ellipse_255" data-name="Ellipse 255" cx="2.5" cy="2.5" r="2.5" transform="translate(65 23.111)"/>
    <path id="Path_818" data-name="Path 818" d="M90.519,174.963H191.259a2.519,2.519,0,0,0,2.519-2.518V114.519A2.519,2.519,0,0,0,191.259,112H90.519A2.519,2.519,0,0,0,88,114.518v57.926a2.519,2.519,0,0,0,2.518,2.519Zm45.333-26.541a10.036,10.036,0,0,0,7.424,1.067,3.775,3.775,0,0,1-7.424-.971Zm5.037-3.682a5.043,5.043,0,0,1-5.037-5.037v-1.475l3.562-3.562h6.513V139.7A5.043,5.043,0,0,1,140.889,144.741Zm7.391-17.9-1.392,2.784H138.37a2.519,2.519,0,0,0-1.781.737l-.738.738V129.63a5.043,5.043,0,0,1,5.037-5.037h6a1.557,1.557,0,0,1,1.392,2.253Zm-8.651,30.488a8.825,8.825,0,0,0,8.815-8.815v-1.259h8.011a10.1,10.1,0,0,1,9.719,7.423l1.709,6.266-6.847,2.739v-6.354H156v12.593H126.979l3.656-9.139-4.677-1.87-2.081,5.2-9.944-3.315,1.67-6.122a10.1,10.1,0,0,1,9.719-7.423h5.493v1.259A8.825,8.825,0,0,0,139.63,157.333Zm21.407,11.779,8.181-3.272,1.114,4.086h-9.3Zm-48.431-3.441L122,168.8l-.449,1.122H111.446ZM93.037,117.037h95.7v52.889H175.553l-4.519-16.568a15.144,15.144,0,0,0-14.579-11.135h-5.812a10.058,10.058,0,0,0,.319-2.519v-6.961l1.823-3.645a6.594,6.594,0,0,0-5.9-9.542h-6a10.086,10.086,0,0,0-10.074,10.074V139.7a10.058,10.058,0,0,0,.319,2.519h-5.812a15.144,15.144,0,0,0-14.579,11.135l-4.519,16.568H93.037Z" transform="translate(-32.889 -65.778)"/>
    <path id="Path_819" data-name="Path 819" d="M98.812,349.926a2.519,2.519,0,0,0,3.562,0l8.509-8.509a7.862,7.862,0,0,0-10.29-11.839A7.862,7.862,0,0,0,90.3,341.417Zm-2.95-16.892a2.805,2.805,0,0,1,2,.827l.954.954a2.519,2.519,0,0,0,3.562,0l.954-.954a2.824,2.824,0,0,1,3.994,3.994l-6.728,6.729-6.728-6.729a2.824,2.824,0,0,1,2-4.821Z" transform="translate(-32.889 -213.775)"/>
    <circle id="Ellipse_256" data-name="Ellipse 256" cx="2.5" cy="2.5" r="2.5" transform="translate(83 127.111)"/>
    <circle id="Ellipse_257" data-name="Ellipse 257" cx="2.5" cy="2.5" r="2.5" transform="translate(90 127.111)"/>
    <circle id="Ellipse_258" data-name="Ellipse 258" cx="2.5" cy="2.5" r="2.5" transform="translate(98 127.111)"/>
    <path id="Path_820" data-name="Path 820" d="M111.556,416a7.556,7.556,0,1,0,7.556,7.556A7.556,7.556,0,0,0,111.556,416Zm0,10.074a2.519,2.519,0,1,1,2.519-2.518A2.518,2.518,0,0,1,111.556,426.074Z" transform="translate(-43.852 -274.074)"/>
    <rect id="Rectangle_1174" data-name="Rectangle 1174" width="5" height="5" transform="translate(83 147.111)"/>
    <rect id="Rectangle_1175" data-name="Rectangle 1175" width="25" height="5" transform="translate(93 147.111)"/>
  </g>
</svg>
