<svg xmlns="http://www.w3.org/2000/svg" width="17.466" height="24.04" viewBox="0 0 17.466 24.04">
  <g id="book_1_" data-name="book (1)" transform="translate(0 0)">
    <path id="Path_535" data-name="Path 535" d="M124.04,410.1v2.93h-13.53a1.01,1.01,0,0,1-1.009-1.009v-.911a1.01,1.01,0,0,1,1.009-1.009Z" transform="translate(-107.645 -390.848)" fill="#d9ecfd"/>
    <path id="Path_536" data-name="Path 536" d="M124.04,441.3v1.465h-13.53a1.01,1.01,0,0,1-1.009-1.009V441.3Z" transform="translate(-107.645 -420.583)" fill="#c5e2ff"/>
    <path id="Path_537" data-name="Path 537" d="M80.091,24.9V7.5h-.948A1.643,1.643,0,0,0,77.5,9.143V27.413A2.512,2.512,0,0,1,80.024,24.9Z" transform="translate(-77.148 -7.148)" fill="#db3915"/>
    <path id="Path_538" data-name="Path 538" d="M132.68,7.5h14.171V24.9H132.68Z" transform="translate(-129.737 -7.148)" fill="#fc5a36"/>
    <path id="Path_539" data-name="Path 539" d="M80.012,378.1a2.512,2.512,0,0,0-2.512,2.512v.911a2.512,2.512,0,0,0,2.512,2.512h14.25v-1.5H80.012A1.01,1.01,0,0,1,79,381.527v-.911a1.009,1.009,0,0,1,1.009-1.009h14.25v-1.5Z" transform="translate(-77.148 -360.351)" fill="#a42b0f"/>
    <path id="Path_540" data-name="Path 540" d="M193.467,63.1h8.469v3.79h-8.469Z" transform="translate(-187.67 -60.141)" fill="#ffc85e"/>
    <g id="Group_205" data-name="Group 205" transform="translate(0 0)">
      <path id="Path_541" data-name="Path 541" d="M87.114,0H72a2,2,0,0,0-2,1.995V21.176a2.867,2.867,0,0,0,2.864,2.864h14.25a.352.352,0,0,0,.352-.352v-1.5a.352.352,0,0,0-.352-.352h-.368V19.608h.368a.352.352,0,0,0,.352-.352V.352A.352.352,0,0,0,87.114,0ZM70.7,1.995A1.292,1.292,0,0,1,72,.7h.6V13.078a.352.352,0,1,0,.7,0V.7H86.762V17.4H73.3V14.613a.352.352,0,1,0-.7,0v2.8a2.86,2.86,0,0,0-1.887.973ZM86.042,20.368h-2.52a.352.352,0,1,0,0,.7h2.52v.76H72.864a.655.655,0,0,1-.657-.76h9.781a.352.352,0,1,0,0-.7H72.207a.642.642,0,0,1,.657-.761H86.042Zm.72-1.465h-13.9A1.363,1.363,0,0,0,71.5,20.265v.911a1.363,1.363,0,0,0,1.362,1.362h13.9v.8h-13.9a2.162,2.162,0,0,1-2.16-2.16v-.911a2.162,2.162,0,0,1,2.16-2.16h13.9Z" transform="translate(-70)"/>
      <path id="Path_542" data-name="Path 542" d="M186.322,60.1h8.469a.352.352,0,0,0,.352-.352v-3.79a.352.352,0,0,0-.352-.352h-2.129a.352.352,0,1,0,0,.7h1.777v3.086h-7.765V56.308h4.453a.352.352,0,1,0,0-.7h-4.805a.352.352,0,0,0-.352.352v3.79A.352.352,0,0,0,186.322,60.1Z" transform="translate(-180.525 -52.993)"/>
      <path id="Path_543" data-name="Path 543" d="M223.957,241.592H218.51a.352.352,0,0,0,0,.7h5.447a.352.352,0,0,0,0-.7Z" transform="translate(-211.202 -230.249)"/>
      <path id="Path_544" data-name="Path 544" d="M223.957,277.409H218.51a.352.352,0,0,0,0,.7h5.447a.352.352,0,0,0,0-.7Z" transform="translate(-211.202 -264.384)"/>
    </g>
  </g>
</svg>
