<svg xmlns="http://www.w3.org/2000/svg" width="30.446" height="30.763" viewBox="0 0 30.446 30.763">
  <g id="helping-hand" transform="translate(-7 -1)">
    <g id="Group_251" data-name="Group 251" transform="translate(7 1)">
      <g id="Group_250" data-name="Group 250" transform="translate(0 0)">
        <g id="Group_248" data-name="Group 248" transform="translate(0.451 0.451)">
          <g id="Group_247" data-name="Group 247">
            <path id="Path_733" data-name="Path 733" d="M202.462,87.534l2.223,6.092L215,103.941c-1.571,1.594-3.161,3.17-4.738,4.758l-10.4-10.4H198.58V87.522l-1.459-1.454a1.563,1.563,0,1,1,2.208-2.212l2.172,2.172A4.135,4.135,0,0,1,202.462,87.534Z" transform="translate(-185.454 -78.838)" fill="#c86f5c"/>
            <path id="Path_734" data-name="Path 734" d="M215.047,103.947,204.733,93.634l-2.223-6.092a4.124,4.124,0,0,0-.961-1.507l-2.172-2.172a1.562,1.562,0,0,0-2.665,1.024c.027,0,.054,0,.082,0a1.555,1.555,0,0,1,1.105.458l2.172,2.172a4.144,4.144,0,0,1,.961,1.507l2.223,6.093,1.535,1.535q-1.633,1.637-3.268,3.272l6.125,6.125a2.668,2.668,0,0,0,1.024-2.1v-1.609a.748.748,0,0,1,1.276-.529l3.621,3.622Z" transform="translate(-185.502 -78.844)" fill="#ba5d4f"/>
            <path id="Path_735" data-name="Path 735" d="M36.332,24.844l-2.613-2.613a4.135,4.135,0,0,0-1.507-.961L26.12,19.047,15.186,7.5l-5.055,5.055L21.444,23.867v5.882a1.333,1.333,0,0,0,1.264,1.343,1.312,1.312,0,0,0,1.36-1.311v1.41a1.312,1.312,0,0,0,2.624,0v.673a1.333,1.333,0,0,0,1.264,1.343,1.312,1.312,0,0,0,1.36-1.311v.7a1.312,1.312,0,1,0,2.624,0V24.868l2.18,2.184a1.562,1.562,0,1,0,2.211-2.208Z" transform="translate(-10.131 -7.5)" fill="#ffcec0"/>
            <path id="Path_736" data-name="Path 736" d="M95.569,25.949a1.561,1.561,0,0,1-1.317,1.543,1.564,1.564,0,0,0-.438-1.35L91.2,23.528a4.131,4.131,0,0,0-1.507-.961L83.6,20.344,72.667,8.8l1.3-1.3L84.9,19.047l6.092,2.223a4.131,4.131,0,0,1,1.507.961l2.613,2.613A1.558,1.558,0,0,1,95.569,25.949Z" transform="translate(-68.91 -7.5)" fill="#fdb0a0"/>
            <g id="Group_243" data-name="Group 243" transform="translate(8.223 15.828)">
              <path id="Path_737" data-name="Path 737" d="M147,272.24a1.312,1.312,0,0,0,1.312,1.312h1.6a1.312,1.312,0,0,0,0-2.625h-1.6A1.312,1.312,0,0,0,147,272.24Z" transform="translate(-146.999 -270.928)" fill="#f69583"/>
              <path id="Path_738" data-name="Path 738" d="M173.2,272.244a1.312,1.312,0,0,1-1.312,1.312h-1.509a1.312,1.312,0,0,0,0-2.624h1.509a1.313,1.313,0,0,1,1.312,1.312Z" transform="translate(-168.978 -270.932)" fill="#ea806f"/>
            </g>
            <g id="Group_244" data-name="Group 244" transform="translate(6.11 13.203)">
              <path id="Path_739" data-name="Path 739" d="M111.819,228.56a1.312,1.312,0,0,0,1.312,1.312h2.676a1.312,1.312,0,1,0,0-2.624h-2.676A1.312,1.312,0,0,0,111.819,228.56Z" transform="translate(-111.819 -227.248)" fill="#fdb0a0"/>
              <path id="Path_740" data-name="Path 740" d="M155.9,228.557a1.312,1.312,0,0,1-1.312,1.312h-1.509a1.312,1.312,0,0,0,0-2.625h1.509a1.312,1.312,0,0,1,1.312,1.312Z" transform="translate(-150.596 -227.245)" fill="#f9a08f"/>
            </g>
            <g id="Group_245" data-name="Group 245" transform="translate(4.548 10.579)">
              <path id="Path_741" data-name="Path 741" d="M85.824,184.88a1.312,1.312,0,0,0,1.312,1.312h2.707a1.312,1.312,0,1,0,0-2.624H87.136A1.312,1.312,0,0,0,85.824,184.88Z" transform="translate(-85.824 -183.568)" fill="#f69583"/>
              <path id="Path_742" data-name="Path 742" d="M130.413,184.884A1.312,1.312,0,0,1,129.1,186.2h-1.509a1.312,1.312,0,1,0,0-2.624H129.1a1.313,1.313,0,0,1,1.312,1.312Z" transform="translate(-125.081 -183.572)" fill="#ea806f"/>
            </g>
            <g id="Group_246" data-name="Group 246" transform="translate(2.788 7.954)">
              <path id="Path_743" data-name="Path 743" d="M56.536,141.2a1.312,1.312,0,0,0,1.312,1.312H59.91a1.312,1.312,0,0,0,0-2.624H57.848A1.312,1.312,0,0,0,56.536,141.2Z" transform="translate(-56.536 -139.888)" fill="#fdb0a0"/>
              <path id="Path_744" data-name="Path 744" d="M90.4,141.2a1.312,1.312,0,0,1-1.312,1.312H87.58a1.312,1.312,0,0,0,0-2.625h1.509A1.313,1.313,0,0,1,90.4,141.2Z" transform="translate(-85.715 -139.886)" fill="#f9a08f"/>
            </g>
          </g>
        </g>
        <g id="Group_249" data-name="Group 249">
          <path id="Path_745" data-name="Path 745" d="M463.912,386.708l-2-2a.451.451,0,0,0-.637.637l2,2a.451.451,0,0,0,.637-.637Z" transform="translate(-433.597 -361.473)"/>
          <path id="Path_746" data-name="Path 746" d="M13.945,99.006a.451.451,0,1,0,.9,0v-.7a1.762,1.762,0,0,0-.165-3.349,1.762,1.762,0,0,0-1.495-2.686,1.762,1.762,0,0,0-1.537-2.625h-.867a1.762,1.762,0,0,0-1.537-2.624H9.224a.451.451,0,1,0,0,.9h.022a.862.862,0,0,1,0,1.723H7.183a.861.861,0,0,1-.078-1.719.451.451,0,1,0-.08-.9,1.772,1.772,0,0,0-.658.191L3.4,84.259a.451.451,0,0,0-.637.637L5.7,87.832a1.767,1.767,0,0,0,1.483,2.72h.223a1.762,1.762,0,0,0,1.537,2.624h.025A1.762,1.762,0,0,0,10.5,95.8h.577a1.762,1.762,0,0,0,1.537,2.624h1.326v.58ZM8.081,91.414a.863.863,0,0,1,.862-.862H11.65a.862.862,0,1,1,0,1.723H8.943A.863.863,0,0,1,8.081,91.414Zm1.562,2.624a.863.863,0,0,1,.862-.862h2.676a.862.862,0,0,1,0,1.723H10.5A.863.863,0,0,1,9.643,94.039Zm2.114,2.624a.863.863,0,0,1,.862-.862h1.6a.862.862,0,0,1,0,1.723h-1.6A.863.863,0,0,1,11.757,96.663Z" transform="translate(-2.632 -79.073)"/>
          <path id="Path_747" data-name="Path 747" d="M109.263,18.914a2,2,0,0,0-.59-1.438l-2.613-2.613A4.619,4.619,0,0,0,104.39,13.8l-3.52-1.284-1.284-3.52A4.618,4.618,0,0,0,98.52,7.322L96.348,5.15a2.012,2.012,0,0,0-3.331.78L87.536.14a.451.451,0,1,0-.654.62L97.816,12.307a.45.45,0,0,0,.173.113l6.092,2.223a3.711,3.711,0,0,1,1.343.856l2.613,2.613a1.112,1.112,0,0,1-.012,1.584,1.116,1.116,0,0,1-1.562-.013l-2.18-2.184a.451.451,0,0,0-.77.318v7.729a.862.862,0,0,1-1.723,0v-2.72a.451.451,0,0,0-.9,0v2.017a.862.862,0,0,1-.893.861.885.885,0,0,1-.83-.892V21.927a.451.451,0,1,0-.9,0v2.214a.862.862,0,0,1-1.723,0V21.276a.451.451,0,1,0-.9,0v1.455a.862.862,0,0,1-.893.861.885.885,0,0,1-.83-.892v-.608a.451.451,0,0,0-.9,0V22.7a1.794,1.794,0,0,0,1.7,1.793,1.75,1.75,0,0,0,.93-.225,1.762,1.762,0,0,0,2.788,1.3,1.775,1.775,0,0,0,1.531,1.036,1.747,1.747,0,0,0,1.086-.325,1.761,1.761,0,0,0,2.176.932l3.416,3.416a.451.451,0,1,0,.637-.637L103.985,26.7a1.755,1.755,0,0,0,.43-1.151v-6.64l3.443,3.442a.451.451,0,0,0,.637-.637l-.844-.844a2.005,2.005,0,0,0,1.612-1.955ZM93.829,6.769a1.112,1.112,0,0,1,1.882-.982l2.172,2.172A3.71,3.71,0,0,1,98.739,9.3l1.024,2.807-1.366-.5S93.83,6.776,93.829,6.769Z" transform="translate(-81.703 0)"/>
        </g>
      </g>
    </g>
  </g>
</svg>
