<svg xmlns="http://www.w3.org/2000/svg" width="29.984" height="21.431" viewBox="0 0 29.984 21.431">
  <g id="car" transform="translate(0)">
    <g id="Group_231" data-name="Group 231" transform="translate(0.439 0.455)">
      <g id="Group_220" data-name="Group 220" transform="translate(25.856 6.172)">
        <path id="Path_638" data-name="Path 638" d="M451.4,186.2h-2.026a.849.849,0,0,0-.365.083q.021.336.021.678v1.678a4.249,4.249,0,0,1,.714.789H451.4a.861.861,0,0,0,.859-.859v-1.511A.861.861,0,0,0,451.4,186.2Z" transform="translate(-449.011 -186.195)" fill="#dfebfa"/>
      </g>
      <g id="Group_221" data-name="Group 221" transform="translate(25.856 6.172)">
        <path id="Path_639" data-name="Path 639" d="M450.409,188.563v-1.511a.861.861,0,0,1,.859-.859h-1.89a.849.849,0,0,0-.365.083q.021.336.021.678v1.678a4.25,4.25,0,0,1,.714.789h1.521A.861.861,0,0,1,450.409,188.563Z" transform="translate(-449.012 -186.194)" fill="#b1dbfc"/>
        <path id="Path_640" data-name="Path 640" d="M449.373,227.839h0Z" transform="translate(-449.352 -225.4)" fill="#b1dbfc"/>
      </g>
      <g id="Group_222" data-name="Group 222" transform="translate(0 6.172)">
        <path id="Path_641" data-name="Path 641" d="M10.26,188.633v-1.678c0-.256.01-.51.028-.761H8.353a.861.861,0,0,0-.859.859v1.511a.861.861,0,0,0,.859.859H9.547A4.252,4.252,0,0,1,10.26,188.633Z" transform="translate(-7.494 -186.194)" fill="#dfebfa"/>
      </g>
      <path id="Path_642" data-name="Path 642" d="M8.891,188.563v-1.511a.861.861,0,0,1,.859-.859h-1.4a.861.861,0,0,0-.859.859v1.511a.861.861,0,0,0,.859.859H9.547l.015-.021a.862.862,0,0,1-.671-.837Z" transform="translate(-7.494 -180.022)" fill="#b1dbfc"/>
      <g id="Group_223" data-name="Group 223" transform="translate(2.649 0)">
        <path id="Path_643" data-name="Path 643" d="M55.456,88.464H73.342a4.155,4.155,0,0,1,2.73,1.026V87.8A9.411,9.411,0,0,0,74.855,83a3.951,3.951,0,0,0-3.3-2.193H57.238A3.951,3.951,0,0,0,53.942,83a9.411,9.411,0,0,0-1.216,4.8V89.49A4.155,4.155,0,0,1,55.456,88.464Z" transform="translate(-52.726 -80.803)" fill="#ff4756"/>
      </g>
      <g id="Group_224" data-name="Group 224" transform="translate(2.649 0)">
        <path id="Path_644" data-name="Path 644" d="M54.61,87.8A9.411,9.411,0,0,1,55.826,83a3.951,3.951,0,0,1,3.3-2.193H57.239A3.951,3.951,0,0,0,53.943,83a9.411,9.411,0,0,0-1.216,4.8V89.49a4.181,4.181,0,0,1,1.883-.937Z" transform="translate(-52.727 -80.803)" fill="#fc2d39"/>
      </g>
      <g id="Group_225" data-name="Group 225" transform="translate(4.127 1.491)">
        <path id="Path_645" data-name="Path 645" d="M79.216,112.431H97.1a4.13,4.13,0,0,1,1.252.194v-.86a7.9,7.9,0,0,0-1-4.025,2.562,2.562,0,0,0-2.034-1.478H81a2.562,2.562,0,0,0-2.034,1.478,7.9,7.9,0,0,0-1,4.025v.86A4.13,4.13,0,0,1,79.216,112.431Z" transform="translate(-77.964 -106.261)" fill="#60b8fe"/>
      </g>
      <g id="Group_226" data-name="Group 226" transform="translate(4.127 1.491)">
        <path id="Path_646" data-name="Path 646" d="M79.846,111.764a7.9,7.9,0,0,1,1-4.025,2.562,2.562,0,0,1,2.034-1.478H81a2.562,2.562,0,0,0-2.034,1.478,7.9,7.9,0,0,0-1,4.025v.86a4.13,4.13,0,0,1,1.252-.194h.631v-.667Z" transform="translate(-77.963 -106.261)" fill="#23a8fe"/>
      </g>
      <path id="Path_647" data-name="Path 647" d="M289.964,148.059a3.269,3.269,0,0,0-3.255,3.283,3.347,3.347,0,0,0,.03.439h1.482a1.831,1.831,0,0,1-.053-.439,1.8,1.8,0,1,1,3.593,0,1.829,1.829,0,0,1-.053.439h1.482a3.332,3.332,0,0,0,.03-.439,3.269,3.269,0,0,0-3.255-3.283Z" transform="translate(-270.358 -144.12)" fill="#23a8fe"/>
      <path id="Path_648" data-name="Path 648" d="M289.964,148.059a3.269,3.269,0,0,0-3.255,3.283,3.347,3.347,0,0,0,.03.439h1.482a1.831,1.831,0,0,1-.053-.439,1.8,1.8,0,1,1,3.593,0,1.829,1.829,0,0,1-.053.439h1.482a3.332,3.332,0,0,0,.03-.439,3.269,3.269,0,0,0-3.255-3.283Z" transform="translate(-270.358 -144.12)" fill="#23a8fe"/>
      <g id="Group_227" data-name="Group 227" transform="translate(16.351 3.939)">
        <path id="Path_649" data-name="Path 649" d="M288.344,150.557a3.273,3.273,0,0,1,2.39-2.405,3.232,3.232,0,0,0-.77-.093,3.269,3.269,0,0,0-3.255,3.284,3.347,3.347,0,0,0,.03.439h1.482a1.831,1.831,0,0,1,.124-1.224Z" transform="translate(-286.709 -148.059)" fill="#0193fa"/>
      </g>
      <path id="Path_650" data-name="Path 650" d="M49.747,210.476H31.861a4.21,4.21,0,0,0-4.2,4.2v4.293a.7.7,0,0,1,.2-.028h9.775a.709.709,0,0,1,.568-.287h5.205a.709.709,0,0,1,.568.287h9.775a.7.7,0,0,1,.2.028v-4.293a4.21,4.21,0,0,0-4.2-4.2Z" transform="translate(-26.482 -202.882)" fill="#ff656f"/>
      <g id="Group_228" data-name="Group 228" transform="translate(1.181 7.594)">
        <path id="Path_651" data-name="Path 651" d="M30.42,214.673a4.21,4.21,0,0,1,4.2-4.2H31.862a4.21,4.21,0,0,0-4.2,4.2v4.293a.7.7,0,0,1,.2-.028H30.42v-4.265Z" transform="translate(-27.664 -210.475)" fill="#ff4756"/>
      </g>
      <path id="Path_652" data-name="Path 652" d="M145.386,214.574a2.238,2.238,0,0,0,1.908-1.068l1.858-3.031H135.5l1.858,3.031a2.238,2.238,0,0,0,1.908,1.068Z" transform="translate(-128.005 -202.881)" fill="#ff4756"/>
      <path id="Path_653" data-name="Path 653" d="M139.893,213.506l-1.858-3.031H135.5l1.858,3.031a2.238,2.238,0,0,0,1.908,1.068H141.8A2.238,2.238,0,0,1,139.893,213.506Z" transform="translate(-128.006 -202.881)" fill="#fc2d39"/>
      <circle id="Ellipse_250" data-name="Ellipse 250" cx="1.712" cy="1.712" r="1.712" transform="translate(21.968 10.093)" fill="#ffd301"/>
      <circle id="Ellipse_251" data-name="Ellipse 251" cx="1.712" cy="1.712" r="1.712" transform="translate(3.251 10.093)" fill="#ffd301"/>
      <path id="Path_654" data-name="Path 654" d="M384.313,254.867a1.711,1.711,0,0,1,.863-1.486,1.712,1.712,0,1,0,0,2.973A1.711,1.711,0,0,1,384.313,254.867Z" transform="translate(-360.647 -243.062)" fill="#ffc20c"/>
      <path id="Path_655" data-name="Path 655" d="M64.713,254.867a1.711,1.711,0,0,1,.863-1.486,1.712,1.712,0,1,0,0,2.973A1.711,1.711,0,0,1,64.713,254.867Z" transform="translate(-59.764 -243.062)" fill="#ffc20c"/>
      <g id="Group_229" data-name="Group 229" transform="translate(21.328 17.805)">
        <path id="Path_656" data-name="Path 656" d="M371.685,384.836v1.878a.872.872,0,0,0,.869.869H376.4a.872.872,0,0,0,.869-.869v-1.878Z" transform="translate(-371.685 -384.836)" fill="#665e68"/>
      </g>
      <path id="Path_657" data-name="Path 657" d="M374.246,386.714v-1.878h-2.561v1.878a.872.872,0,0,0,.869.869h2.561A.872.872,0,0,1,374.246,386.714Z" transform="translate(-350.357 -367.031)" fill="#544e55"/>
      <g id="Group_230" data-name="Group 230" transform="translate(1.73 17.805)">
        <path id="Path_658" data-name="Path 658" d="M37.028,384.836v1.878a.872.872,0,0,0,.869.869h3.847a.872.872,0,0,0,.869-.869v-1.878Z" transform="translate(-37.028 -384.836)" fill="#665e68"/>
      </g>
      <path id="Path_659" data-name="Path 659" d="M39.589,386.714v-1.878H37.028v1.878a.872.872,0,0,0,.869.869h2.561A.872.872,0,0,1,39.589,386.714Z" transform="translate(-35.298 -367.031)" fill="#544e55"/>
      <path id="Path_660" data-name="Path 660" d="M29.281,351.779v-1.371a.7.7,0,0,1,.142-.423H19.589a.711.711,0,0,0-.709.709v.8a.711.711,0,0,0,.709.709h9.834A.7.7,0,0,1,29.281,351.779Z" transform="translate(-18.213 -334.221)" fill="#dfebfa"/>
      <path id="Path_661" data-name="Path 661" d="M21.441,351.492v-.8a.711.711,0,0,1,.709-.709H19.589a.711.711,0,0,0-.709.709v.8a.712.712,0,0,0,.709.709H22.15A.712.712,0,0,1,21.441,351.492Z" transform="translate(-18.213 -334.221)" fill="#b1dbfc"/>
      <path id="Path_662" data-name="Path 662" d="M315.022,349.984h-9.834a.7.7,0,0,1,.142.423v1.371a.7.7,0,0,1-.142.423h9.834a.711.711,0,0,0,.709-.709v-.8a.711.711,0,0,0-.709-.709Z" transform="translate(-287.754 -334.22)" fill="#dfebfa"/>
      <path id="Path_663" data-name="Path 663" d="M198.759,347.881H193.2a.711.711,0,0,1-.709-.709V345.8a.711.711,0,0,1,.709-.709h5.557a.711.711,0,0,1,.709.709v1.371A.711.711,0,0,1,198.759,347.881Z" transform="translate(-181.659 -329.614)" fill="#b1dbfc"/>
      <path id="Path_664" data-name="Path 664" d="M195.055,347.172V345.8a.711.711,0,0,1,.709-.709H193.2a.711.711,0,0,0-.709.709v1.371a.711.711,0,0,0,.709.709h2.561A.712.712,0,0,1,195.055,347.172Z" transform="translate(-181.66 -329.614)" fill="#8bcaff"/>
    </g>
    <g id="Group_232" data-name="Group 232" transform="translate(0)">
      <path id="Path_665" data-name="Path 665" d="M28.686,79.2H26.808c-.316-2.941-2-6.172-4.886-6.172H7.6a4.372,4.372,0,0,0-3.671,2.385A9.224,9.224,0,0,0,2.714,79.2H1.3A1.3,1.3,0,0,0,0,80.5v1.511a1.3,1.3,0,0,0,1.3,1.3h.316a4.608,4.608,0,0,0-.433,1.952v3.725a1.148,1.148,0,0,0-.514.957v.8A1.149,1.149,0,0,0,1.73,91.883V93.15a1.31,1.31,0,0,0,1.309,1.309H6.886A1.31,1.31,0,0,0,8.194,93.15V91.887h3.032a1.143,1.143,0,0,0,.757.287h5.557a1.142,1.142,0,0,0,.757-.287h3.032V93.15a1.31,1.31,0,0,0,1.309,1.309h3.847a1.31,1.31,0,0,0,1.309-1.309V91.883a1.149,1.149,0,0,0,1.063-1.144v-.8a1.148,1.148,0,0,0-.514-.957V87.515a.439.439,0,0,0-.878,0v1.277H18.3a1.154,1.154,0,0,0-.757-.287H11.983a1.155,1.155,0,0,0-.757.287H2.06V85.259A3.772,3.772,0,0,1,5.818,81.5H7.69l1.729,2.821A2.694,2.694,0,0,0,11.7,85.6h6.12A2.694,2.694,0,0,0,20.1,84.322L21.832,81.5H23.7a3.772,3.772,0,0,1,3.758,3.758v.206a.439.439,0,0,0,.878,0,4.758,4.758,0,0,0-.433-2.158h.778a1.3,1.3,0,0,0,1.3-1.3V80.5A1.3,1.3,0,0,0,28.686,79.2ZM1.3,82.428a.42.42,0,0,1-.419-.419V80.5a.42.42,0,0,1,.419-.419H2.654c0,.107,0,.214,0,.322v1.478a4.673,4.673,0,0,0-.5.55ZM7.316,93.15a.431.431,0,0,1-.43.43H3.038a.431.431,0,0,1-.43-.43V91.887H7.316Zm19.6,0a.431.431,0,0,1-.43.43H22.636a.431.431,0,0,1-.43-.43V91.887h4.708Zm.793-3.479a.256.256,0,0,1,.045,0l.018,0a.274.274,0,0,1,.207.261v.8a.274.274,0,0,1-.27.27H18.688V89.67Zm-10.167-.287a.275.275,0,0,1,.27.27v1.371a.275.275,0,0,1-.27.27H11.983a.275.275,0,0,1-.27-.27V89.654a.275.275,0,0,1,.27-.27h5.557Zm-6.705.287v1.338H1.815a.274.274,0,0,1-.27-.27v-.8a.274.274,0,0,1,.206-.261l.019,0a.255.255,0,0,1,.045,0h9.019ZM5.005,80.694V80.4a7.337,7.337,0,0,1,.936-3.762A2.16,2.16,0,0,1,7.6,75.384h6.367a.439.439,0,0,0,0-.878H7.6a2.971,2.971,0,0,0-2.409,1.676A8.221,8.221,0,0,0,4.127,80.4v.542a4.612,4.612,0,0,0-.6.287V80.4a8.88,8.88,0,0,1,1.152-4.53A3.536,3.536,0,0,1,7.6,73.907H21.922a3.536,3.536,0,0,1,2.921,1.963A8.861,8.861,0,0,1,25.995,80.4v.83a4.613,4.613,0,0,0-.6-.287V80.4a8.22,8.22,0,0,0-1.065-4.219,2.971,2.971,0,0,0-2.409-1.676h-5.9a.439.439,0,0,0,0,.878h5.9a2.16,2.16,0,0,1,1.659,1.254,7.337,7.337,0,0,1,.936,3.762v.294a4.785,4.785,0,0,0-.777-.071,3.694,3.694,0,0,0-7.388,0H5.818a4.831,4.831,0,0,0-.813.072Zm14.349,3.169a1.81,1.81,0,0,1-1.533.859H11.7a1.81,1.81,0,0,1-1.533-.859L8.72,81.5H20.8Zm-.666-3.241a1.357,1.357,0,0,1,2.714,0Zm3.593,0a2.236,2.236,0,0,0-4.471,0h-.58a2.816,2.816,0,0,1,5.631,0Zm6.824,1.387a.42.42,0,0,1-.419.419H27.373a4.676,4.676,0,0,0-.5-.549V80.4c0-.107,0-.214,0-.322h1.818a.42.42,0,0,1,.419.419v1.511Z" transform="translate(0 -73.028)" fill="#050402"/>
      <path id="Path_666" data-name="Path 666" d="M185.69,300.85a.439.439,0,0,0,0,.878h6.946a.439.439,0,1,0,0-.878Z" transform="translate(-174.402 -287.508)" fill="#050402"/>
      <path id="Path_667" data-name="Path 667" d="M377.272,245.381a2.151,2.151,0,1,0,2.151,2.151A2.154,2.154,0,0,0,377.272,245.381Zm0,3.424a1.273,1.273,0,1,1,1.273-1.273A1.274,1.274,0,0,1,377.272,248.805Z" transform="translate(-353.153 -235.288)" fill="#050402"/>
      <path id="Path_668" data-name="Path 668" d="M55.521,247.532a2.151,2.151,0,1,0,2.151-2.151A2.154,2.154,0,0,0,55.521,247.532Zm3.424,0a1.273,1.273,0,1,1-1.273-1.273A1.274,1.274,0,0,1,58.945,247.532Z" transform="translate(-52.27 -235.288)" fill="#050402"/>
    </g>
  </g>
</svg>
