<svg xmlns="http://www.w3.org/2000/svg" width="23.419" height="25.549" viewBox="0 0 23.419 25.549">
  <g id="shirt" transform="translate(0)">
    <path id="Path_474" data-name="Path 474" d="M42.424,2.247C40.712.9,37.047.053,36.891.018a.532.532,0,0,0-.65.518c0,.718-1.474,1.6-3.193,1.6s-3.193-.878-3.193-1.6a.532.532,0,0,0-.2-.416A.519.519,0,0,0,29.2.014C29.049.049,25.386.9,23.67,2.242c-1.772,1.4-2.277,8.138-2.33,8.9a.532.532,0,0,0,.3.515,12.619,12.619,0,0,0,3.957,1.1v11.2a.532.532,0,0,0,.283.469c.086.047,2.176,1.127,7.167,1.127s7.081-1.08,7.167-1.127a.532.532,0,0,0,.283-.469v-11.2a12.62,12.62,0,0,0,3.956-1.1.532.532,0,0,0,.3-.515C44.7,10.381,44.2,3.641,42.424,2.247Z" transform="translate(-21.339 0)" fill="#03a9f4"/>
    <g id="Group_195" data-name="Group 195" transform="translate(3.2 5.319)">
      <path id="Path_475" data-name="Path 475" d="M87.074,114.333a.532.532,0,0,1-.532-.532v-3.193a4.258,4.258,0,0,0-.909-2.816.532.532,0,0,1,.752-.753,5.2,5.2,0,0,1,1.221,3.569V113.8A.532.532,0,0,1,87.074,114.333Z" transform="translate(-85.483 -106.875)" fill="#0288d1"/>
      <path id="Path_476" data-name="Path 476" d="M384.475,114.063a.532.532,0,0,1-.532-.532v-3.193a5.2,5.2,0,0,1,1.22-3.57.532.532,0,0,1,.766.739l-.013.013a4.257,4.257,0,0,0-.908,2.817v3.193A.532.532,0,0,1,384.475,114.063Z" transform="translate(-369.048 -106.606)" fill="#0288d1"/>
    </g>
    <path id="Path_477" data-name="Path 477" d="M179.018.2a.525.525,0,0,0-.438-.113,32.216,32.216,0,0,1-3.625.523,32.191,32.191,0,0,1-3.625-.523.526.526,0,0,0-.439.113.532.532,0,0,0-.194.41c0,1.6,2.2,2.661,4.257,2.661S179.212,2.2,179.212.607A.532.532,0,0,0,179.018.2Z" transform="translate(-163.245 -0.071)" fill="#1976d2"/>
    <path id="Path_478" data-name="Path 478" d="M39.967,12.864a.532.532,0,0,1,0-1.064,10.574,10.574,0,0,0,3.7-.867c-.213-2.733-.887-6.967-1.9-7.76a15.09,15.09,0,0,0-4.59-1.9c-.5,1.225-2.368,2.01-4.13,2.01S29.419,2.5,28.92,1.274a15.148,15.148,0,0,0-4.59,1.9c-1.012.793-1.682,5.027-1.9,7.76a10.575,10.575,0,0,0,3.7.867.532.532,0,0,1,0,1.064,12.065,12.065,0,0,1-4.488-1.117.532.532,0,0,1-.3-.515c.052-.765.555-7.507,2.331-8.9A17.811,17.811,0,0,1,29.205.105a.525.525,0,0,1,.45.106.532.532,0,0,1,.2.412c0,.718,1.474,1.6,3.193,1.6s3.193-.878,3.193-1.6a.532.532,0,0,1,.65-.518,17.812,17.812,0,0,1,5.535,2.229c1.776,1.392,2.28,8.134,2.331,8.9a.532.532,0,0,1-.3.515A12.064,12.064,0,0,1,39.967,12.864Z" transform="translate(-21.34 -0.087)"/>
    <path id="Path_479" data-name="Path 479" d="M93.993,126.836c-5,0-7.082-1.081-7.168-1.127a.532.532,0,0,1-.282-.469v-14.9a4.257,4.257,0,0,0-.909-2.816.532.532,0,0,1,.752-.753,5.2,5.2,0,0,1,1.221,3.569V124.89a18.351,18.351,0,0,0,6.386.881,18.307,18.307,0,0,0,6.386-.882V110.338a5.2,5.2,0,0,1,1.22-3.57.532.532,0,1,1,.766.739l-.013.013a4.257,4.257,0,0,0-.908,2.817v14.9a.532.532,0,0,1-.282.469C101.075,125.754,99,126.836,93.993,126.836Z" transform="translate(-82.284 -101.287)"/>
    <path id="Path_480" data-name="Path 480" d="M174.771,1.64a34.266,34.266,0,0,1-3.825-.542.532.532,0,0,1,.181-1.049l.019,0a32.379,32.379,0,0,0,3.625.523A32.379,32.379,0,0,0,178.4.053a.532.532,0,1,1,.219,1.042l-.019,0A34.252,34.252,0,0,1,174.771,1.64Z" transform="translate(-163.062 -0.039)"/>
  </g>
</svg>
