<svg xmlns="http://www.w3.org/2000/svg" width="23.749" height="25.445" viewBox="0 0 23.749 25.445">
  <g id="skincare" transform="translate(0 0)">
    <path id="Path_562" data-name="Path 562" d="M320,168v1.7l1.7,12.723h5.089l1.7-12.723V168Z" transform="translate(-305.157 -159.943)" fill="#fbe36a"/>
    <path id="Path_563" data-name="Path 563" d="M128,48h2.545v3.393H128Z" transform="translate(-123.335 -46.304)" fill="#c3c6c7"/>
    <path id="Path_564" data-name="Path 564" d="M118.785,25.7H112l.424-1.272L118.785,24Z" transform="translate(-108.183 -23.576)" fill="#9aa3a8"/>
    <path id="Path_565" data-name="Path 565" d="M109.089,107.393H104l.424-3.393h4.241Z" transform="translate(-100.607 -99.335)" fill="#9aa3a8"/>
    <path id="Path_566" data-name="Path 566" d="M320,168h8.482v1.7H320Z" transform="translate(-305.157 -159.943)" fill="#f7cc38"/>
    <path id="Path_567" data-name="Path 567" d="M352,440h5.089v1.7a.848.848,0,0,1-.848.848h-3.393A.848.848,0,0,1,352,441.7Z" transform="translate(-335.461 -417.523)" fill="#f7cc38"/>
    <path id="Path_568" data-name="Path 568" d="M56.587,169.812H50.439a.848.848,0,0,1-.841-.736L48,157.089A5.089,5.089,0,0,1,53.089,152h.848a5.089,5.089,0,0,1,5.089,5.089l-1.6,11.987A.848.848,0,0,1,56.587,169.812Z" transform="translate(-47.576 -144.791)" fill="#c3c6c7"/>
    <path id="Path_569" data-name="Path 569" d="M184,344h9.33v2.545H184Z" transform="translate(-176.366 -326.613)" fill="#3cb4d7"/>
    <path id="Path_570" data-name="Path 570" d="M184,298.545h9.33s-.106-1.272-1.272-1.272c-2.64,0-2.12-1.272-2.12-1.272C186.73,296,186.624,298.545,184,298.545Z" transform="translate(-176.366 -281.157)" fill="#6ed2f0"/>
    <ellipse id="Ellipse_241" data-name="Ellipse 241" cx="1.701" cy="0.819" rx="1.701" ry="0.819" transform="translate(17.387 12.342)" fill="#f7cc38"/>
    <path id="Path_571" data-name="Path 571" d="M104,224h5.089v2.545H104Z" transform="translate(-100.607 -212.974)" fill="#9aa3a8"/>
    <rect id="Rectangle_1163" data-name="Rectangle 1163" width="11.97" height="5.922" rx="2.961" transform="translate(6.3 19.145)" fill="#6ed2f0"/>
    <circle id="Ellipse_242" data-name="Ellipse 242" cx="1.26" cy="1.26" r="1.26" transform="translate(11.088 20.783)" fill="#3cb4d7"/>
    <path id="Path_572" data-name="Path 572" d="M40,28.3a.423.423,0,0,0,0,.056l1.6,11.987a1.276,1.276,0,0,0,1.261,1.1H60.78a1.274,1.274,0,0,0,1.272-1.272V38.505L63.745,25.81a.021.021,0,0,1,0-.005c0-.009,0-.017,0-.026s0-.013,0-.019v-1.7a.424.424,0,0,0-.424-.424H54.843a.424.424,0,0,0-.424.424v1.7c0,.006,0,.013,0,.019s0,.017,0,.026a.022.022,0,0,0,0,.005l.782,5.864c-.853-.065-1.116-.3-1.193-.4A.317.317,0,0,1,53.965,31a.405.405,0,0,0-.032-.393.423.423,0,0,0-.363-.186,4.778,4.778,0,0,0-2.03.409l.33-2.473a.423.423,0,0,0,0-.056,5.519,5.519,0,0,0-3.009-4.911.423.423,0,0,0,.034-.248L48.476,20.6a.424.424,0,0,0-.418-.354h-.424v-1.7H50.6a.424.424,0,0,0,.424-.424v-1.7A.424.424,0,0,0,50.574,16l-6.361.424a.424.424,0,0,0-.374.289l-.424,1.272a.424.424,0,0,0,.4.558h.424v1.7h-.424a.424.424,0,0,0-.418.354l-.424,2.545a.423.423,0,0,0,.034.248A5.519,5.519,0,0,0,40,28.3ZM57.388,40.6H47.155a.37.37,0,0,1-.369-.369v-4.35a.37.37,0,0,1,.369-.369H57.442a.37.37,0,0,1,.369.369v4.35a.37.37,0,0,1-.369.369Zm-9.33-6.785h8.482v.848H48.058ZM61.2,40.173a.425.425,0,0,1-.424.424H58.6a1.214,1.214,0,0,0,.057-.369V38.9H61.2Zm.053-2.12h-2.6V35.878a1.219,1.219,0,0,0-1.218-1.218h-.055V33.388c0-.012,0-.024,0-.035s0,0,0-.007h0a2.225,2.225,0,0,0-.248-.794,1.568,1.568,0,0,0-1.07-.819l-.74-5.553H62.84Zm-5.99-13.571H62.9v.848H55.267ZM53.3,31.735c.359.534,1.163.8,2.39.8a.726.726,0,0,1,.69.4l.015.029H50.02c.181-.139.353-.284.524-.429a4.224,4.224,0,0,1,2.577-1.248A1.138,1.138,0,0,0,53.3,31.735ZM44.553,17.253l5.625-.375V17.7H44.405Zm.536,1.292h1.7v1.7h-1.7Zm-1.2,4.241.283-1.7H47.7l.283,1.7Zm1.62.848h.848a4.67,4.67,0,0,1,4.665,4.637l-.416,3.118c-.218.163-.419.333-.614.5a3.359,3.359,0,0,1-2.363,1.076.424.424,0,0,0-.424.424V34.66h-.055a1.219,1.219,0,0,0-1.218,1.218v4.35a1.214,1.214,0,0,0,.057.369H42.863a.425.425,0,0,1-.42-.368L40.848,28.271a4.67,4.67,0,0,1,4.665-4.637Z" transform="translate(-40 -16.001)"/>
    <path id="Path_573" data-name="Path 573" d="M241.7,400a1.7,1.7,0,1,0,1.7,1.7A1.7,1.7,0,0,0,241.7,400Zm0,2.545a.848.848,0,1,1,.848-.848A.848.848,0,0,1,241.7,402.544Z" transform="translate(-229.398 -379.644)"/>
    <path id="Path_574" data-name="Path 574" d="M362.12,242.545c1.209,0,2.12-.547,2.12-1.272S363.329,240,362.12,240s-2.12.547-2.12,1.272S360.912,242.545,362.12,242.545Zm0-1.7c.821,0,1.272.319,1.272.424s-.451.424-1.272.424-1.272-.319-1.272-.424S361.3,240.848,362.12,240.848Z" transform="translate(-343.037 -228.126)"/>
    <path id="Path_575" data-name="Path 575" d="M96.424,219.393h5.089a.424.424,0,0,0,.424-.424v-2.545a.424.424,0,0,0-.424-.424H96.424a.424.424,0,0,0-.424.424v2.545A.424.424,0,0,0,96.424,219.393Zm.424-2.545h4.241v1.7H96.848Z" transform="translate(-93.031 -205.398)"/>
  </g>
</svg>
