<svg xmlns="http://www.w3.org/2000/svg" width="38.188" height="38.121" viewBox="0 0 38.188 38.121">
  <g id="moon" transform="matrix(0.966, -0.259, 0.259, 0.966, 0.955, 8.105)">
    <g id="Group_167" data-name="Group 167" transform="matrix(0.799, 0.602, -0.602, 0.799, 11.758, -5.241)">
      <path id="Path_425" data-name="Path 425" d="M28.656,17.319a1.033,1.033,0,0,0-.864.188,11.019,11.019,0,0,1-3.343,1.953,10.467,10.467,0,0,1-3.793.676A11.028,11.028,0,0,1,9.615,9.094a11.574,11.574,0,0,1,.6-3.643,10.085,10.085,0,0,1,1.8-3.23.959.959,0,0,0-.15-1.352A1.033,1.033,0,0,0,11,.681,15.155,15.155,0,0,0,3.042,6.014a14.87,14.87,0,1,0,26.29,12.469A.911.911,0,0,0,28.656,17.319Z" transform="translate(0 -0.652)"/>
    </g>
  </g>
</svg>
