<svg xmlns="http://www.w3.org/2000/svg" width="33.256" height="34.846" viewBox="0 0 33.256 34.846">
  <g id="cogwheel" transform="translate(0 0)">
    <path id="Path_384" data-name="Path 384" d="M144.908,163.851a7.26,7.26,0,1,1,7.259-7.26,7.268,7.268,0,0,1-7.259,7.26Zm0-12.342a5.082,5.082,0,1,0,5.082,5.082A5.087,5.087,0,0,0,144.908,151.51Zm0,0" transform="translate(-128.28 -139.168)" fill="#696969"/>
    <path id="Path_385" data-name="Path 385" d="M19.042,34.846H14.213a2.518,2.518,0,0,1-2.441-1.961l-.611-2.718a13.347,13.347,0,0,1-2.837-1.648l-2.647.836A2.516,2.516,0,0,1,2.738,28.21L.331,24.047a2.538,2.538,0,0,1,.466-3.1l2.051-1.886a14.691,14.691,0,0,1-.093-1.639,15.011,15.011,0,0,1,.091-1.639L.807,13.907a2.534,2.534,0,0,1-.484-3.094L2.746,6.624A2.517,2.517,0,0,1,5.673,5.489l2.651.838a13.359,13.359,0,0,1,2.837-1.648l.613-2.721A2.516,2.516,0,0,1,14.213,0h4.829a2.518,2.518,0,0,1,2.441,1.961l.611,2.718a13.347,13.347,0,0,1,2.837,1.648l2.647-.836a2.519,2.519,0,0,1,2.939,1.146L32.924,10.8a2.538,2.538,0,0,1-.466,3.1l-2.051,1.886a14.737,14.737,0,0,1,0,3.279l2.041,1.876.01.009a2.532,2.532,0,0,1,.473,3.085l-2.422,4.189a2.511,2.511,0,0,1-2.928,1.134l-2.651-.838a13.364,13.364,0,0,1-2.837,1.648l-.613,2.721a2.513,2.513,0,0,1-2.438,1.96ZM8.546,26.22a1.089,1.089,0,0,1,.693.248,11.184,11.184,0,0,0,3.236,1.877,1.088,1.088,0,0,1,.685.782L13.9,32.41a.326.326,0,0,0,.315.258h4.829a.324.324,0,0,0,.314-.255l.74-3.284a1.088,1.088,0,0,1,.685-.782,11.2,11.2,0,0,0,3.236-1.877,1.085,1.085,0,0,1,1.021-.2l3.2,1.009a.326.326,0,0,0,.385-.134l2.422-4.189a.355.355,0,0,0-.07-.42l-2.451-2.253a1.088,1.088,0,0,1-.34-.963,12.61,12.61,0,0,0,0-3.8,1.09,1.09,0,0,1,.34-.963L30.978,12.3a.354.354,0,0,0,.057-.427L28.628,7.711a.333.333,0,0,0-.395-.145L25.041,8.574a1.086,1.086,0,0,1-1.021-.2A11.185,11.185,0,0,0,20.784,6.5a1.087,1.087,0,0,1-.685-.782L19.36,2.434a.333.333,0,0,0-.318-.255H14.213a.324.324,0,0,0-.313.255l-.741,3.284a1.09,1.09,0,0,1-.685.782A11.174,11.174,0,0,0,9.239,8.378a1.092,1.092,0,0,1-1.021.2l-3.2-1.009a.329.329,0,0,0-.385.134L2.216,11.888a.356.356,0,0,0,.074.424l2.448,2.249a1.089,1.089,0,0,1,.34.963,12.609,12.609,0,0,0,0,3.8,1.09,1.09,0,0,1-.34.963L2.281,22.544a.355.355,0,0,0-.057.427l2.407,4.163a.334.334,0,0,0,.395.145l3.192-1.008a1.06,1.06,0,0,1,.328-.051Zm0,0" transform="translate(0)" fill="#696969"/>
  </g>
</svg>
