<svg xmlns="http://www.w3.org/2000/svg" width="34.126" height="38.828" viewBox="0 0 34.126 38.828">
  <g id="notification" transform="translate(-30.999)">
    <path id="Path_449" data-name="Path 449" d="M59.816,19.934V16.3A11.775,11.775,0,0,0,51.475,5.056V3.413a3.413,3.413,0,1,0-6.825,0V5.056A11.775,11.775,0,0,0,36.307,16.3v3.63a17.861,17.861,0,0,1-4.992,12.419,1.138,1.138,0,0,0,.821,1.925H42.489a5.688,5.688,0,0,0,11.146,0H63.987a1.138,1.138,0,0,0,.821-1.925A17.862,17.862,0,0,1,59.816,19.934ZM46.924,3.413a1.138,1.138,0,1,1,2.275,0V4.605c-.374-.036-.754-.055-1.138-.055s-.763.019-1.138.055Zm1.138,33.14a3.418,3.418,0,0,1-3.217-2.275h6.434A3.418,3.418,0,0,1,48.062,36.553ZM34.588,32a20.113,20.113,0,0,0,3.994-12.068V16.3a9.479,9.479,0,0,1,18.959,0v3.63A20.112,20.112,0,0,0,61.536,32Z" fill="#696969"/>
    <path id="Path_450" data-name="Path 450" d="M394.157,63.905a1.138,1.138,0,0,0,2.275,0,16.951,16.951,0,0,0-5-12.065,1.138,1.138,0,1,0-1.609,1.609A14.691,14.691,0,0,1,394.157,63.905Z" transform="translate(-331.307 -47.601)" fill="#696969"/>
    <path id="Path_451" data-name="Path 451" d="M32.138,65.044a1.138,1.138,0,0,0,1.138-1.138,14.691,14.691,0,0,1,4.331-10.457A1.138,1.138,0,1,0,36,51.841a16.951,16.951,0,0,0-5,12.065A1.138,1.138,0,0,0,32.138,65.044Z" transform="translate(-0.001 -47.601)" fill="#696969"/>
  </g>
</svg>
