<svg xmlns="http://www.w3.org/2000/svg" width="31.344" height="37.569" viewBox="0 0 31.344 37.569">
  <g id="user_2_" data-name="user (2)" transform="translate(0 0)">
    <path id="Path_386" data-name="Path 386" d="M96.081,18.1a8.756,8.756,0,0,0,6.4-2.651,8.756,8.756,0,0,0,2.651-6.4,8.757,8.757,0,0,0-2.651-6.4,9.047,9.047,0,0,0-12.8,0,8.756,8.756,0,0,0-2.651,6.4,8.756,8.756,0,0,0,2.651,6.4A8.759,8.759,0,0,0,96.081,18.1ZM91.24,4.208a6.845,6.845,0,0,1,9.682,0,6.542,6.542,0,0,1,2.006,4.841,6.542,6.542,0,0,1-2.006,4.841,6.844,6.844,0,0,1-9.682,0,6.54,6.54,0,0,1-2.006-4.841A6.541,6.541,0,0,1,91.24,4.208Zm0,0" transform="translate(-80.646 0)" fill="#696969"/>
    <path id="Path_387" data-name="Path 387" d="M31.268,258.058a22.35,22.35,0,0,0-.3-2.374,18.7,18.7,0,0,0-.584-2.387,11.79,11.79,0,0,0-.981-2.226,8.39,8.39,0,0,0-1.479-1.928,6.523,6.523,0,0,0-2.125-1.335,7.345,7.345,0,0,0-2.713-.491,2.754,2.754,0,0,0-1.471.624c-.441.287-.956.62-1.532.988a8.78,8.78,0,0,1-1.982.873,7.7,7.7,0,0,1-4.849,0,8.753,8.753,0,0,1-1.981-.873c-.57-.364-1.086-.7-1.533-.988a2.751,2.751,0,0,0-1.47-.624,7.336,7.336,0,0,0-2.713.492,6.518,6.518,0,0,0-2.126,1.335,8.393,8.393,0,0,0-1.479,1.928A11.813,11.813,0,0,0,.963,253.3a18.748,18.748,0,0,0-.584,2.386,22.2,22.2,0,0,0-.3,2.375c-.05.717-.075,1.464-.075,2.218A6.238,6.238,0,0,0,1.853,265a6.669,6.669,0,0,0,4.774,1.741h18.09A6.67,6.67,0,0,0,29.491,265a6.236,6.236,0,0,0,1.853-4.72c0-.757-.026-1.5-.076-2.219Zm-3.3,5.344a4.49,4.49,0,0,1-3.256,1.135H6.627A4.491,4.491,0,0,1,3.371,263.4,4.074,4.074,0,0,1,2.2,260.277c0-.7.023-1.4.07-2.066a20.021,20.021,0,0,1,.275-2.138,16.536,16.536,0,0,1,.513-2.1,9.616,9.616,0,0,1,.8-1.81,6.221,6.221,0,0,1,1.087-1.425,4.327,4.327,0,0,1,1.414-.879,5.065,5.065,0,0,1,1.734-.335c.077.041.214.119.437.264.453.295.974.631,1.551,1a10.909,10.909,0,0,0,2.488,1.112,9.9,9.9,0,0,0,6.2,0,10.919,10.919,0,0,0,2.49-1.113c.59-.377,1.1-.7,1.55-1,.222-.145.36-.223.437-.264a5.069,5.069,0,0,1,1.734.335,4.334,4.334,0,0,1,1.414.879,6.2,6.2,0,0,1,1.087,1.425,9.584,9.584,0,0,1,.8,1.809,16.5,16.5,0,0,1,.514,2.1,20.188,20.188,0,0,1,.275,2.139h0c.047.665.07,1.359.071,2.065a4.073,4.073,0,0,1-1.169,3.125Zm0,0" transform="translate(0 -229.169)" fill="#696969"/>
  </g>
</svg>
