<svg xmlns="http://www.w3.org/2000/svg" width="35.802" height="40.734" viewBox="0 0 35.802 40.734">
  <g id="notification_1_" data-name="notification (1)" transform="translate(-30.999)">
    <path id="Path_457" data-name="Path 457" d="M192.748,470.58a5.975,5.975,0,0,0,5.467-3.58H187.281A5.975,5.975,0,0,0,192.748,470.58Z" transform="translate(-143.848 -429.846)" fill="#fff"/>
    <path id="Path_458" data-name="Path 458" d="M61.231,19.72V17.105A12.353,12.353,0,0,0,52.48,5.3V3.58a3.58,3.58,0,0,0-7.16,0V5.3a12.353,12.353,0,0,0-8.751,11.8V19.72a18.738,18.738,0,0,1-5.237,13.028,1.193,1.193,0,0,0,.861,2.019H65.607a1.193,1.193,0,0,0,.861-2.019A18.739,18.739,0,0,1,61.231,19.72ZM50.093,4.831c-.393-.038-.791-.058-1.193-.058s-.8.02-1.193.058V3.58a1.193,1.193,0,0,1,2.387,0Z" fill="#fff"/>
    <path id="Path_459" data-name="Path 459" d="M394.386,64.514a1.193,1.193,0,1,0,2.387,0,17.784,17.784,0,0,0-5.243-12.658,1.193,1.193,0,0,0-1.688,1.688,15.413,15.413,0,0,1,4.544,10.97Z" transform="translate(-329.972 -47.409)" fill="#fff"/>
    <path id="Path_460" data-name="Path 460" d="M32.193,65.708a1.193,1.193,0,0,0,1.193-1.193,15.413,15.413,0,0,1,4.544-10.97,1.193,1.193,0,0,0-1.688-1.688A17.784,17.784,0,0,0,31,64.515,1.193,1.193,0,0,0,32.193,65.708Z" transform="translate(-0.001 -47.41)" fill="#fff"/>
  </g>
</svg>
