<svg xmlns="http://www.w3.org/2000/svg" width="29.81" height="29.711" viewBox="0 0 29.81 29.711">
  <g id="logout_1_" data-name="logout (1)" transform="translate(0 -0.85)">
    <g id="Group_154" data-name="Group 154" transform="translate(0 0.85)">
      <g id="Group_153" data-name="Group 153" transform="translate(0 0)">
        <path id="Path_380" data-name="Path 380" d="M14.855,28.085H3.714a1.238,1.238,0,0,1-1.238-1.238V4.564A1.238,1.238,0,0,1,3.714,3.326H14.855a1.238,1.238,0,0,0,0-2.476H3.714A3.718,3.718,0,0,0,0,4.564V26.847a3.718,3.718,0,0,0,3.714,3.714H14.855a1.238,1.238,0,1,0,0-2.476Z" transform="translate(0 -0.85)" fill="#696969"/>
      </g>
    </g>
    <g id="Group_156" data-name="Group 156" transform="translate(9.904 7.04)">
      <g id="Group_155" data-name="Group 155">
        <path id="Path_381" data-name="Path 381" d="M189.637,114.949l-7.527-7.428a1.238,1.238,0,1,0-1.738,1.763l5.379,5.308H171.338a1.238,1.238,0,0,0,0,2.476h14.413l-5.379,5.308a1.238,1.238,0,1,0,1.738,1.763l7.527-7.428a1.237,1.237,0,0,0,0-1.763Z" transform="translate(-170.1 -107.165)" fill="#696969"/>
      </g>
    </g>
  </g>
</svg>
