<svg xmlns="http://www.w3.org/2000/svg" width="64.961" height="67.461" viewBox="0 0 64.961 67.461">
  <g id="charity" transform="translate(-9.488 0)">
    <path id="Path_821" data-name="Path 821" d="M213.689,215.036a3.676,3.676,0,0,0-3.17,1.855.571.571,0,0,1-.938-.007,3.638,3.638,0,0,0-6.794,1.8c0,4.065,3.589,7.275,7.111,8.938a.389.389,0,0,0,.333,0,16.955,16.955,0,0,0,3.481-2.244c2.4-2.016,3.615-4.273,3.612-6.708A3.64,3.64,0,0,0,213.689,215.036Z" transform="translate(-167.83 -186.703)" fill="#ff5050"/>
    <path id="Path_822" data-name="Path 822" d="M207.761,215.333a3.634,3.634,0,0,0-4.974,3.38c0,4.065,3.589,7.275,7.111,8.938a.389.389,0,0,0,.333,0c.243-.115.657-.323,1.166-.62C204.571,223.114,204.087,216.8,207.761,215.333Z" transform="translate(-167.83 -186.735)" fill="#ee3e3e"/>
    <path id="Path_823" data-name="Path 823" d="M295.727,310.573l-8.629,3.558a2.614,2.614,0,0,1,.5-.874l4.957-5.727a2.623,2.623,0,0,1,4.458,2.587A4.626,4.626,0,0,0,295.727,310.573Z" transform="translate(-241.033 -266.223)" fill="#e59770"/>
    <path id="Path_824" data-name="Path 824" d="M289.972,317.9l-2.374,2.742a2.616,2.616,0,0,0-.5.874l8.629-3.558a4.625,4.625,0,0,1,1.285-.455,2.629,2.629,0,0,0-.324-2.372Z" transform="translate(-241.033 -273.613)" fill="#dd855f"/>
    <path id="Path_825" data-name="Path 825" d="M101.261,343.12a5.175,5.175,0,0,0-2.691,1.21l-1.2,1.034-7.1-8.217a37.276,37.276,0,0,1,5.647-4.007c2.242-1.29,3.143-1.423,7.922-1.935h0c1.564-.137,2.343.2,8.767,2.025a2.426,2.426,0,0,1,1.807,2.893l10.407-4.291c.2-.1,2.621-1.449,3.958.732,1.172,2.057-.812,3.546-1.211,3.806l-13.26,7.59h0a6.4,6.4,0,0,1-4.913.81l-5.148-1.46A6.584,6.584,0,0,0,101.261,343.12Z" transform="translate(-70.145 -287.54)" fill="#f0a479"/>
    <path id="Path_826" data-name="Path 826" d="M92.512,363.025q-1.148.845-2.234,1.773l7.1,8.217,1.2-1.034a5.143,5.143,0,0,1,1.066-.706Z" transform="translate(-70.145 -315.193)" fill="#e59770"/>
    <path id="Path_827" data-name="Path 827" d="M35.873,376.023,26.96,365.7a1.034,1.034,0,0,0-1.458-.107l-6.914,5.97a.969.969,0,0,0-.095,1.372l9.112,10.384a.91.91,0,0,0,1.264.115l.008-.007,6.888-5.948A1.033,1.033,0,0,0,35.873,376.023Z" transform="translate(-7.611 -317.205)" fill="#ffc850"/>
    <path id="Path_828" data-name="Path 828" d="M19.95,403.634l-1.362,1.176a.969.969,0,0,0-.095,1.372l9.112,10.384a.91.91,0,0,0,1.264.115l.008-.007,1.431-1.235Z" transform="translate(-7.611 -350.452)" fill="#f9b938"/>
    <path id="Path_829" data-name="Path 829" d="M162.5,147.75c-.22.65-.022.322-5.456,6.6a2.623,2.623,0,0,1-4.458-2.587C153.079,151.673,152.094,152.04,162.5,147.75Z" transform="translate(-124.114 -128.283)" fill="#e59770"/>
    <path id="Path_830" data-name="Path 830" d="M159.754,151.223c2.451-2.832,2.535-2.842,2.749-3.473-10.4,4.289-9.419,3.923-9.914,4.013a2.631,2.631,0,0,0,.263,2.281C153.248,153.944,152.557,154.19,159.754,151.223Z" transform="translate(-124.118 -128.283)" fill="#dd855f"/>
    <path id="Path_831" data-name="Path 831" d="M161.17,73.534l1.2-1.034,7.1,8.217a37.277,37.277,0,0,1-5.647,4.007c-2.242,1.29-3.143,1.423-7.922,1.935h0c-1.564.137-2.343-.2-8.767-2.025a2.426,2.426,0,0,1-1.807-2.893l-10.407,4.291c-.2.1-2.621,1.449-3.958-.732-1.172-2.057.812-3.546,1.211-3.806l13.26-7.59h0a6.4,6.4,0,0,1,4.913-.81l5.148,1.46A6.111,6.111,0,0,0,161.17,73.534Z" transform="translate(-105.144 -62.948)" fill="#f0a479"/>
    <g id="Group_259" data-name="Group 259" transform="translate(25.444 9.553)">
      <path id="Path_832" data-name="Path 832" d="M333.5,75.092a6.122,6.122,0,0,0,5.634-.982l-1.39-1.61-1.2,1.034a5.672,5.672,0,0,1-3.967,1.3Z" transform="translate(-305.968 -72.501)" fill="#e59770"/>
      <path id="Path_833" data-name="Path 833" d="M134.8,84.8l13.26-7.59h0a6.155,6.155,0,0,1,3.568-.98l-1.29-.366a6.4,6.4,0,0,0-4.913.81h0l-13.26,7.59c-.4.259-2.383,1.749-1.211,3.806a2.513,2.513,0,0,0,3.069,1.092C132.635,87.777,133.166,85.868,134.8,84.8Z" transform="translate(-130.589 -75.271)" fill="#e59770"/>
    </g>
    <path id="Path_834" data-name="Path 834" d="M362.268,14.76l8.913,10.322a1.034,1.034,0,0,0,1.458.107l6.914-5.97a.969.969,0,0,0,.1-1.372L370.536,7.463a.91.91,0,0,0-1.264-.115l-.008.007L362.375,13.3A1.033,1.033,0,0,0,362.268,14.76Z" transform="translate(-306.08 -6.203)" fill="#00c3ff"/>
    <path id="Path_835" data-name="Path 835" d="M363.762,44.8,362.376,46a1.034,1.034,0,0,0-.107,1.458l8.913,10.322a1.034,1.034,0,0,0,1.458.107l1.386-1.2Z" transform="translate(-306.081 -38.9)" fill="#06b0f2"/>
    <path id="Path_836" data-name="Path 836" d="M171.41,10.726,162.766.652c-.016-.019-.033-.038-.051-.055a2.056,2.056,0,0,0-2.787-.1L153.04,6.442a2.022,2.022,0,0,0-.209,2.851l.27.312-.444.384a5.1,5.1,0,0,1-4.746.815c-.036-.01-5.138-1.458-5.175-1.467a7.426,7.426,0,0,0-5.633.925c-.037.021-13.2,7.555-13.237,7.579-1.2.783-2.875,2.74-1.526,5.109l.016.027a3.39,3.39,0,0,0,2.385,1.661,3.573,3.573,0,0,0,6.271,2.194l4.879-5.637a3.551,3.551,0,0,0,.5-.748l.2-.083a3.326,3.326,0,0,0,2.451,2.384c6.122,1.736,7.4,2.239,9.11,2.05,4.778-.512,5.873-.669,8.28-2.054a37.957,37.957,0,0,0,5.02-3.468l.293.34a2.021,2.021,0,0,0,2.852.209l6.557-5.662A2.445,2.445,0,0,0,171.41,10.726Zm-38.852,11.3-3.04,3.512a1.6,1.6,0,0,1-2.8-1.1Zm22.887-1c-2.047,1.178-2.737,1.29-7.484,1.8-1.3.139-2.319-.264-8.38-1.984a1.329,1.329,0,0,1-1.064-.928,1.875,1.875,0,0,1-.042-.783h0s0-.009,0-.014,0-.017.006-.025a1.512,1.512,0,0,1,.233-.5.833.833,0,0,1,.9-.319c1.87.257,6.323.853,6.368.859a.988.988,0,0,0,.262-1.959c-.045-.006-4.494-.6-6.361-.858A2.874,2.874,0,0,0,136.7,18.18l-1.441.594h0c-11.377,4.691-8.812,3.673-9.657,3.916-1.589.223-2.678-1.845-.68-3.178l13.183-7.547h0l.047-.029a5.424,5.424,0,0,1,4.109-.677l5.1,1.448a7.056,7.056,0,0,0,6.577-1.22l.444-.384,5.766,6.678A35.978,35.978,0,0,1,155.444,21.031Zm14.416-8.364c-.021.018-6.562,5.676-6.59,5.673s-9-10.35-8.939-10.4l6.888-5.948h0a.072.072,0,0,1,.085-.006l8.6,10.029A.465.465,0,0,1,169.86,12.667Z" transform="translate(-97.548 0)"/>
    <path id="Path_837" data-name="Path 837" d="M56.934,302.757a3.578,3.578,0,0,0-6.271-2.194L45.784,306.2a3.54,3.54,0,0,0-.5.748l-.2.083a3.326,3.326,0,0,0-2.451-2.384c-6.48-1.838-7.325-2.206-9.091-2.052l-.019,0c-4.778.512-5.873.669-8.28,2.054a37.956,37.956,0,0,0-5.02,3.468l-.293-.34a2.024,2.024,0,0,0-2.852-.209l-6.914,5.97a1.956,1.956,0,0,0-.192,2.772L19.086,326.7a1.9,1.9,0,0,0,2.643.22l.018-.016,6.888-5.948a2.021,2.021,0,0,0,.209-2.852h0l-.27-.312.444-.384a5.1,5.1,0,0,1,4.746-.815l4.583,1.3a.988.988,0,1,0,.539-1.9l-4.583-1.3a7.056,7.056,0,0,0-6.577,1.22l-.444.384-5.766-6.678a35.953,35.953,0,0,1,4.714-3.251c2.049-1.179,2.737-1.291,7.495-1.8,1.112-.1,1.807.1,5.62,1.2,2.954.849,3.564.853,3.814,1.714a1.874,1.874,0,0,1,.042.783h0a1.468,1.468,0,0,1-.241.536.834.834,0,0,1-.9.319c-1.87-.257-6.323-.853-6.368-.859a.988.988,0,0,0-.262,1.959c.045.006,4.494.6,6.361.858a2.869,2.869,0,0,0,3.182-1.857c.049-.02,9.952-4.1,10-4.126,1.044-.53,2.03-.651,2.652.347.716,1.279-.553,2.233-.873,2.446l-13.183,7.546-.018.01-.032.02a5.033,5.033,0,0,1-.692.376.988.988,0,0,0,.806,1.8,6.984,6.984,0,0,0,.941-.509c.039-.022,13.2-7.553,13.235-7.578C61.394,307.219,59.67,303.195,56.934,302.757ZM20.528,325.342l-9.055-10.319,6.9-5.957a.045.045,0,0,1,.064,0l8.913,10.322h0a.042.042,0,0,1,.011.033C27.358,319.455,20.55,325.323,20.528,325.342Zm31.63-23.485a1.6,1.6,0,0,1,2.8,1.1l-5.839,2.416Z" transform="translate(0 -259.889)"/>
    <path id="Path_838" data-name="Path 838" d="M202.522,211.15a1.651,1.651,0,0,0,1.376.747,1.612,1.612,0,0,0,1.3-.761,2.641,2.641,0,0,1,4.731.277.988.988,0,0,0,1.818-.776,4.613,4.613,0,0,0-7.885-1.035,4.628,4.628,0,0,0-8.259,2.858c0,4.578,3.969,8.08,7.678,9.83a1.38,1.38,0,0,0,1.179,0,14.693,14.693,0,0,0,6.813-6.221.988.988,0,1,0-1.779-.861,12.673,12.673,0,0,1-5.626,5.171c-3.085-1.525-6.283-4.364-6.287-7.92A2.649,2.649,0,0,1,202.522,211.15Z" transform="translate(-161.589 -180.439)"/>
  </g>
</svg>
