<svg xmlns="http://www.w3.org/2000/svg" width="22.409" height="20.921" viewBox="0 0 22.409 20.921">
  <g id="business-report" transform="translate(0 0)">
    <path id="Path_440" data-name="Path 440" d="M20.44,17H1.97A1.972,1.972,0,0,0,0,18.97V31.75a1.972,1.972,0,0,0,1.97,1.97H8.329l-.481,2.889H7a.657.657,0,1,0,0,1.313h8.4a.657.657,0,1,0,0-1.313h-.844l-.481-2.889H20.44a1.972,1.972,0,0,0,1.97-1.97V18.97A1.972,1.972,0,0,0,20.44,17ZM13.231,36.608H9.179L9.66,33.72h3.089ZM21.1,31.75a.657.657,0,0,1-.657.657H1.97a.657.657,0,0,1-.657-.657V18.97a.657.657,0,0,1,.657-.657h8.579v.744a.657.657,0,1,0,1.313,0v-.744H20.44a.657.657,0,0,1,.657.657Z" transform="translate(0 -17)"/>
    <path id="Path_441" data-name="Path 441" d="M71.259,117.2a.657.657,0,0,0-.657.657V120H69.114v-4.246a.657.657,0,0,0-1.313,0V120H66.313v-6.346a.657.657,0,0,0-1.313,0v7a.657.657,0,0,0,.657.657h5.6a.657.657,0,0,0,.657-.657v-2.8A.657.657,0,0,0,71.259,117.2Z" transform="translate(-62.155 -108.798)"/>
    <path id="Path_442" data-name="Path 442" d="M276.808,121a3.806,3.806,0,0,0-2.722,6.468.431.431,0,0,0,.062.062,3.807,3.807,0,1,0,2.66-6.53Zm2.407,3.151h-1.75V122.4A2.5,2.5,0,0,1,279.214,124.151Zm-3.063-1.75v2.135l-1.509,1.509A2.5,2.5,0,0,1,276.151,122.4Zm-.58,4.572,1.509-1.509h2.135A2.5,2.5,0,0,1,275.571,126.973Z" transform="translate(-261.051 -116.448)"/>
  </g>
</svg>
