<svg xmlns="http://www.w3.org/2000/svg" width="36.447" height="27.335" viewBox="0 0 36.447 27.335">
  <g id="envelope_2_" data-name="envelope (2)" transform="translate(0 -64)">
    <g id="Group_182" data-name="Group 182" transform="translate(0 64)">
      <g id="Group_181" data-name="Group 181">
        <path id="Path_452" data-name="Path 452" d="M7.182,66.218c5,4.236,13.779,11.689,16.359,14.013a1.524,1.524,0,0,0,2.2,0c2.582-2.326,11.359-9.78,16.361-14.016a.759.759,0,0,0,.107-1.048A3.015,3.015,0,0,0,39.831,64H9.459a3.015,3.015,0,0,0-2.383,1.17A.759.759,0,0,0,7.182,66.218Z" transform="translate(-6.422 -64)" fill="#fff"/>
        <path id="Path_453" data-name="Path 453" d="M36.006,126.482a.756.756,0,0,0-.81.11c-5.547,4.7-12.627,10.73-14.855,12.738a3.075,3.075,0,0,1-4.238,0c-2.374-2.139-10.325-8.9-14.853-12.736a.759.759,0,0,0-1.25.579v19.1A3.04,3.04,0,0,0,3.037,149.3H33.409a3.04,3.04,0,0,0,3.037-3.037v-19.1A.759.759,0,0,0,36.006,126.482Z" transform="translate(0 -121.969)" fill="#fff"/>
      </g>
    </g>
  </g>
</svg>
