<svg xmlns="http://www.w3.org/2000/svg" width="33.54" height="40.202" viewBox="0 0 33.54 40.202">
  <g id="user_3_" data-name="user (3)" transform="translate(0 0)">
    <path id="Path_389" data-name="Path 389" d="M96.715,19.366a9.369,9.369,0,0,0,6.846-2.837A9.369,9.369,0,0,0,106.4,9.683a9.37,9.37,0,0,0-2.837-6.846,9.681,9.681,0,0,0-13.692,0,9.369,9.369,0,0,0-2.837,6.846,9.369,9.369,0,0,0,2.837,6.846A9.371,9.371,0,0,0,96.715,19.366Zm0,0" transform="translate(-80.198)" fill="#fff"/>
    <path id="Path_390" data-name="Path 390" d="M33.459,258.81a23.917,23.917,0,0,0-.326-2.54,20.014,20.014,0,0,0-.625-2.554,12.616,12.616,0,0,0-1.05-2.382,8.989,8.989,0,0,0-1.583-2.063,6.981,6.981,0,0,0-2.274-1.429,7.86,7.86,0,0,0-2.9-.525,2.947,2.947,0,0,0-1.574.667c-.472.308-1.024.663-1.639,1.057a9.394,9.394,0,0,1-2.121.935,8.237,8.237,0,0,1-5.189,0,9.372,9.372,0,0,1-2.12-.934c-.61-.39-1.162-.746-1.641-1.058a2.943,2.943,0,0,0-1.573-.667,7.85,7.85,0,0,0-2.9.526,6.975,6.975,0,0,0-2.275,1.429,8.99,8.99,0,0,0-1.583,2.063,12.64,12.64,0,0,0-1.05,2.382,20.061,20.061,0,0,0-.624,2.554,23.832,23.832,0,0,0-.326,2.541c-.053.769-.08,1.568-.08,2.374a6.676,6.676,0,0,0,1.983,5.05A7.137,7.137,0,0,0,7.091,268.1H26.449a7.136,7.136,0,0,0,5.109-1.864,6.673,6.673,0,0,0,1.983-5.051c0-.81-.028-1.609-.081-2.375Zm0,0" transform="translate(0 -227.897)" fill="#fff"/>
  </g>
</svg>
