<svg xmlns="http://www.w3.org/2000/svg" width="34.598" height="35.529" viewBox="0 0 34.598 35.529">
  <g id="settings_1_" data-name="settings (1)" transform="translate(-6.71)">
    <g id="Group_183" data-name="Group 183" transform="translate(6.71)">
      <path id="Path_456" data-name="Path 456" d="M40.709,21.658,37.443,19.1a12.857,12.857,0,0,0,.077-1.341,12.469,12.469,0,0,0-.077-1.341l3.269-2.555a1.6,1.6,0,0,0,.386-2.04L37.7,5.951a1.574,1.574,0,0,0-1.964-.706L31.884,6.792a13.211,13.211,0,0,0-2.314-1.343l-.586-4.087A1.572,1.572,0,0,0,27.415,0h-6.81a1.568,1.568,0,0,0-1.566,1.35l-.588,4.1a13.62,13.62,0,0,0-2.309,1.343L12.278,5.243a1.606,1.606,0,0,0-1.95.694l-3.4,5.883a1.592,1.592,0,0,0,.385,2.05l3.266,2.554a11.713,11.713,0,0,0,0,2.681L7.31,21.661a1.6,1.6,0,0,0-.385,2.04l3.4,5.876a1.571,1.571,0,0,0,1.964.706l3.853-1.547a13.328,13.328,0,0,0,2.312,1.343l.586,4.086a1.571,1.571,0,0,0,1.569,1.365h6.81a1.569,1.569,0,0,0,1.568-1.35l.588-4.1a13.683,13.683,0,0,0,2.309-1.344l3.864,1.551a1.591,1.591,0,0,0,.58.11,1.563,1.563,0,0,0,1.369-.8l3.411-5.907A1.6,1.6,0,0,0,40.709,21.658Zm-16.7,2.028a5.921,5.921,0,1,1,5.921-5.921A5.927,5.927,0,0,1,24.01,23.686Z" transform="translate(-6.71)" fill="#fff"/>
    </g>
  </g>
</svg>
