<svg xmlns="http://www.w3.org/2000/svg" width="37.893" height="28.42" viewBox="0 0 37.893 28.42">
  <path id="envelope_1_" data-name="envelope (1)" d="M34.34,59.882H3.552A3.556,3.556,0,0,0,0,63.434V84.749A3.556,3.556,0,0,0,3.552,88.3H34.34a3.556,3.556,0,0,0,3.552-3.552V63.434A3.556,3.556,0,0,0,34.34,59.882Zm0,2.368a1.177,1.177,0,0,1,.454.092L18.946,76.077,3.1,62.342a1.179,1.179,0,0,1,.454-.092Zm0,23.683H3.552a1.185,1.185,0,0,1-1.184-1.184V64.844l15.8,13.7a1.186,1.186,0,0,0,1.552,0l15.8-13.7V84.749A1.185,1.185,0,0,1,34.34,85.933Z" transform="translate(0 -59.882)" fill="#696969"/>
</svg>
