<svg id="calendar" xmlns="http://www.w3.org/2000/svg" width="30.486" height="30.486" viewBox="0 0 30.486 30.486">
  <path id="Path_374" data-name="Path 374" d="M26.556,2.382H23.817V.953a.953.953,0,0,0-1.905,0V2.382H8.574V.953a.953.953,0,0,0-1.905,0V2.382H3.93A3.934,3.934,0,0,0,0,6.312V26.556a3.934,3.934,0,0,0,3.93,3.93H26.556a3.934,3.934,0,0,0,3.93-3.93V6.312A3.934,3.934,0,0,0,26.556,2.382ZM3.93,4.287H6.669V5.24a.953.953,0,0,0,1.905,0V4.287H21.912V5.24a.953.953,0,0,0,1.905,0V4.287h2.739a2.027,2.027,0,0,1,2.024,2.024V8.574H1.905V6.312A2.027,2.027,0,0,1,3.93,4.287ZM26.556,28.581H3.93a2.027,2.027,0,0,1-2.024-2.024V10.48H28.581V26.556A2.027,2.027,0,0,1,26.556,28.581Z"/>
</svg>
