<svg xmlns="http://www.w3.org/2000/svg" width="66.227" height="62.088" viewBox="0 0 66.227 62.088">
  <g id="love_1_" data-name="love (1)" transform="translate(0 -16)">
    <g id="Group_260" data-name="Group 260" transform="translate(1.294 17.293)">
      <path id="Path_839" data-name="Path 839" d="M297.472,141.743V129.88a3.88,3.88,0,1,1,7.761,0v17.571a15.523,15.523,0,0,1-8.58,13.883l-6.942,3.47v7.761H276V155.679a6.389,6.389,0,0,1,5.751-6.358c.015,0,5.929-.909,8.779-3.759l2.905-2.9A3.879,3.879,0,0,1,297.472,141.743Z" transform="translate(-241.593 -113.065)" fill="#fce8d0"/>
      <path id="Path_840" data-name="Path 840" d="M145.02,26c7.086,0,9.555,6.526,9.555,10.348,0,7.761-6.38,12.17-17.7,21.989-11.318-9.819-17.7-14.228-17.7-21.989,0-3.822,2.469-10.348,9.555-10.348,4.35,0,6.761,3.176,8.143,5.7C138.259,29.176,140.67,26,145.02,26Z" transform="translate(-105.058 -26)" fill="#ff7b79"/>
      <path id="Path_841" data-name="Path 841" d="M17.761,141.743a3.879,3.879,0,0,1,4.037.916l2.905,2.9c2.793,2.793,8.766,3.755,8.779,3.759a6.389,6.389,0,0,1,5.751,6.357v16.887H25.522V164.8l-6.942-3.47A15.523,15.523,0,0,1,10,147.451V129.881a3.88,3.88,0,1,1,7.761,0Z" transform="translate(-10 -113.065)" fill="#fce8d0"/>
    </g>
    <g id="Group_261" data-name="Group 261" transform="translate(0 16)">
      <path id="Path_842" data-name="Path 842" d="M147.162,27.641c0-4.5-2.945-11.641-10.849-11.641-3.247,0-5.979,1.531-8.143,4.557-2.164-3.026-4.9-4.557-8.143-4.557-7.9,0-10.849,7.141-10.849,11.641,0,7.76,6.056,12.614,14.33,19.689,1.216,1.039,2.473,2.114,3.813,3.277a1.294,1.294,0,0,0,1.7,0c1.34-1.163,2.6-2.238,3.813-3.277C141.494,39.924,147.162,35.237,147.162,27.641ZM128.171,47.92c-1.034-.892-2.019-1.735-2.98-2.556-8.656-7.4-13.424-11.479-13.424-17.723,0-4.235,2.771-9.054,8.262-9.054,2.865,0,5.158,1.645,7.008,5.03a1.293,1.293,0,0,0,2.27,0c1.85-3.385,4.142-5.03,7.008-5.03,5.414,0,8.262,4.748,8.262,9.054,0,6.244-4.768,10.321-13.424,17.723C130.19,46.185,129.2,47.028,128.171,47.92Z" transform="translate(-95.058 -16)"/>
      <path id="Path_843" data-name="Path 843" d="M9.295,153.785l6.227,3.113v6.961a1.294,1.294,0,0,0,1.293,1.293H30.526a1.294,1.294,0,0,0,1.293-1.293V146.973a7.656,7.656,0,0,0-6.905-7.644l-.106-.011c-2.276-.228-6.306-1.785-7.9-3.376l-2.9-2.9a5.14,5.14,0,0,0-3.658-1.516V121.174a5.174,5.174,0,0,0-10.348,0v17.571a16.816,16.816,0,0,0,9.295,15.04ZM2.587,121.174a2.587,2.587,0,0,1,5.174,0v11.041a5.173,5.173,0,0,0-1.071,8.139l6.624,6.625a1.293,1.293,0,0,0,1.829-1.829l-6.624-6.625a2.587,2.587,0,0,1,.966-4.268h0a2.583,2.583,0,0,1,2.69.612l2.9,2.9c3,3,9.552,4.128,9.565,4.131a5.08,5.08,0,0,1,4.586,5.07v15.593H18.109V156.1a1.294,1.294,0,0,0-.715-1.157l-6.942-3.47a14.152,14.152,0,0,1-7.865-12.726Z" transform="translate(0 -103.065)"/>
      <ellipse id="Ellipse_259" data-name="Ellipse 259" cx="1.07" cy="1.427" rx="1.07" ry="1.427" transform="translate(58.377 46.387)"/>
      <path id="Path_844" data-name="Path 844" d="M292.646,116a5.18,5.18,0,0,0-5.174,5.174v10.348a5.139,5.139,0,0,0-3.658,1.516l-2.905,2.9c-1.591,1.591-5.621,3.148-7.908,3.377l-.086.009A7.659,7.659,0,0,0,266,146.973v16.887a1.294,1.294,0,0,0,1.293,1.293H281a1.294,1.294,0,0,0,1.294-1.293V156.9l4.234-2.116a1.293,1.293,0,1,0-1.157-2.314l-4.949,2.474a1.293,1.293,0,0,0-.715,1.157v6.467H268.587V146.973a5.082,5.082,0,0,1,4.6-5.072l.086-.009c2.806-.281,7.451-2.1,9.469-4.121l2.905-2.9a2.584,2.584,0,0,1,2.69-.611h0a2.587,2.587,0,0,1,.966,4.269l-6.624,6.625a1.293,1.293,0,0,0,1.829,1.829l6.624-6.625a5.173,5.173,0,0,0-1.071-8.139V121.174a2.587,2.587,0,1,1,5.174,0v17.571a14.267,14.267,0,0,1-1.727,6.794,1.293,1.293,0,1,0,2.273,1.236,16.861,16.861,0,0,0,2.041-8.03V121.174A5.18,5.18,0,0,0,292.646,116Z" transform="translate(-231.593 -103.065)"/>
    </g>
  </g>
</svg>
