<svg xmlns="http://www.w3.org/2000/svg" width="27.419" height="24.747" viewBox="0 0 27.419 24.747">
  <g id="heart_1_" data-name="heart (1)" transform="translate(0 -0.501)">
    <path id="Path_801" data-name="Path 801" d="M103.43,257.744l6.543-2.249a1.529,1.529,0,1,1,1.13,2.842L101.1,262.743a6.292,6.292,0,0,1-5.843-.332l-2.8-1.68A5.767,5.767,0,0,0,90,260.1v-7.5h4.24a3.209,3.209,0,0,1,1.576.413l2.83,1.592a1.07,1.07,0,0,0,.525.138h3.468a1.607,1.607,0,0,1,.791,3Zm0,0" transform="translate(-85.18 -238.596)" fill="#ffcebf"/>
    <path id="Path_802" data-name="Path 802" d="M177.217,10.5a3.568,3.568,0,0,1,3.476,3.773c0,2.707-2.552,4.519-6.887,8.277-4.123-3.573-7.016-5.447-7.016-8.277a3.569,3.569,0,0,1,3.476-3.773c2.641,0,3.476,3.012,3.476,3.012s.834-3.012,3.476-3.012Zm0,0" transform="translate(-157.857 -9.464)" fill="#ff80ac"/>
    <path id="Path_803" data-name="Path 803" d="M14.284,233.67v7.5a1.071,1.071,0,0,1-1.071,1.068H10V232.6h3.213a1.071,1.071,0,0,1,1.071,1.071Zm0,0" transform="translate(-9.464 -219.668)" fill="#faecd8"/>
    <path id="Path_804" data-name="Path 804" d="M40.536,262.6a.536.536,0,1,0,.536.536A.536.536,0,0,0,40.536,262.6Zm0,0" transform="translate(-37.858 -248.061)"/>
    <path id="Path_805" data-name="Path 805" d="M24.614,226.6l-5.049,1.736a2.137,2.137,0,0,0-2.107-2.522H13.99a.536.536,0,0,1-.263-.069L10.9,224.15a3.752,3.752,0,0,0-1.838-.482h-3.8A1.609,1.609,0,0,0,3.749,222.6H.536a.536.536,0,0,0-.536.536v9.639a.536.536,0,0,0,.536.536H3.749a1.61,1.61,0,0,0,1.5-1.031A4.889,4.889,0,0,1,7,232.8l2.8,1.68a6.827,6.827,0,0,0,6.338.362l10-4.4a2.065,2.065,0,0,0-1.516-3.841ZM4.284,231.7a.536.536,0,0,1-.536.533H1.071v-8.568H3.749a.536.536,0,0,1,.536.536Zm21.439-2.257-.017.007-10.012,4.409a5.756,5.756,0,0,1-5.346-.3l-2.8-1.68a5.9,5.9,0,0,0-2.192-.667v-6.472h3.7a2.679,2.679,0,0,1,1.313.344l2.829,1.591a1.609,1.609,0,0,0,.788.207h3.468a1.071,1.071,0,1,1,0,2.142H12.014a.535.535,0,1,0,0,1.071h5.444a2.138,2.138,0,0,0,1-.251l6.512-2.238a.994.994,0,1,1,.75,1.841Zm0,0" transform="translate(0 -210.202)"/>
    <path id="Path_806" data-name="Path 806" d="M166.98,13.49a.536.536,0,0,0,.7,0c4.369-3.787,7.072-5.7,7.072-8.681A4.1,4.1,0,0,0,170.743.5a3.965,3.965,0,0,0-3.476,2.218,3.894,3.894,0,0,0-7.3.743.536.536,0,1,0,1.028.3,2.906,2.906,0,0,1,2.793-2.192,3.35,3.35,0,0,1,2.959,2.62.535.535,0,0,0,1.032,0c.007-.026.751-2.62,2.96-2.62a3.031,3.031,0,0,1,2.94,3.237c0,2.382-2.329,4.1-6.352,7.569-2.452-2.105-4.4-3.587-5.506-5.037a.536.536,0,1,0-.851.65c1.248,1.634,3.354,3.2,6.007,5.5Zm0,0" transform="translate(-151.383)"/>
    <path id="Path_807" data-name="Path 807" d="M159.536,88.6a.536.536,0,1,0,.536.536A.536.536,0,0,0,159.536,88.6Zm0,0" transform="translate(-150.485 -83.379)"/>
  </g>
</svg>
