<svg xmlns="http://www.w3.org/2000/svg" width="22.362" height="22.362" viewBox="0 0 22.362 22.362">
  <path id="edit_1_" data-name="edit (1)" d="M9,22.362H5.241A5.247,5.247,0,0,1,0,17.121V5.241A5.247,5.247,0,0,1,5.241,0h11.88a5.247,5.247,0,0,1,5.241,5.241V9.609a.874.874,0,1,1-1.747,0V5.241a3.5,3.5,0,0,0-3.494-3.494H5.241A3.5,3.5,0,0,0,1.747,5.241v11.88a3.5,3.5,0,0,0,3.494,3.494H9a.874.874,0,0,1,0,1.747ZM10.177,6.115A2.621,2.621,0,1,0,7.556,8.735,2.624,2.624,0,0,0,10.177,6.115Zm-1.747,0a.874.874,0,1,1-.874-.874A.875.875,0,0,1,8.43,6.115ZM18.868,8.473a.874.874,0,0,0-.874-.874H12.579a.874.874,0,1,0,0,1.747h5.416A.874.874,0,0,0,18.868,8.473ZM12.4,14.588a.874.874,0,0,0-.874-.874H5.154a.874.874,0,1,0,0,1.747h6.377A.874.874,0,0,0,12.4,14.588ZM8.91,17.645a.874.874,0,0,0-.874-.874H5.154a.874.874,0,1,0,0,1.747H8.036A.874.874,0,0,0,8.91,17.645Zm3.753,4.7,2.475-.495a6.3,6.3,0,0,0,3.229-1.728l3.062-3.062a3.188,3.188,0,1,0-4.509-4.509l-3.062,3.062a6.3,6.3,0,0,0-1.728,3.229l-.495,2.475a.874.874,0,0,0,1.028,1.028Zm7.53-8.558a1.441,1.441,0,0,1,0,2.038l-3.062,3.062a4.555,4.555,0,0,1-2.336,1.25l-1.19.238.238-1.19a4.555,4.555,0,0,1,1.25-2.336l3.062-3.062a1.441,1.441,0,0,1,2.038,0Zm-2.2-7.5H12.579a.874.874,0,1,1,0-1.747h5.416a.874.874,0,1,1,0,1.747Zm-7.478,5.654a.874.874,0,0,0-.058-1.234A3.891,3.891,0,0,0,7.833,9.7H7.279A3.891,3.891,0,0,0,4.653,10.71.874.874,0,1,0,5.829,12a2.148,2.148,0,0,1,1.45-.559h.555A2.148,2.148,0,0,1,9.283,12a.874.874,0,0,0,1.234-.058Z"/>
</svg>
