<svg id="envelope" xmlns="http://www.w3.org/2000/svg" width="29.24" height="21.93" viewBox="0 0 29.24 21.93">
  <g id="Group_42" data-name="Group 42" transform="translate(0 0)">
    <g id="Group_41" data-name="Group 41">
      <path id="Path_222" data-name="Path 222" d="M7.129,65.779c4.013,3.4,11.055,9.378,13.124,11.242a1.223,1.223,0,0,0,1.769,0c2.071-1.866,9.113-7.846,13.126-11.244a.609.609,0,0,0,.086-.841A2.419,2.419,0,0,0,33.322,64H8.955a2.419,2.419,0,0,0-1.912.939A.609.609,0,0,0,7.129,65.779Z" transform="translate(-6.519 -64)"/>
      <path id="Path_223" data-name="Path 223" d="M28.886,126.468a.606.606,0,0,0-.65.088c-4.45,3.773-10.13,8.609-11.917,10.219a2.467,2.467,0,0,1-3.4,0c-1.9-1.716-8.283-7.139-11.916-10.218a.609.609,0,0,0-1,.465V142.34a2.439,2.439,0,0,0,2.437,2.437H26.8a2.439,2.439,0,0,0,2.437-2.437V127.021A.609.609,0,0,0,28.886,126.468Z" transform="translate(0 -122.847)"/>
    </g>
  </g>
</svg>
