<svg xmlns="http://www.w3.org/2000/svg" width="31.112" height="22.147" viewBox="0 0 31.112 22.147">
  <g id="restaurant_1_" data-name="restaurant (1)" transform="translate(0 0)">
    <path id="Path_481" data-name="Path 481" d="M124.379,128.74c-5.309,0-9.613,3.29-9.613,7.348s4.3,7.348,9.613,7.348,9.613-3.29,9.613-7.348S129.688,128.74,124.379,128.74Zm0,12.131c-3.456,0-6.258-2.142-6.258-4.783s2.8-4.783,6.258-4.783,6.258,2.142,6.258,4.783S127.835,140.871,124.379,140.871Z" transform="translate(-108.807 -123.354)" fill="#e6e5ea"/>
    <circle id="Ellipse_238" data-name="Ellipse 238" cx="4.783" cy="4.783" r="4.783" transform="translate(10.792 7.158)" fill="#b4c0c8"/>
    <path id="Path_482" data-name="Path 482" d="M415.918,76.229a6.758,6.758,0,0,0-1.8-3.825l-.045-.048a.625.625,0,0,0-1.075.506l1.411,11.494,2.472-.3Z" transform="translate(-387.018 -71.547)" fill="#7cc1ee"/>
    <path id="Path_483" data-name="Path 483" d="M442.746,301.265h0l-2.472.3h0l.723,5.889a1.245,1.245,0,0,0,1.388,1.084h0a1.245,1.245,0,0,0,1.084-1.388Z" transform="translate(-412.886 -286.923)" fill="#ec7"/>
    <path id="Path_484" data-name="Path 484" d="M10.194,192.972a1.288,1.288,0,0,0,1.116,1.476h0a1.288,1.288,0,0,0,1.44-1.162l1.081-11.854-1.818-.223Z" transform="translate(-9.65 -173.1)" fill="#7cc1ee"/>
    <g id="Group_196" data-name="Group 196" transform="translate(0 0)">
      <path id="Path_485" data-name="Path 485" d="M114.9,118.741c-5.587,0-10.133,3.941-10.133,8.785s4.545,8.785,10.133,8.785,10.133-3.941,10.133-8.785S120.485,118.741,114.9,118.741Zm0,16.41c-4.85,0-8.8-3.421-8.8-7.626s3.946-7.625,8.8-7.625,8.8,3.421,8.8,7.625S119.747,135.151,114.9,135.151Z" transform="translate(-99.326 -115.711)" fill="#040507"/>
      <path id="Path_486" data-name="Path 486" d="M163.415,170.694a.519.519,0,0,0-.207.7,4.258,4.258,0,1,1-3.073-2.171.519.519,0,1,0,.162-1.025,5.3,5.3,0,1,0,3.821,2.7A.519.519,0,0,0,163.415,170.694Z" transform="translate(-143.887 -161.483)" fill="#040507"/>
      <path id="Path_487" data-name="Path 487" d="M303.161,184.5a.526.526,0,0,0,.112.168.563.563,0,0,0,.079.065.526.526,0,0,0,.089.048.537.537,0,0,0,.1.03.517.517,0,0,0,.3-.03.512.512,0,0,0,.09-.048.531.531,0,0,0,.079-.065.5.5,0,0,0,.064-.079.524.524,0,0,0,.048-.089.546.546,0,0,0,.03-.1.517.517,0,0,0,.01-.1.523.523,0,0,0-.152-.367.5.5,0,0,0-.079-.064.514.514,0,0,0-.09-.048.526.526,0,0,0-.1-.03.514.514,0,0,0-.2,0,.537.537,0,0,0-.1.03.51.51,0,0,0-.233.191.513.513,0,0,0-.048.09.521.521,0,0,0-.03.1.509.509,0,0,0-.01.1.515.515,0,0,0,.01.1A.534.534,0,0,0,303.161,184.5Z" transform="translate(-284.594 -176.77)" fill="#040507"/>
      <path id="Path_488" data-name="Path 488" d="M406.951,67.072a8.4,8.4,0,0,0-.891-2.944,7.941,7.941,0,0,0-1.05-1.549l-.045-.052a1.062,1.062,0,0,0-1.319-.27A1.256,1.256,0,0,0,403,63.538L405.132,82.5q.01.091.028.18a1.81,1.81,0,0,0,1.722,1.511,1.627,1.627,0,0,0,.216-.014h0a1.766,1.766,0,0,0,1.316-.956q.042-.08.077-.165t.063-.173a2.079,2.079,0,0,0,.08-.851ZM404.028,63.4a.107.107,0,0,1,.06-.119.11.11,0,0,1,.05-.014.1.1,0,0,1,.072.039l.045.052a6.808,6.808,0,0,1,.9,1.328,7.2,7.2,0,0,1,.764,2.524l.9,7.972-1.441.193Zm3.531,19.155a.741.741,0,0,1-.587.5h0a.743.743,0,0,1-.809-.69L405.5,76.5l1.441-.193.66,5.862A.854.854,0,0,1,407.559,82.555Z" transform="translate(-377.536 -62.043)" fill="#040507"/>
      <path id="Path_489" data-name="Path 489" d="M6.382,65.853l.472-4.2a.559.559,0,0,0-.452-.632.531.531,0,0,0-.579.493l-.472,4.2A1.288,1.288,0,0,1,4.194,66.9l-.344-.046.621-5.521a.559.559,0,0,0-.452-.632.53.53,0,0,0-.579.493l-.621,5.521-.344-.046a1.358,1.358,0,0,1-.859-1.458l.472-4.2a.559.559,0,0,0-.452-.632.53.53,0,0,0-.579.493l-.472,4.2a2.54,2.54,0,0,0,1.2,2.507L.02,79.99v0a2.093,2.093,0,0,0,.35,1.484,1.767,1.767,0,0,0,1.217.763H1.6a1.679,1.679,0,0,0,1.355-.423,2.014,2.014,0,0,0,.665-1.357L4.66,67.968A2.413,2.413,0,0,0,6.382,65.853ZM2.583,80.36a.858.858,0,0,1-.283.577.717.717,0,0,1-.576.18H1.714a.752.752,0,0,1-.518-.325.89.89,0,0,1-.149-.63L2.8,67.857l.41.055h0l.409.055Z" transform="translate(0 -60.38)" fill="#040507"/>
    </g>
  </g>
</svg>
