<svg xmlns="http://www.w3.org/2000/svg" width="25.14" height="21.792" viewBox="0 0 25.14 21.792">
  <g id="toy-train" transform="translate(0 0)">
    <path id="Path_589" data-name="Path 589" d="M235.437,178.474H226V173.16h8.677a.758.758,0,0,1,.758.758Z" transform="translate(-214.906 -166.331)" fill="#e86478"/>
    <path id="Path_590" data-name="Path 590" d="M28.235,281.393H8.762A1.262,1.262,0,0,0,7.5,282.655V285.6a1.262,1.262,0,0,0,1.262,1.262H30.729a1.173,1.173,0,0,0,.937-1.879l-2.27-3.014A1.454,1.454,0,0,0,28.235,281.393Z" transform="translate(-7.132 -269.25)" fill="#f8ca4f"/>
    <path id="Path_591" data-name="Path 591" d="M9.445,285.6v-2.947a1.262,1.262,0,0,1,1.262-1.262H8.762A1.262,1.262,0,0,0,7.5,282.653V285.6a1.262,1.262,0,0,0,1.262,1.262h1.945A1.262,1.262,0,0,1,9.445,285.6Z" transform="translate(-7.132 -269.248)" opacity="0.1"/>
    <circle id="Ellipse_243" data-name="Ellipse 243" cx="3.809" cy="3.809" r="3.809" transform="translate(2.601 13.806)" fill="#e86478"/>
    <circle id="Ellipse_244" data-name="Ellipse 244" cx="1.671" cy="1.671" r="1.671" transform="translate(4.739 15.944)" opacity="0.15"/>
    <circle id="Ellipse_245" data-name="Ellipse 245" cx="3.809" cy="3.809" r="3.809" transform="translate(13.773 13.806)" fill="#e86478"/>
    <circle id="Ellipse_246" data-name="Ellipse 246" cx="1.671" cy="1.671" r="1.671" transform="translate(15.911 15.944)" opacity="0.15"/>
    <rect id="Rectangle_1164" data-name="Rectangle 1164" width="8.784" height="8.631" transform="translate(2.313 3.512)" fill="#61c6ad"/>
    <rect id="Rectangle_1165" data-name="Rectangle 1165" width="8.784" height="1.463" transform="translate(2.313 3.512)" opacity="0.1"/>
    <path id="Path_592" data-name="Path 592" d="M27.472,41.6H17.516a.912.912,0,0,0-.912.912v1.32a.912.912,0,0,0,.912.912h9.957a.912.912,0,0,0,.912-.912v-1.32A.912.912,0,0,0,27.472,41.6Z" transform="translate(-15.789 -41.228)" fill="#92d2e7"/>
    <path id="Path_593" data-name="Path 593" d="M18.233,43.829v-1.32a.912.912,0,0,1,.912-.912H17.516a.912.912,0,0,0-.912.912v1.32a.912.912,0,0,0,.912.912h1.629A.912.912,0,0,1,18.233,43.829Z" transform="translate(-15.789 -41.228)" opacity="0.1"/>
    <rect id="Rectangle_1166" data-name="Rectangle 1166" width="3.57" height="3.215" transform="translate(15.561 3.613)" fill="#f8ca4f"/>
    <rect id="Rectangle_1167" data-name="Rectangle 1167" width="3.57" height="1.106" transform="translate(15.561 3.613)" opacity="0.1"/>
    <path id="Path_594" data-name="Path 594" d="M303.348,64.116h-4.224a.575.575,0,0,1-.575-.575v-1.1a.575.575,0,0,1,.575-.575h4.224a.575.575,0,0,1,.575.575v1.1A.575.575,0,0,1,303.348,64.116Z" transform="translate(-283.89 -60.502)" fill="#92d2e7"/>
    <path id="Path_595" data-name="Path 595" d="M299.7,63.541v-1.1a.575.575,0,0,1,.575-.575h-1.155a.575.575,0,0,0-.575.575v1.1a.575.575,0,0,0,.575.575h1.155A.575.575,0,0,1,299.7,63.541Z" transform="translate(-283.889 -60.502)" opacity="0.1"/>
    <circle id="Ellipse_247" data-name="Ellipse 247" cx="2.112" cy="2.112" r="2.112" transform="translate(4.593 5.446)" fill="#fff"/>
    <rect id="Rectangle_1168" data-name="Rectangle 1168" width="1.613" height="5.314" transform="translate(11.097 6.829)" opacity="0.1"/>
    <path id="Path_596" data-name="Path 596" d="M17.582,49.673a2.039,2.039,0,1,0,2.039,2.039A2.041,2.041,0,0,0,17.582,49.673Zm0,3.341a1.3,1.3,0,1,1,1.3-1.3A1.3,1.3,0,0,1,17.582,53.014ZM6.41,49.673a2.04,2.04,0,0,0-1.8,3,.368.368,0,0,0,.649-.348,1.286,1.286,0,0,1-.153-.613,1.3,1.3,0,1,1,1.3,1.3c-.042,0-.084,0-.125-.006a.368.368,0,1,0-.07.733c.064.006.13.009.2.009a2.039,2.039,0,0,0,0-4.078Zm2.776-8.018a2.48,2.48,0,1,0-2.48,2.48A2.483,2.483,0,0,0,9.186,41.655Zm-4.224,0A1.744,1.744,0,1,1,6.705,43.4,1.746,1.746,0,0,1,4.961,41.655Zm19.867,7.956L22.558,46.6a1.831,1.831,0,0,0-1.455-.726h-.2V45.2a.368.368,0,1,0-.737,0v.668h-8.7V41.294h8.308a.39.39,0,0,1,.389.389v1.635a.368.368,0,1,0,.737,0V41.683a1.127,1.127,0,0,0-1.126-1.126H19.5v-2.48a.943.943,0,0,0,.9-.941v-1.1a.944.944,0,0,0-.943-.943H15.234a.944.944,0,0,0-.943.943v1.1a.943.943,0,0,0,.9.941v2.48H11.465v-2.58h.218a1.281,1.281,0,0,0,1.28-1.28v-1.32a1.281,1.281,0,0,0-1.28-1.28H1.727a1.281,1.281,0,0,0-1.28,1.28V36.7a1.281,1.281,0,0,0,1.28,1.28h.218v1.3a.368.368,0,1,0,.737,0v-1.3h8.047v7.894H2.681v-4.5a.368.368,0,0,0-.737,0v4.5H1.631A1.632,1.632,0,0,0,0,47.5v2.947A1.632,1.632,0,0,0,1.631,52.08H2.25a4.176,4.176,0,0,0,8.32,0h2.852a4.176,4.176,0,0,0,8.32,0H23.6a1.542,1.542,0,0,0,1.231-2.469Zm-6.066-9.054H15.929V38.079h2.833Zm-3.735-3.421v-1.1a.207.207,0,0,1,.206-.206h4.224a.207.207,0,0,1,.206.206v1.1a.207.207,0,0,1-.206.206H15.234A.207.207,0,0,1,15.028,37.136Zm-13.3.105a.544.544,0,0,1-.543-.543v-1.32a.544.544,0,0,1,.543-.543h9.957a.544.544,0,0,1,.543.543V36.7a.544.544,0,0,1-.543.543ZM6.41,55.152A3.441,3.441,0,1,1,9.85,51.712,3.444,3.444,0,0,1,6.41,55.152Zm11.172,0a3.441,3.441,0,1,1,3.441-3.441A3.444,3.444,0,0,1,17.582,55.152ZM24.318,50.9a.79.79,0,0,1-.72.446H21.742a4.176,4.176,0,0,0-8.32,0H10.57a4.176,4.176,0,0,0-8.32,0H1.631a.9.9,0,0,1-.894-.894V47.5a.9.9,0,0,1,.894-.894H21.1a1.091,1.091,0,0,1,.867.432l2.27,3.014A.79.79,0,0,1,24.318,50.9Z" transform="translate(0 -34.097)"/>
  </g>
</svg>
