<svg xmlns="http://www.w3.org/2000/svg" width="23.749" height="22.796" viewBox="0 0 23.749 22.796">
  <g id="medicine" transform="translate(0 0)">
    <g id="Group_219" data-name="Group 219" transform="translate(0.466 0.466)">
      <path id="Path_630" data-name="Path 630" d="M107.529,33.5l3.328-5.764a4.943,4.943,0,0,0-8.562-4.943l-3.46,5.993,8.276,4.779Q107.315,33.533,107.529,33.5Z" transform="translate(-94.715 -20.327)" fill="#bde5f8"/>
      <path id="Path_631" data-name="Path 631" d="M22.432,207.518l-8.276-4.779-3.46,5.994a4.943,4.943,0,0,0,8.32,5.322v-4.831C19.015,208.5,20.387,207.861,22.432,207.518Z" transform="translate(-10.036 -194.278)" fill="#f63d53"/>
      <g id="Group_218" data-name="Group 218" transform="translate(8.978 12.968)">
        <path id="Path_632" data-name="Path 632" d="M207.015,300.173c-2.045.343-3.417.979-3.417,1.706,0,.7,1.274,1.316,3.2,1.667l7.522-3.32a20.959,20.959,0,0,0-3.8-.324,22.091,22.091,0,0,0-3.085.207Q207.22,300.138,207.015,300.173Z" transform="translate(-203.598 -299.901)" fill="#e1e6e9"/>
        <path id="Path_633" data-name="Path 633" d="M280.035,306.891l-7.522,3.32a21.1,21.1,0,0,0,3.724.31c3.822,0,6.921-.885,6.921-1.977C283.158,307.853,281.916,307.244,280.035,306.891Z" transform="translate(-269.316 -306.567)" fill="#e1e6e9"/>
      </g>
      <path id="Path_634" data-name="Path 634" d="M217.439,342.53c0,1.092-3.1,1.977-6.921,1.977a21.1,21.1,0,0,1-3.724-.31c-1.922-.351-3.2-.967-3.2-1.667v4.943c0,1.092,3.1,1.977,6.921,1.977s6.921-.885,6.921-1.977Z" transform="translate(-194.62 -327.585)" fill="#bccbd3"/>
    </g>
    <path id="Path_635" data-name="Path 635" d="M193.976,50.025a.463.463,0,0,0,.634-.17,2.831,2.831,0,0,1,1.769-1.333.464.464,0,1,0-.23-.9,3.752,3.752,0,0,0-2.343,1.768A.464.464,0,0,0,193.976,50.025Z" transform="translate(-184.757 -45.878)"/>
    <path id="Path_636" data-name="Path 636" d="M268.02,47.209a.464.464,0,0,0,.162-.913l-.021,0a.464.464,0,0,0-.141.917Z" transform="translate(-255.214 -44.617)"/>
    <path id="Path_637" data-name="Path 637" d="M23.749,25.683c0-.774-.8-1.394-2.367-1.843-.341-.1-.711-.184-1.1-.259a.467.467,0,0,0-.068-.012,21.4,21.4,0,0,0-3.847-.327c-.765,0-1.513.036-2.222.1l2.866-4.964a5.407,5.407,0,0,0-9.365-5.407L4.184,18.965h0v0L.722,24.96a5.4,5.4,0,0,0,4.669,8.107A5.45,5.45,0,0,0,9.3,31.414a4.3,4.3,0,0,0,2.045,1.056,19.075,19.075,0,0,0,5.021.6,19.074,19.074,0,0,0,5.021-.6c1.568-.448,2.363-1.069,2.363-1.844V25.683Zm-.928,0h0c0,.131-.309.554-1.694.95a18.118,18.118,0,0,1-4.762.562c-.7,0-1.38-.03-2.028-.088l5.878-2.594c.323.064.628.137.912.218C22.514,25.128,22.82,25.551,22.821,25.682Zm-4.342-1.416-5.892,2.6c-.35-.068-.68-.145-.985-.233-1.39-.4-1.694-.821-1.694-.951s.3-.554,1.695-.951a18.115,18.115,0,0,1,4.762-.562C17.095,24.169,17.806,24.2,18.479,24.266ZM8.446,13.437a4.48,4.48,0,0,1,7.759,4.48l-3.217,5.571-.037.006L5.218,19.029ZM3.165,31.543a4.494,4.494,0,0,1-1.64-6.119l3.228-5.592,6.829,3.943c-.08.021-.159.042-.236.064-1.569.448-2.365,1.068-2.367,1.841v4.68A4.513,4.513,0,0,1,3.165,31.543Zm17.965.035a18.139,18.139,0,0,1-4.766.561,18.139,18.139,0,0,1-4.766-.561c-1.387-.4-1.691-.822-1.691-.952V26.949a6.368,6.368,0,0,0,1.44.576c.364.1.76.195,1.18.273a.46.46,0,0,0,.062.011,21.52,21.52,0,0,0,3.775.314,19.05,19.05,0,0,0,5.017-.6,6.368,6.368,0,0,0,1.44-.576v3.677C22.821,30.757,22.517,31.182,21.131,31.578Z" transform="translate(0 -10.271)"/>
  </g>
</svg>
