<svg xmlns="http://www.w3.org/2000/svg" xmlns:xlink="http://www.w3.org/1999/xlink" width="59.951" height="59.951" viewBox="0 0 59.951 59.951">
  <defs>
    <linearGradient id="linear-gradient" x1="0.084" y1="0.916" x2="0.916" y2="0.084" gradientUnits="objectBoundingBox">
      <stop offset="0" stop-color="#ffd600"/>
      <stop offset="0.5" stop-color="#ff0100"/>
      <stop offset="1" stop-color="#d800b9"/>
    </linearGradient>
    <linearGradient id="linear-gradient-2" x1="0.146" y1="0.854" x2="0.854" y2="0.146" gradientUnits="objectBoundingBox">
      <stop offset="0" stop-color="#ff6400"/>
      <stop offset="0.5" stop-color="#ff0100"/>
      <stop offset="1" stop-color="#fd0056"/>
    </linearGradient>
    <linearGradient id="linear-gradient-3" x1="0.146" y1="0.854" x2="0.854" y2="0.146" gradientUnits="objectBoundingBox">
      <stop offset="0" stop-color="#f30072"/>
      <stop offset="1" stop-color="#e50097"/>
    </linearGradient>
  </defs>
  <g id="instagram" transform="translate(0 0)">
    <path id="Path_405" data-name="Path 405" d="M59.771,17.617a22.006,22.006,0,0,0-1.394-7.276A14.691,14.691,0,0,0,54.92,5.031,14.7,14.7,0,0,0,49.61,1.573,22,22,0,0,0,42.334.181C39.138.035,38.116,0,29.975,0S20.813.035,17.617.18a22.009,22.009,0,0,0-7.276,1.394A14.691,14.691,0,0,0,5.031,5.031,14.694,14.694,0,0,0,1.573,10.34,22.005,22.005,0,0,0,.181,17.616C.035,20.813,0,21.834,0,29.975s.035,9.162.181,12.359A22,22,0,0,0,1.574,49.61a14.689,14.689,0,0,0,3.457,5.309,14.687,14.687,0,0,0,5.309,3.457,21.994,21.994,0,0,0,7.276,1.394c3.2.146,4.218.18,12.359.18s9.162-.034,12.359-.18a22,22,0,0,0,7.276-1.394,15.325,15.325,0,0,0,8.766-8.766,22,22,0,0,0,1.394-7.276c.145-3.2.18-4.218.18-12.359s-.035-9.162-.18-12.359Zm-5.4,24.472a16.585,16.585,0,0,1-1.032,5.566,9.926,9.926,0,0,1-5.689,5.689,16.585,16.585,0,0,1-5.566,1.032c-3.16.145-4.108.175-12.113.175s-8.953-.03-12.113-.175A16.591,16.591,0,0,1,12.3,53.344,9.29,9.29,0,0,1,8.85,51.1a9.286,9.286,0,0,1-2.243-3.446,16.585,16.585,0,0,1-1.032-5.566C5.431,38.928,5.4,37.98,5.4,29.976s.031-8.952.175-12.113A16.6,16.6,0,0,1,6.607,12.3,9.293,9.293,0,0,1,8.85,8.85,9.281,9.281,0,0,1,12.3,6.608a16.582,16.582,0,0,1,5.566-1.032c3.161-.144,4.109-.175,12.113-.175h0c8,0,8.952.031,12.113.175a16.588,16.588,0,0,1,5.566,1.032A9.294,9.294,0,0,1,51.1,8.85,9.281,9.281,0,0,1,53.343,12.3a16.57,16.57,0,0,1,1.032,5.566c.144,3.161.175,4.109.175,12.113s-.03,8.952-.175,12.113Zm0,0" transform="translate(0 0)" fill="url(#linear-gradient)"/>
    <path id="Path_406" data-name="Path 406" d="M139.932,124.539a15.393,15.393,0,1,0,15.393,15.393A15.393,15.393,0,0,0,139.932,124.539Zm0,25.385a9.992,9.992,0,1,1,9.992-9.992A9.992,9.992,0,0,1,139.932,149.924Zm0,0" transform="translate(-109.957 -109.957)" fill="url(#linear-gradient-2)"/>
    <path id="Path_407" data-name="Path 407" d="M369.124,92.223a3.6,3.6,0,1,1-3.6-3.6A3.6,3.6,0,0,1,369.124,92.223Zm0,0" transform="translate(-319.55 -78.248)" fill="url(#linear-gradient-3)"/>
  </g>
</svg>
