<svg id="linkedin" xmlns="http://www.w3.org/2000/svg" width="53.543" height="51.179" viewBox="0 0 53.543 51.179">
  <path id="Path_413" data-name="Path 413" d="M6.488,159.684H17.966v34.532H6.488Zm0,0" transform="translate(-5.81 -143.037)" fill="#069"/>
  <path id="Path_414" data-name="Path 414" d="M6.493.5C2.567.5,0,3.078,0,6.467c0,3.314,2.491,5.965,6.342,5.965h.075c4,0,6.494-2.652,6.494-5.965C12.836,3.078,10.42.5,6.493.5Zm0,0" transform="translate(0 -0.5)" fill="#069"/>
  <path id="Path_415" data-name="Path 415" d="M198.8,151.934a11.394,11.394,0,0,0-10.344,5.7v-4.89H176.973v34.532h11.478V167.992a7.868,7.868,0,0,1,.378-2.8,6.283,6.283,0,0,1,5.889-4.2c4.153,0,5.815,3.167,5.815,7.809v18.474h11.477v-19.8c0-10.607-5.663-15.542-13.214-15.542Zm0,0" transform="translate(-158.466 -136.098)" fill="#069"/>
</svg>
