<svg xmlns="http://www.w3.org/2000/svg" width="21.163" height="21.162" viewBox="0 0 21.163 21.162">
  <g id="logout_2_" data-name="logout (2)" transform="translate(0 -0.008)">
    <path id="Path_444" data-name="Path 444" d="M286.37,209.331h-8.377a.661.661,0,1,1,0-1.323h8.377a.661.661,0,0,1,0,1.323Zm0,0" transform="translate(-265.87 -199.403)"/>
    <path id="Path_445" data-name="Path 445" d="M400.665,135.907a.662.662,0,0,1-.467-1.13l2.839-2.839L400.2,129.1a.662.662,0,0,1,.936-.935l3.307,3.307a.661.661,0,0,1,0,.935l-3.307,3.307A.657.657,0,0,1,400.665,135.907Zm0,0" transform="translate(-383.471 -122.673)"/>
    <path id="Path_446" data-name="Path 446" d="M7.054,21.17a1.817,1.817,0,0,1-.547-.082L1.2,19.32A1.78,1.78,0,0,1,0,17.643V1.772A1.765,1.765,0,0,1,1.763.008,1.819,1.819,0,0,1,2.31.09L7.616,1.858a1.78,1.78,0,0,1,1.2,1.677V19.406A1.765,1.765,0,0,1,7.054,21.17ZM1.763,1.331a.442.442,0,0,0-.441.441V17.643a.458.458,0,0,0,.306.425l5.282,1.76a.479.479,0,0,0,.144.019.442.442,0,0,0,.441-.441V3.535a.458.458,0,0,0-.306-.425L1.907,1.35a.479.479,0,0,0-.144-.019Zm0,0" transform="translate(0 0)"/>
    <path id="Path_447" data-name="Path 447" d="M39.012,7.062a.662.662,0,0,1-.661-.661V2.433a1.1,1.1,0,0,0-1.1-1.1h-9.92a.661.661,0,1,1,0-1.323h9.92a2.427,2.427,0,0,1,2.425,2.425V6.4A.662.662,0,0,1,39.012,7.062Zm0,0" transform="translate(-25.566)"/>
    <path id="Path_448" data-name="Path 448" d="M185.521,284.394h-3.527a.661.661,0,0,1,0-1.323h3.527a1.1,1.1,0,0,0,1.1-1.1V278a.661.661,0,0,1,1.323,0v3.968A2.427,2.427,0,0,1,185.521,284.394Zm0,0" transform="translate(-173.838 -265.869)"/>
  </g>
</svg>
