<svg id="conversation_1_" data-name="conversation (1)" xmlns="http://www.w3.org/2000/svg" width="24.027" height="23.651" viewBox="0 0 24.027 23.651">
  <g id="Group_170" data-name="Group 170" transform="translate(0 0)">
    <g id="Group_169" data-name="Group 169">
      <path id="Path_432" data-name="Path 432" d="M23.941,22.681l-1.4-4.061A10.16,10.16,0,0,0,13.591,4.012,10.149,10.149,0,0,0,3.279,14.028a7.4,7.4,0,0,0-2.245,9.087l-.961,2.8a1.322,1.322,0,0,0,1.245,1.75,1.331,1.331,0,0,0,.433-.073l2.8-.961a7.427,7.427,0,0,0,3.162.714h.012a7.384,7.384,0,0,0,5.971-3.036,10.181,10.181,0,0,0,4.194-1.027l4.061,1.4a1.581,1.581,0,0,0,.514.086,1.571,1.571,0,0,0,1.479-2.08ZM7.721,25.912H7.712a5.981,5.981,0,0,1-2.778-.69.715.715,0,0,0-.567-.044L1.5,26.163,2.484,23.3a.715.715,0,0,0-.044-.567,5.963,5.963,0,0,1,.972-6.913A10.188,10.188,0,0,0,11.9,24.2,5.948,5.948,0,0,1,7.721,25.912Zm14.834-2.623a.13.13,0,0,1-.143.033l-4.348-1.494a.715.715,0,0,0-.567.044,8.736,8.736,0,0,1-4.057,1.007h-.014A8.753,8.753,0,0,1,4.709,14.3a8.719,8.719,0,0,1,8.86-8.86,8.721,8.721,0,0,1,7.57,12.788.715.715,0,0,0-.044.567l1.494,4.348A.13.13,0,0,1,22.555,23.289Z" transform="translate(0 -4.011)"/>
    </g>
  </g>
  <g id="Group_172" data-name="Group 172" transform="translate(8.452 6.359)">
    <g id="Group_171" data-name="Group 171">
      <path id="Path_433" data-name="Path 433" d="M189.329,139.512h-8.52a.715.715,0,1,0,0,1.43h8.52a.715.715,0,0,0,0-1.43Z" transform="translate(-180.094 -139.512)"/>
    </g>
  </g>
  <g id="Group_174" data-name="Group 174" transform="translate(8.452 9.3)">
    <g id="Group_173" data-name="Group 173">
      <path id="Path_434" data-name="Path 434" d="M189.329,202.183h-8.52a.715.715,0,1,0,0,1.43h8.52a.715.715,0,1,0,0-1.43Z" transform="translate(-180.094 -202.183)"/>
    </g>
  </g>
  <g id="Group_176" data-name="Group 176" transform="translate(8.452 12.241)">
    <g id="Group_175" data-name="Group 175">
      <path id="Path_435" data-name="Path 435" d="M186.049,264.852h-5.241a.715.715,0,0,0,0,1.43h5.241a.715.715,0,0,0,0-1.43Z" transform="translate(-180.093 -264.852)"/>
    </g>
  </g>
</svg>
