<svg xmlns="http://www.w3.org/2000/svg" width="27.721" height="7.344" viewBox="0 0 27.721 7.344">
  <g id="more_1_" data-name="more (1)" transform="translate(0 0)">
    <path id="Path_669" data-name="Path 669" d="M324.964,3.711A3.672,3.672,0,1,1,321.293.039,3.672,3.672,0,0,1,324.964,3.711Zm0,0" transform="translate(-297.243 -0.039)" fill="#ff656f"/>
    <path id="Path_670" data-name="Path 670" d="M166.152,3.711A3.672,3.672,0,1,1,162.481.039,3.672,3.672,0,0,1,166.152,3.711Zm0,0" transform="translate(-148.62 -0.039)" fill="#ff656f"/>
    <path id="Path_671" data-name="Path 671" d="M7.344,3.711A3.672,3.672,0,1,1,3.672.039,3.672,3.672,0,0,1,7.344,3.711Zm0,0" transform="translate(0 -0.039)" fill="#ff656f"/>
  </g>
</svg>
