<svg xmlns="http://www.w3.org/2000/svg" width="24.176" height="24.176" viewBox="0 0 24.176 24.176">
  <g id="call" transform="translate(0 0)">
    <g id="Group_40" data-name="Group 40" transform="translate(0 0)">
      <path id="Path_221" data-name="Path 221" d="M22.236,15.869a13.726,13.726,0,0,1-4.311-.687,1.97,1.97,0,0,0-1.916.4l-2.718,2.052a15.023,15.023,0,0,1-6.754-6.753L8.528,8.238a1.954,1.954,0,0,0,.481-1.98A13.747,13.747,0,0,1,8.32,1.94,1.942,1.942,0,0,0,6.38,0H1.94A1.942,1.942,0,0,0,0,1.94,22.261,22.261,0,0,0,22.236,24.176a1.942,1.942,0,0,0,1.94-1.94V17.809A1.942,1.942,0,0,0,22.236,15.869Z" transform="translate(0 0)"/>
    </g>
  </g>
</svg>
