<svg xmlns="http://www.w3.org/2000/svg" width="13.213" height="13.213" viewBox="0 0 13.213 13.213">
  <g id="call" transform="translate(0 0)">
    <g id="Group_40" data-name="Group 40" transform="translate(0 0)">
      <path id="Path_221" data-name="Path 221" d="M12.153,8.673A7.5,7.5,0,0,1,9.8,8.3a1.077,1.077,0,0,0-1.047.221L7.264,9.64A8.21,8.21,0,0,1,3.572,5.949L4.661,4.5A1.068,1.068,0,0,0,4.924,3.42a7.513,7.513,0,0,1-.377-2.36A1.061,1.061,0,0,0,3.487,0H1.06A1.061,1.061,0,0,0,0,1.06,12.166,12.166,0,0,0,12.153,13.213a1.061,1.061,0,0,0,1.06-1.06V9.733A1.061,1.061,0,0,0,12.153,8.673Z" transform="translate(0 0)"/>
    </g>
  </g>
</svg>
