<svg xmlns="http://www.w3.org/2000/svg" width="33.61" height="29.213" viewBox="0 0 33.61 29.213">
  <g id="send_1_" data-name="send (1)" transform="translate(-0.001 -33.492)">
    <path id="Path_356" data-name="Path 356" d="M33.589,34.685a.985.985,0,0,0-1.313-1.128L.634,45.636a.985.985,0,0,0,0,1.838l8.888,3.433V61.72a.985.985,0,0,0,1.864.443l3.676-7.295,8.971,6.658a.985.985,0,0,0,1.529-.5C33.936,33.56,33.574,34.754,33.589,34.685Zm-7.81,3.461L10.364,49.123,3.733,46.562ZM11.489,50.74l13.435-9.568c-11.561,12.2-10.957,11.554-11.008,11.622-.075.1.13-.292-2.428,4.784Zm12.594,8.373-7.9-5.86L30.465,38.189Z" fill="#ff7937"/>
  </g>
</svg>
