<svg xmlns="http://www.w3.org/2000/svg" xmlns:xlink="http://www.w3.org/1999/xlink" width="28.375" height="28.375" viewBox="0 0 28.375 28.375">
  <defs>
    <linearGradient id="linear-gradient" x1="0.199" y1="1.344" x2="0.801" y2="0.3" gradientUnits="objectBoundingBox">
      <stop offset="0.004" stop-color="#f1cccd"/>
      <stop offset="1" stop-color="#faeeee"/>
    </linearGradient>
    <linearGradient id="linear-gradient-2" x1="0.179" y1="1.573" x2="0.782" y2="-0.352" gradientUnits="objectBoundingBox">
      <stop offset="0.011" stop-color="#606082"/>
      <stop offset="1" stop-color="#83839e"/>
    </linearGradient>
    <linearGradient id="linear-gradient-3" x1="0.125" y1="0.832" x2="0.913" y2="0.044" gradientUnits="objectBoundingBox">
      <stop offset="0.004" stop-color="#e7aaab"/>
      <stop offset="1" stop-color="#f1cccd"/>
    </linearGradient>
    <linearGradient id="linear-gradient-4" x1="0.149" y1="0.769" x2="0.813" y2="0.106" xlink:href="#linear-gradient-3"/>
    <linearGradient id="linear-gradient-5" x1="0.057" y1="0.765" x2="0.943" y2="-0.053" xlink:href="#linear-gradient"/>
    <linearGradient id="linear-gradient-6" x1="0.167" y1="1.334" x2="0.833" y2="0.001" xlink:href="#linear-gradient-2"/>
    <linearGradient id="linear-gradient-7" x1="0.226" y1="1.569" x2="0.774" y2="-0.618" gradientUnits="objectBoundingBox">
      <stop offset="0.011" stop-color="#fad46a"/>
      <stop offset="1" stop-color="#fce6aa"/>
    </linearGradient>
    <linearGradient id="linear-gradient-8" x1="0.146" y1="0.854" x2="0.854" y2="0.146" gradientUnits="objectBoundingBox">
      <stop offset="0.015" stop-color="#a6a6b9"/>
      <stop offset="1" stop-color="#cacad5"/>
    </linearGradient>
  </defs>
  <g id="_30-technical" data-name="30-technical" transform="translate(0 0)">
    <g id="linear_color" data-name="linear color" transform="translate(0 0)">
      <path id="Path_609" data-name="Path 609" d="M30.413,261.4V256h-5.4v5.4l-7.724,2.317A1.8,1.8,0,0,0,16,265.448v4.064H39.421v-4.064a1.8,1.8,0,0,0-1.284-1.726Z" transform="translate(-15.324 -241.812)" fill="url(#linear-gradient)"/>
      <path id="Path_610" data-name="Path 610" d="M38.137,367.328,33,365.787l-5.29,4.629-5.29-4.629-5.137,1.541A1.8,1.8,0,0,0,16,369.054v4.064H37.619l1.8-4.064a1.8,1.8,0,0,0-1.284-1.726Z" transform="translate(-15.324 -345.418)" fill="url(#linear-gradient-2)"/>
      <path id="Path_611" data-name="Path 611" d="M288,177.762a1.8,1.8,0,0,1,1.8-1.8c.995,0,1.8-.094,1.8.9s-.807,2.7-1.8,2.7A1.8,1.8,0,0,1,288,177.762Z" transform="translate(-272.011 -166.276)" fill="url(#linear-gradient-3)"/>
      <path id="Path_612" data-name="Path 612" d="M96,176.861c0-.995.807-.9,1.8-.9a1.8,1.8,0,1,1,0,3.6C96.807,179.563,96,177.856,96,176.861Z" transform="translate(-90.82 -166.276)" fill="url(#linear-gradient-4)"/>
      <path id="Path_613" data-name="Path 613" d="M128,112v6.306c0,3.482,3.6,5.4,5.4,5.4s5.4-1.922,5.4-5.4V112Z" transform="translate(-121.019 -105.92)" fill="url(#linear-gradient-5)"/>
      <ellipse id="Ellipse_248" data-name="Ellipse 248" cx="0.599" cy="0.719" rx="0.599" ry="0.719" transform="translate(14.72 9.689)"/>
      <circle id="Ellipse_249" data-name="Ellipse 249" cx="0.719" cy="0.719" r="0.719" transform="translate(8.731 9.689)"/>
      <path id="Path_614" data-name="Path 614" d="M208.9,200l-.9,1.8h.9" transform="translate(-196.515 -188.965)" fill="#fff"/>
      <path id="Path_615" data-name="Path 615" d="M115.6,16h5.4a3.6,3.6,0,0,1,3.6,3.6v2.7H112V19.6A3.6,3.6,0,0,1,115.6,16Z" transform="translate(-105.92 -15.324)" fill="url(#linear-gradient-6)"/>
      <path id="Path_616" data-name="Path 616" d="M122.468,115.126a20.645,20.645,0,0,0-8.326,0A1.8,1.8,0,0,1,112,113.358V112.9a22.52,22.52,0,0,1,12.611,0v.457a1.8,1.8,0,0,1-2.143,1.769Z" transform="translate(-105.92 -105.92)" fill="url(#linear-gradient-7)"/>
      <path id="Path_617" data-name="Path 617" d="M301.1,299.284l.687.881-1.622,1.622-.881-.687-1.1.456-.137,1.109h-2.294l-.137-1.109-1.1-.457-.881.687-1.622-1.622.687-.881-.456-1.1-1.109-.137v-2.294l1.109-.137.456-1.1-.687-.881,1.622-1.622.881.687,1.1-.456.137-1.109h2.294l.137,1.109,1.1.456.881-.687,1.622,1.622-.687.881.456,1.1,1.109.137v2.294l-1.109.137Zm-2.732-3.856a2.079,2.079,0,1,0,0,2.941A2.079,2.079,0,0,0,298.368,295.428Z" transform="translate(-274.966 -274.966)" fill="url(#linear-gradient-8)"/>
      <path id="Path_618" data-name="Path 618" d="M196.676,191.15h.9a.676.676,0,0,0,.18-1.327l.424-.848a.676.676,0,1,0-1.209-.6l-.9,1.8a.676.676,0,0,0,.6.978Z" transform="translate(-185.191 -177.638)"/>
      <path id="Path_619" data-name="Path 619" d="M196.676,53.351h1.8a.676.676,0,1,0,0-1.351h-1.8a.676.676,0,1,0,0,1.351Z" transform="translate(-185.19 -49.298)"/>
      <path id="Path_620" data-name="Path 620" d="M31.782,24.115l-.718-.089-.155-.374.445-.571a.676.676,0,0,0-.055-.893l-1.622-1.622a.676.676,0,0,0-.893-.055l-.571.445-.374-.155-.089-.718a.676.676,0,0,0-.671-.593H24.785a.676.676,0,0,0-.67.593l-.089.718-.374.155-.571-.445a.676.676,0,0,0-.893.055l-1.622,1.622a.676.676,0,0,0-.055.893l.445.571-.155.374-.718.089a.676.676,0,0,0-.593.67v.6l-3.1,2.716L12.46,24.665l1.417-.425a.676.676,0,0,0,.481-.647v-1.6a5.313,5.313,0,0,0,2.027.474,6.6,6.6,0,0,0,3.8-1.548,6.081,6.081,0,0,0,2.064-3.025c1.26-.379,2.014-2.243,2.014-3.309a1.519,1.519,0,0,0-.412-1.124,1.651,1.651,0,0,0-1.066-.435,2.466,2.466,0,0,0,.577-1.588V8.279A4.284,4.284,0,0,0,19.088,4h-5.4A4.284,4.284,0,0,0,9.4,8.279v3.159a2.466,2.466,0,0,0,.577,1.588,1.652,1.652,0,0,0-1.066.435A1.519,1.519,0,0,0,8.5,14.584c0,1.066.754,2.93,2.014,3.309a6.08,6.08,0,0,0,2.064,3.025c.138.112.28.219.426.321v1.85L5.765,25.263A2.462,2.462,0,0,0,4,27.635V31.7a.676.676,0,1,0,1.351,0V27.635a1.133,1.133,0,0,1,.8-1.078l4.779-1.434,5.009,4.382a.676.676,0,0,0,.89,0L19.5,27.173a.675.675,0,0,0,.586.577l.718.089.155.374-.445.571a.676.676,0,0,0,.055.893L22.188,31.3a.676.676,0,0,0,.893.055l.571-.445.374.155.089.718a.676.676,0,0,0,.67.592h2.294a.676.676,0,0,0,.671-.593l.089-.718.374-.155.571.445a.676.676,0,0,0,.893-.055L31.3,29.677a.676.676,0,0,0,.055-.893l-.445-.571.155-.374.718-.089a.676.676,0,0,0,.592-.67V24.785a.676.676,0,0,0-.593-.67ZM11.163,12.3a1.12,1.12,0,0,1-.406-.808,21.906,21.906,0,0,1,11.257,0,1.127,1.127,0,0,1-1.339,1.047,22.61,22.61,0,0,0-4.289-.435,22.61,22.61,0,0,0-4.289.435,1.128,1.128,0,0,1-.933-.239Zm11.753,2.281a3.03,3.03,0,0,1-.45,1.4V14.36a1.323,1.323,0,0,1,.432.058.561.561,0,0,1,.018.167ZM13.683,5.351h5.4a2.931,2.931,0,0,1,2.928,2.928V10.1a23.2,23.2,0,0,0-11.26,0V8.279a2.931,2.931,0,0,1,2.928-2.928Zm-3.81,9.066a1.325,1.325,0,0,1,.432-.058v1.628a3.03,3.03,0,0,1-.45-1.4.561.561,0,0,1,.018-.167Zm1.783,1.968V13.9a7.4,7.4,0,0,0,1.6-.191.676.676,0,1,0,.2-.029h0a19.419,19.419,0,0,1,5.862,0h0a.676.676,0,1,0,.2.03,7.435,7.435,0,0,0,1.6.191v2.481c0,3.12-3.315,4.729-4.729,4.729C14.244,20.963,11.637,19.048,11.656,16.386Zm19.367,10.1-.516.064a.676.676,0,0,0-.541.412l-.456,1.1a.676.676,0,0,0,.091.674l.32.41-.778.778-.41-.32a.676.676,0,0,0-.674-.091l-1.1.456a.676.676,0,0,0-.412.541l-.064.516h-1.1l-.064-.516a.676.676,0,0,0-.412-.541l-1.1-.456a.676.676,0,0,0-.674.091l-.41.32-.778-.778.32-.41a.676.676,0,0,0,.091-.674l-.456-1.1a.676.676,0,0,0-.541-.412l-.516-.064v-1.1l.516-.064a.676.676,0,0,0,.541-.412l.456-1.1a.676.676,0,0,0-.091-.674l-.32-.41.778-.778.41.32a.676.676,0,0,0,.674.091l1.1-.456a.676.676,0,0,0,.412-.541l.064-.516h1.1l.064.516a.676.676,0,0,0,.412.541l1.1.456a.676.676,0,0,0,.674-.091l.41-.32.778.778-.32.41a.676.676,0,0,0-.091.674l.456,1.1a.676.676,0,0,0,.541.412l.516.064Z" transform="translate(-4 -4)"/>
      <path id="Path_621" data-name="Path 621" d="M347.379,344.631a2.755,2.755,0,1,0,1.948.807A2.755,2.755,0,0,0,347.379,344.631Zm.993,3.748a1.4,1.4,0,1,1,0-1.985A1.4,1.4,0,0,1,348.372,348.379Z" transform="translate(-325.447 -325.453)"/>
    </g>
  </g>
</svg>
