<svg xmlns="http://www.w3.org/2000/svg" width="16" height="16" viewBox="0 0 16 16"><g transform="translate(-175.959 -1245.89)"><path style="line-height:normal;text-indent:0;text-align:start;text-decoration-line:none;text-decoration-style:solid;text-decoration-color:#000;text-transform:none;block-progression:tb;white-space:normal;isolation:auto;mix-blend-mode:normal;solid-color:#000;solid-opacity:1" fill="#ffc10e" d="m 183.95898,1245.8906 c -4.41235,0 -8,3.5877 -8,8 0,4.4124 3.58765,8 8,8 4.41236,0 8,-3.5876 8,-8 0,-4.4123 -3.58764,-8 -8,-8 z" color="#000" enable-background="accumulate" font-family="sans-serif" font-weight="400" overflow="visible"/><path fill="#76391f" d="m -179.95837,1254.8906 a 4,3.9999826 0 0 1 -2,3.4641 4,3.9999826 0 0 1 -4,0 4,3.9999826 0 0 1 -2,-3.4641" color="#000" enable-background="accumulate" overflow="visible" transform="scale(-1 1)" style="isolation:auto;mix-blend-mode:normal;solid-color:#000;solid-opacity:1"/><path style="line-height:normal;text-indent:0;text-align:start;text-decoration-line:none;text-decoration-style:solid;text-decoration-color:#000;text-transform:none;block-progression:tb;white-space:normal;isolation:auto;mix-blend-mode:normal;solid-color:#000;solid-opacity:1" fill="#76391f" d="M179.45117 1252.3965a.50005.50005 0 01-.49219-.5059c0-.7137.3819-1.3755 1-1.7324.61811-.3569 1.3819-.3569 2 0 .61811.3569 1 1.0187 1 1.7324a.50005.50005 0 11-1 0c0-.358-.1899-.6881-.5-.8672-.31009-.179-.6899-.179-1 0-.31009.1791-.5.5092-.5.8672a.50005.50005 0 01-.50781.5059zM185.45117 1252.3965a.50005.50005 0 01-.49219-.5059c0-.7137.3819-1.3755 1-1.7324.61811-.3569 1.3819-.3569 2 0 .61811.3569 1 1.0187 1 1.7324a.50005.50005 0 11-1 0c0-.358-.1899-.6881-.5-.8672-.31009-.179-.6899-.179-1 0-.31009.1791-.5.5092-.5.8672a.50005.50005 0 01-.50781.5059z" color="#000" enable-background="accumulate" font-family="sans-serif" font-weight="400" overflow="visible"/><path d="m 183.95898,1245.8906 c -4.41236,0 -8,3.5876 -8,8 0,4.4123 3.58764,8 8,8 4.41235,0 8,-3.5877 8,-8 0,-4.4124 -3.58765,-8 -8,-8 z m 0,1 c 3.87191,0 7,3.1281 7,7 0,3.8719 -3.12809,7 -7,7 -3.87192,0 -7,-3.1281 -7,-7 0,-3.8719 3.12808,-7 7,-7 z" style="line-height:normal;text-indent:0;text-align:start;text-decoration-line:none;text-decoration-style:solid;text-decoration-color:#000;text-transform:none;block-progression:tb;white-space:normal;isolation:auto;mix-blend-mode:normal;solid-color:#000;solid-opacity:1" fill="#76391f" color="#000" enable-background="accumulate" font-family="sans-serif" font-weight="400" overflow="visible"/></g></svg>