<svg xmlns="http://www.w3.org/2000/svg" width="26.795" height="20.168" viewBox="0 0 26.795 20.168">
  <g id="dumbbell_1_" data-name="dumbbell (1)" transform="translate(0 0)">
    <g id="Group_212" data-name="Group 212" transform="translate(0.392 0.393)">
      <path id="Path_545" data-name="Path 545" d="M168.764,200.034v1.108a1.2,1.2,0,0,1-.274.763l-1.307,1.59v6.788a.413.413,0,0,1-.413.413h-6.223a.413.413,0,0,1-.413-.413v-6.788l-1.307-1.59a1.2,1.2,0,0,1-.274-.763v-3.113l6.025-.07a1.06,1.06,0,0,0,0,2.12Z" transform="translate(-150.653 -191.312)" fill="#ffe5c2"/>
      <g id="Group_210" data-name="Group 210" transform="translate(0 2.46)">
        <path id="Path_546" data-name="Path 546" d="M10.534,128.968H8.205a.705.705,0,0,1-.705-.705v-8.02a.705.705,0,0,1,.705-.705h2.329Z" transform="translate(-7.5 -119.451)" fill="#b5adb6"/>
        <path id="Path_547" data-name="Path 547" d="M446.824,128.968h2.329a.705.705,0,0,0,.705-.705v-8.02a.705.705,0,0,0-.705-.705h-2.329Z" transform="translate(-423.848 -119.451)" fill="#b5adb6"/>
        <g id="Group_206" data-name="Group 206" transform="translate(3.338 3.341)">
          <path id="Path_548" data-name="Path 548" d="M71.317,184.7v-2.921H90.756v2.966Z" transform="translate(-71.317 -181.779)" fill="#cbc4cc"/>
        </g>
        <g id="XMLID_421_" transform="translate(8.431)">
          <g id="Group_207" data-name="Group 207">
            <path id="Path_549" data-name="Path 549" d="M214.057,129.6v1.575a1.127,1.127,0,0,1-2.255,0V129.6a1.127,1.127,0,1,1,2.255,0Z" transform="translate(-209.548 -127.916)" fill="#fed2a4"/>
            <path id="Path_550" data-name="Path 550" d="M256.388,119.214v1.837a1.18,1.18,0,1,1-2.345,0v-1.837a1.25,1.25,0,0,1,1.172-1.315,1.11,1.11,0,0,1,.829.385A1.4,1.4,0,0,1,256.388,119.214Z" transform="translate(-249.58 -117.899)" fill="#fed2a4"/>
            <path id="Path_551" data-name="Path 551" d="M300.259,132.616v1.575a1.127,1.127,0,0,1-2.255,0v-1.575a1.127,1.127,0,1,1,2.255,0Z" transform="translate(-291.242 -130.778)" fill="#fed2a4"/>
            <path id="Path_552" data-name="Path 552" d="M170.956,135.636v1.259a1.127,1.127,0,1,1-2.254,0v-1.259a1.127,1.127,0,1,1,2.254,0Z" transform="translate(-168.702 -133.64)" fill="#fed2a4"/>
          </g>
        </g>
        <g id="XMLID_422_" transform="translate(8.431 0)">
          <g id="Group_208" data-name="Group 208">
            <path id="Path_553" data-name="Path 553" d="M212.719,131.17V129.6a1.128,1.128,0,0,1,.67-1.03,1.128,1.128,0,0,0-1.586,1.03v1.575a1.128,1.128,0,0,0,1.587,1.029A1.128,1.128,0,0,1,212.719,131.17Z" transform="translate(-209.549 -127.915)" fill="#ffbd86"/>
            <path id="Path_554" data-name="Path 554" d="M254.958,121.052v-1.837a1.327,1.327,0,0,1,.714-1.211,1.061,1.061,0,0,0-.458-.1,1.25,1.25,0,0,0-1.172,1.315v1.837a1.25,1.25,0,0,0,1.172,1.315,1.061,1.061,0,0,0,.458-.1,1.327,1.327,0,0,1-.714-1.211Z" transform="translate(-249.579 -117.9)" fill="#ffbd86"/>
            <path id="Path_555" data-name="Path 555" d="M298.92,134.189v-1.575a1.128,1.128,0,0,1,.671-1.03A1.128,1.128,0,0,0,298,132.614v1.575a1.126,1.126,0,0,0,1.585,1.029A1.127,1.127,0,0,1,298.92,134.189Z" transform="translate(-291.242 -130.776)" fill="#ffbd86"/>
            <path id="Path_556" data-name="Path 556" d="M169.619,136.893v-1.259a1.128,1.128,0,0,1,.671-1.03,1.128,1.128,0,0,0-1.586,1.03v1.259a1.128,1.128,0,0,0,1.587,1.029A1.128,1.128,0,0,1,169.619,136.893Z" transform="translate(-168.703 -133.639)" fill="#ffbd86"/>
          </g>
        </g>
        <g id="XMLID_420_" transform="translate(12.865 4.187)">
          <g id="Group_209" data-name="Group 209">
            <path id="Path_557" data-name="Path 557" d="M258.747,198.772v1.3l-4.185.011a1.06,1.06,0,0,1,0-2.12h3.373A.813.813,0,0,1,258.747,198.772Z" transform="translate(-253.502 -197.959)" fill="#ffe5c2"/>
          </g>
        </g>
      </g>
      <g id="Group_211" data-name="Group 211" transform="translate(2.354 0)">
        <path id="Path_558" data-name="Path 558" d="M54.827,85.376h-1.2a1.109,1.109,0,0,1-1.109-1.109v-12.3a1.109,1.109,0,0,1,1.109-1.109h1.2a1.109,1.109,0,0,1,1.109,1.109v12.3A1.109,1.109,0,0,1,54.827,85.376Z" transform="translate(-52.52 -70.853)" fill="#a79ba7"/>
        <path id="Path_559" data-name="Path 559" d="M395.6,85.376h1.2a1.109,1.109,0,0,0,1.109-1.109v-12.3a1.109,1.109,0,0,0-1.109-1.109h-1.2a1.109,1.109,0,0,0-1.109,1.109v12.3A1.109,1.109,0,0,0,395.6,85.376Z" transform="translate(-376.608 -70.853)" fill="#a79ba7"/>
      </g>
    </g>
    <g id="Group_213" data-name="Group 213" transform="translate(0 0)">
      <path id="Path_560" data-name="Path 560" d="M25.7,65.9H24.44V64.854a1.5,1.5,0,0,0-1.5-1.5h-1.2a1.5,1.5,0,0,0-1.5,1.5v4.3H18.232V68a1.518,1.518,0,0,0-2.4-1.235,1.519,1.519,0,0,0-2.7-.082,1.515,1.515,0,0,0-2.192.366A1.518,1.518,0,0,0,8.431,68.2v.953H6.556V68.046a.392.392,0,0,0-.784,0v9.112a.718.718,0,0,1-.717.717h-1.2a.718.718,0,0,1-.717-.717v-12.3a.718.718,0,0,1,.717-.717h1.2a.718.718,0,0,1,.717.717v1.521a.392.392,0,1,0,.784,0V64.854a1.5,1.5,0,0,0-1.5-1.5h-1.2a1.5,1.5,0,0,0-1.5,1.5V65.9H1.1A1.1,1.1,0,0,0,0,67v8.02a1.1,1.1,0,0,0,1.1,1.1H2.354v1.044a1.5,1.5,0,0,0,1.5,1.5h1.2a1.5,1.5,0,0,0,1.5-1.5v-4.3H7.9v.716a1.6,1.6,0,0,0,.363,1.012l1.218,1.481v7.061a.392.392,0,1,0,.784,0v-7.2a.392.392,0,0,0-.089-.249l-1.307-1.59a.81.81,0,0,1-.184-.513v-.716L16.1,72.9a.392.392,0,1,0,0-.784H14.317a.668.668,0,1,1,0-1.335H17.69a.421.421,0,0,1,.42.42v2.371a.81.81,0,0,1-.184.513l-1.307,1.59a.392.392,0,0,0-.089.249v1.035a.392.392,0,0,0,.784,0v-.894l1.218-1.481a1.6,1.6,0,0,0,.363-1.012v-.716h1.344v4.3a1.5,1.5,0,0,0,1.5,1.5h1.2a1.5,1.5,0,0,0,1.5-1.5V76.114H25.7a1.1,1.1,0,0,0,1.1-1.1V67A1.1,1.1,0,0,0,25.7,65.9ZM1.1,75.329a.314.314,0,0,1-.313-.313V67a.313.313,0,0,1,.313-.313H2.354v8.647Zm15.615-8.065a.736.736,0,0,1,.735.735v1.46a.734.734,0,0,1-.238.54h-.993a.734.734,0,0,1-.238-.54V68A.736.736,0,0,1,16.712,67.264Zm-2.989.153a.735.735,0,1,1,1.47,0v2.042a.734.734,0,0,1-.238.54h-.637a1.45,1.45,0,0,0-.315.035.731.731,0,0,1-.279-.575V67.417Zm-2.254.467a.735.735,0,0,1,1.47,0v1.575a.735.735,0,1,1-1.47,0ZM9.215,68.2a.735.735,0,1,1,1.47,0v1.259a.735.735,0,1,1-1.47,0Zm-2.66,1.737H8.508a1.518,1.518,0,0,0,2.569.539,1.513,1.513,0,0,0,2,.226,1.449,1.449,0,0,0-.068,1.371H6.556Zm12.339,2.136V71.2a1.207,1.207,0,0,0-.793-1.132q.029-.066.052-.134h2.085v2.136Zm7.115,2.942a.314.314,0,0,1-.313.313H24.44V74.2a.392.392,0,1,0-.784,0v2.962a.718.718,0,0,1-.717.717h-1.2a.718.718,0,0,1-.717-.717v-12.3a.718.718,0,0,1,.717-.717h1.2a.718.718,0,0,1,.717.717v7.67a.392.392,0,1,0,.784,0V66.683H25.7A.313.313,0,0,1,26.01,67Z" transform="translate(0 -63.352)"/>
      <path id="Path_561" data-name="Path 561" d="M316.456,348.04a.392.392,0,0,0-.392.392v4.5a.392.392,0,0,0,.784,0v-4.5A.392.392,0,0,0,316.456,348.04Z" transform="translate(-299.534 -333.151)"/>
    </g>
  </g>
</svg>
