<svg xmlns="http://www.w3.org/2000/svg" width="24.739" height="24.74" viewBox="0 0 24.739 24.74">
  <g id="customer-support_2_" data-name="customer-support (2)" transform="translate(0 0)">
    <g id="Group_217" data-name="Group 217" transform="translate(0 0)">
      <g id="Group_216" data-name="Group 216">
        <g id="filled_outline_33_">
          <path id="Path_622" data-name="Path 622" d="M302.812,298.7l-4.917-4.917-.206.206a.874.874,0,1,1-1.236-1.236h0l.206-.206-1.236-1.236-4.121,4.122,1.236,1.236.206-.206a.874.874,0,0,1,1.237,1.236l-.206.206,4.917,4.917a2.919,2.919,0,0,0,.491.392l4.023-4.023A2.922,2.922,0,0,0,302.812,298.7Z" transform="translate(-279.349 -279.357)" fill="#88b337"/>
          <path id="Path_623" data-name="Path 623" d="M487.375,483.362l-4.023,4.023a2.911,2.911,0,0,0,4.023-4.023Z" transform="translate(-463.52 -463.528)" fill="#dadddf"/>
          <path id="Path_624" data-name="Path 624" d="M15,13.361l-.412-1.649L11.7,10.064l-1.649,1.649L11.7,14.6l1.649.412,9.479,9.479,1.649-1.649Z" transform="translate(-9.642 -9.651)" fill="#cfd2d4"/>
          <path id="Path_625" data-name="Path 625" d="M32.6,13.455,29.854,16.2l-2.473-.824L26.556,12.9,29.3,10.158a4.515,4.515,0,0,0-5.491,5.491L14.464,25a4.559,4.559,0,1,0,3.3,3.3l9.348-9.348A4.517,4.517,0,0,0,32.6,13.455Zm-18,18H12.131L10.895,29.39l1.236-2.061H14.6l1.236,2.061Z" transform="translate(-8.422 -9.606)" fill="#dadddf"/>
          <path id="Path_626" data-name="Path 626" d="M554.108,484.932a2.908,2.908,0,0,0-.462-1.57l-1.187,1.187v3A2.912,2.912,0,0,0,554.108,484.932Z" transform="translate(-529.791 -463.528)" fill="#cfd2d4"/>
          <path id="Path_627" data-name="Path 627" d="M.1,2.349,1.751,5.234a.411.411,0,0,0,.258.2l1.538.385,5.276,5.276.583-.583L4.047,5.149a.411.411,0,0,0-.191-.108L2.377,4.669.974,2.212l1.2-1.2L4.636,2.413l.371,1.478a.413.413,0,0,0,.108.192l5.358,5.358.583-.583L5.781,3.582,5.4,2.045a.411.411,0,0,0-.2-.258L2.316.138A.412.412,0,0,0,1.821.2L.172,1.853A.412.412,0,0,0,.1,2.349Z" transform="translate(-0.048 -0.081)"/>
          <rect id="Rectangle_1169" data-name="Rectangle 1169" width="12.823" height="0.824" transform="translate(7.539 16.607) rotate(-45)"/>
          <path id="Path_628" data-name="Path 628" d="M54.712,422.089a.412.412,0,0,0-.353-.2H51.886a.412.412,0,0,0-.353.2L50.3,424.15a.413.413,0,0,0,0,.424l1.236,2.061a.412.412,0,0,0,.353.2h2.473a.412.412,0,0,0,.353-.2l1.236-2.061a.413.413,0,0,0,0-.424Zm-.586,3.922H52.12l-.989-1.649.989-1.649h2.006l.989,1.649Z" transform="translate(-48.177 -404.578)"/>
          <path id="Path_629" data-name="Path 629" d="M19.794,9.892a4.929,4.929,0,0,0,4.794-6.141.412.412,0,0,0-.691-.192L21.331,6.123,19.3,5.445,18.617,3.41,21.183.844a.412.412,0,0,0-.193-.692,4.93,4.93,0,0,0-6.141,4.795,4.842,4.842,0,0,0,.1.966L5.922,14.938a4.873,4.873,0,0,0-.966-.1A4.946,4.946,0,1,0,9.9,19.784a4.842,4.842,0,0,0-.1-.966l2.161-2.161.945.945a.412.412,0,0,0,.583,0L13.7,17.4a.462.462,0,0,1,.655.653h0l-.206.206a.412.412,0,0,0,0,.583l4.917,4.917a3.326,3.326,0,0,0,4.726-4.683l-.021-.021-4.917-4.917a.412.412,0,0,0-.583,0l-.206.206a.462.462,0,0,1-.655-.653h0l.206-.206a.412.412,0,0,0,0-.583l-.945-.945,2.161-2.161A4.873,4.873,0,0,0,19.794,9.892Zm1.619,14.013a2.5,2.5,0,0,1-.877-.16l3.219-3.219a2.5,2.5,0,0,1-2.342,3.379ZM16.744,13.194A1.286,1.286,0,0,0,18.558,15l4.625,4.629c.05.05.1.1.143.157L19.8,23.315c-.054-.045-.107-.092-.157-.143l-4.629-4.629A1.286,1.286,0,0,0,13.2,16.732l-.659-.659,3.542-3.537Zm1.664-4.145L9.059,18.4a.412.412,0,0,0-.109.392,4.149,4.149,0,1,1-3-3,.416.416,0,0,0,.392-.109l9.348-9.348a.413.413,0,0,0,.108-.392A4.1,4.1,0,0,1,20.028.832L17.854,3.006a.412.412,0,0,0-.1.422L18.579,5.9a.411.411,0,0,0,.261.26l2.473.824a.412.412,0,0,0,.422-.1l2.174-2.174c0,.079.007.157.007.234A4.1,4.1,0,0,1,18.8,8.94a.413.413,0,0,0-.392.108Z" transform="translate(-0.011 0)"/>
          <rect id="Rectangle_1170" data-name="Rectangle 1170" width="0.824" height="5.829" transform="translate(16.606 17.191) rotate(-45)"/>
        </g>
      </g>
    </g>
  </g>
</svg>
