<svg xmlns="http://www.w3.org/2000/svg" width="20.934" height="19.261" viewBox="0 0 20.934 19.261">
  <g id="Component" transform="translate(0 0.281)">
    <rect id="Rectangle_393" data-name="Rectangle 393" width="16" height="16" transform="translate(0 -0.281)" fill="none"/>
    <path id="Path_2" data-name="Path 2" d="M44.629,18.98A12.1,12.1,0,0,0,56.841,6.768V6.187a9.454,9.454,0,0,0,2.093-2.21,9.655,9.655,0,0,1-2.442.7,4.525,4.525,0,0,0,1.861-2.326A10.667,10.667,0,0,1,55.678,3.4,4.153,4.153,0,0,0,52.538,2a4.37,4.37,0,0,0-4.3,4.3,2.267,2.267,0,0,0,.116.93A12.024,12.024,0,0,1,39.512,2.7a4.454,4.454,0,0,0-.582,2.21,4.621,4.621,0,0,0,1.861,3.605,3.921,3.921,0,0,1-1.977-.582h0A4.25,4.25,0,0,0,42.3,12.118a3.585,3.585,0,0,1-1.163.116,1.979,1.979,0,0,1-.814-.116A4.406,4.406,0,0,0,44.4,15.142,8.781,8.781,0,0,1,39.047,17,3.22,3.22,0,0,1,38,16.887a10.978,10.978,0,0,0,6.629,2.093" transform="translate(-38 -0.001)" fill="rgba(255,255,255,0.78)" fill-rule="evenodd"/>
  </g>
</svg>
