<svg xmlns="http://www.w3.org/2000/svg" width="67.539" height="54.89" viewBox="0 0 67.539 54.89">
  <path id="twitter" d="M21.241,55.389c25.488,0,39.426-21.116,39.426-39.426q0-.9-.039-1.791A28.193,28.193,0,0,0,67.54,7a27.642,27.642,0,0,1-7.957,2.182,13.906,13.906,0,0,0,6.093-7.664,27.8,27.8,0,0,1-8.8,3.363A13.869,13.869,0,0,0,33.263,17.514,39.343,39.343,0,0,1,4.7,3.036a13.869,13.869,0,0,0,4.29,18.5A13.752,13.752,0,0,1,2.715,19.8c0,.058,0,.115,0,.177A13.861,13.861,0,0,0,13.83,33.563a13.838,13.838,0,0,1-6.259.238,13.872,13.872,0,0,0,12.945,9.624,27.8,27.8,0,0,1-17.21,5.931A28.254,28.254,0,0,1,0,49.165,39.226,39.226,0,0,0,21.241,55.39" transform="translate(0 -0.5)" fill="#1da1f2"/>
</svg>
