<svg xmlns="http://www.w3.org/2000/svg" width="53.97" height="58.928" viewBox="0 0 53.97 58.928">
  <g id="viber" transform="translate(-0.001 -0.001)">
    <path id="Path_416" data-name="Path 416" d="M54.8,34.1c1.756-14.785-.844-24.12-5.534-28.342l0,0C41.7-1.453,16.129-2.52,7.072,6.081,3,10.288,1.572,16.463,1.415,24.107s-.343,21.971,13,25.857h.012L14.419,55.9s-.091,2.4,1.445,2.887c1.756.569,2.551-.547,8.015-7.073a49.992,49.992,0,0,0,16.949-1.288c1.845-.618,12.283-2,13.971-16.323ZM24.779,47.537S19,54.747,17.2,56.619c-.589.608-1.234.552-1.224-.655,0-.792.044-9.852.044-9.852C4.7,42.869,5.369,30.672,5.492,24.291S6.782,12.68,10.226,9.16c7.946-7.45,30.361-5.785,36.072-.417,6.982,6.189,4.5,23.676,4.511,24.272C49.374,44.971,40.916,45.729,39.36,46.247a46.122,46.122,0,0,1-14.582,1.29Z" transform="translate(-1.379 0.014)" fill="#8e24aa"/>
    <path id="Path_417" data-name="Path 417" d="M12.642,4.3a.743.743,0,0,0,0,1.484C19.969,5.838,26,10.945,26.07,20.314a.718.718,0,1,0,1.435-.012h0c-.079-10.095-6.668-15.948-14.861-16Z" transform="translate(13.957 6.277)" fill="#8e24aa"/>
    <path id="Path_418" data-name="Path 418" d="M21.533,16.474a.718.718,0,1,0,1.435.034c.12-5.566-3.312-10.151-9.761-10.635a.745.745,0,0,0-.1,1.484c5.593.424,8.54,4.242,8.427,9.116Z" transform="translate(14.704 8.565)" fill="#8e24aa"/>
    <path id="Path_419" data-name="Path 419" d="M29.024,24.085a2.267,2.267,0,0,0-2.956.424L25,25.891a1.908,1.908,0,0,1-1.555.608c-7.394-1.955-9.371-9.693-9.371-9.693A2.062,2.062,0,0,1,14.66,15.2l1.335-1.1a2.458,2.458,0,0,0,.41-3.059,31.88,31.88,0,0,0-3.655-5.279,1.975,1.975,0,0,0-2.654-.449h-.022c-2.122,1.241-4.445,3.564-3.7,5.956C7.639,13.784,9.97,21.824,17.4,27.9a42.4,42.4,0,0,0,11.361,6.5l.022.034c2.311.77,4.558-1.644,5.758-3.829v-.017a2.1,2.1,0,0,0-.422-2.713,28.921,28.921,0,0,0-5.093-3.783Z" transform="translate(5.668 7.285)" fill="#8e24aa"/>
    <path id="Path_420" data-name="Path 420" d="M13.568,8.984c2.358.137,3.5,1.369,3.623,3.9a.719.719,0,1,0,1.435-.069c-.157-3.3-1.879-5.142-4.98-5.314a.744.744,0,0,0-.078,1.484Z" transform="translate(15.354 10.93)" fill="#8e24aa"/>
  </g>
</svg>
