<svg xmlns="http://www.w3.org/2000/svg" width="60.045" height="60.307" viewBox="0 0 60.045 60.307">
  <g id="whatsapp" transform="translate(0 0.001)">
    <path id="Path_408" data-name="Path 408" d="M1.283,60.306A1.283,1.283,0,0,1,.046,58.684L3.966,44.368A29.9,29.9,0,1,1,30.143,59.811H30.13a29.963,29.963,0,0,1-13.836-3.4L1.609,60.264a1.291,1.291,0,0,1-.325.042Zm0,0" transform="translate(0 0)" fill="#e5e5e5"/>
    <path id="Path_409" data-name="Path 409" d="M10.895,68.635l4.06-14.826a28.621,28.621,0,1,1,24.8,14.33h-.012a28.6,28.6,0,0,1-13.676-3.483Zm15.874-9.158.869.515a23.755,23.755,0,0,0,12.107,3.315h.009A23.785,23.785,0,1,0,19.6,52.162l.566.9-2.4,8.775Zm0,0" transform="translate(-9.611 -9.612)" fill="#fff"/>
    <path id="Path_410" data-name="Path 410" d="M19.344,75.124l3.92-14.313A27.629,27.629,0,1,1,47.2,74.645h-.012a27.624,27.624,0,0,1-13.2-3.362Zm0,0" transform="translate(-17.065 -17.101)" fill="#64b161"/>
    <g id="Group_166" data-name="Group 166" transform="translate(1.283 1.283)">
      <path id="Path_411" data-name="Path 411" d="M10.895,68.635l4.06-14.826a28.621,28.621,0,1,1,24.8,14.33h-.012a28.6,28.6,0,0,1-13.676-3.483Zm15.874-9.158.869.515a23.755,23.755,0,0,0,12.107,3.315h.009A23.785,23.785,0,1,0,19.6,52.162l.566.9-2.4,8.775Zm0,0" transform="translate(-10.895 -10.895)" fill="#fff"/>
      <path id="Path_412" data-name="Path 412" d="M139.835,142.866c-.536-1.191-1.1-1.215-1.609-1.235-.417-.018-.894-.017-1.37-.017a2.628,2.628,0,0,0-1.907.895,8.016,8.016,0,0,0-2.5,5.964c0,3.519,2.563,6.919,2.92,7.4s4.947,7.928,12.215,10.794c6.041,2.382,7.27,1.909,8.581,1.789s4.231-1.73,4.826-3.4a5.971,5.971,0,0,0,.417-3.4c-.179-.3-.656-.477-1.371-.834s-4.231-2.088-4.886-2.326-1.132-.357-1.609.358-1.846,2.325-2.264,2.8-.835.538-1.55.18a19.553,19.553,0,0,1-5.75-3.549A21.546,21.546,0,0,1,140,153.331c-.417-.715-.007-1.068.314-1.459a21.564,21.564,0,0,0,1.787-2.445,1.318,1.318,0,0,0-.059-1.253C141.861,147.816,140.471,144.28,139.835,142.866Zm0,0" transform="translate(-118.129 -126.216)" fill="#fff" fill-rule="evenodd"/>
    </g>
  </g>
</svg>
