<svg xmlns="http://www.w3.org/2000/svg" width="20.642" height="25.957" viewBox="0 0 20.642 25.957">
  <g id="cat" transform="translate(0 0)">
    <path id="Path_576" data-name="Path 576" d="M244.333,144.383c.067,1.314,1.751,3.354,1.555,5.957a8.682,8.682,0,0,1-3.52,6.587c.009.129.014.248.014.356a2.639,2.639,0,0,1-2.258,2.694s8.036-1.75,8.038-10.326c0-8.749-3.917-6.993-3.83-5.267Zm0,0" transform="translate(-227.952 -135.723)" fill="#ffdca7"/>
    <path id="Path_577" data-name="Path 577" d="M243.61,397.7a6.329,6.329,0,0,1-1.241,1.041c.009.129.014.248.014.356a2.639,2.639,0,0,1-2.258,2.694,11.365,11.365,0,0,0,3.4-1.514,2.865,2.865,0,0,0,.226-1.179A9.453,9.453,0,0,0,243.61,397.7Zm0,0" transform="translate(-227.951 -377.537)" fill="#ffcf86"/>
    <path id="Path_578" data-name="Path 578" d="M32.868,11.284s1.063-2.725,1.975-2.537.745,3.266.745,3.266,1.909,2.93,1.847,4.615a3.047,3.047,0,0,1-2.217,3.014s2.349,7.8,2.349,10.213-2.16,3.129-6.6,3.129-6.6-.716-6.6-3.129S26.72,19.642,26.72,19.642A3.047,3.047,0,0,1,24.5,16.627c-.062-1.686,1.847-4.615,1.847-4.615s-.179-3.075.744-3.266,1.975,2.537,1.975,2.537Zm0,0" transform="translate(-23.135 -8.295)" fill="#ffe9c8"/>
    <path id="Path_579" data-name="Path 579" d="M30.97,412.786c-4.04,0-6.192-.593-6.546-2.521a6.786,6.786,0,0,0-.052.76c0,2.414,2.16,3.129,6.6,3.129s6.6-.716,6.6-3.129a6.79,6.79,0,0,0-.052-.76c-.353,1.927-2.505,2.521-6.546,2.521Zm0,0" transform="translate(-23.136 -389.466)" fill="#ffdca7"/>
    <path id="Path_580" data-name="Path 580" d="M29.54,8.747c-.924.191-.744,3.266-.744,3.266s-1.909,2.93-1.847,4.615a3.457,3.457,0,0,0,.8,2.149c5.367-1.2,4.895-7.493,4.895-7.493h-1.13S30.452,8.558,29.54,8.747Zm0,0" transform="translate(-25.582 -8.295)" fill="#ffae8b"/>
    <path id="Path_581" data-name="Path 581" d="M172.6,8.747c.924.191.745,3.266.745,3.266s1.909,2.93,1.847,4.615a3.457,3.457,0,0,1-.8,2.149c-5.367-1.2-4.895-7.493-4.895-7.493h1.13s1.063-2.725,1.975-2.537Zm0,0" transform="translate(-160.887 -8.295)" fill="#ffae8b"/>
    <path id="Path_582" data-name="Path 582" d="M75.531,309.281s.371,9.835,1.786,9.835,1.449-8.867,1.449-8.867" transform="translate(-71.702 -293.602)" fill="#ffe9c8"/>
    <path id="Path_583" data-name="Path 583" d="M172.923,309.281s-.371,9.835-1.786,9.835-1.449-8.867-1.449-8.867" transform="translate(-161.085 -293.602)" fill="#ffe9c8"/>
    <path id="Path_584" data-name="Path 584" d="M77.3,118.17a.794.794,0,1,0-.776.963A.875.875,0,0,0,77.3,118.17Zm0,0" transform="translate(-71.91 -111.265)"/>
    <path id="Path_585" data-name="Path 585" d="M203.774,118.17a.794.794,0,1,0-.775.963A.875.875,0,0,0,203.774,118.17Zm0,0" transform="translate(-191.971 -111.265)"/>
    <path id="Path_586" data-name="Path 586" d="M132.3,143.907a.382.382,0,0,0,.382-.382v-.857a.988.988,0,0,0,.792-.829c0-.133-.051-.455-.526-.567a4.009,4.009,0,0,0-1.3,0c-.475.112-.526.434-.526.567a.988.988,0,0,0,.792.829v.857A.382.382,0,0,0,132.3,143.907Zm0,0" transform="translate(-124.481 -134.06)"/>
    <path id="Path_587" data-name="Path 587" d="M316.766,138.664a8.477,8.477,0,0,1,.943,3.988,9.829,9.829,0,0,1-.95,3.508.382.382,0,1,0,.686.336,10.616,10.616,0,0,0,1.025-3.787,9.093,9.093,0,0,0-1-4.347,5.841,5.841,0,0,1-.559-1.686,1.033,1.033,0,0,1,.847-1.007c.275-.043,1.22-.013,1.81,2.2a.382.382,0,1,0,.738-.2,4.73,4.73,0,0,0-1.144-2.221,1.743,1.743,0,0,0-3.014,1.266,6.215,6.215,0,0,0,.62,1.949Zm0,0" transform="translate(-300.116 -128.057)"/>
    <path id="Path_588" data-name="Path 588" d="M20.642,13.931a21.87,21.87,0,0,0-.158-2.766.382.382,0,0,0-.758.1,21.116,21.116,0,0,1,.152,2.668,10.412,10.412,0,0,1-1.205,5.055,9.558,9.558,0,0,1-2.654,3.039,11.218,11.218,0,0,1-1.447.926,3.253,3.253,0,0,0,.263-1.351c0-.051,0-.1,0-.16a7.07,7.07,0,0,0,1.642-1.593.382.382,0,0,0-.611-.459,6.487,6.487,0,0,1-1.114,1.161,79.591,79.591,0,0,0-2.18-8.951A3.256,3.256,0,0,0,14.283,10l.544.3a.382.382,0,0,0,.365-.672l-.634-.344a4.21,4.21,0,0,0,.14-.893l.628-.107a.382.382,0,1,0-.129-.753l-.554.094A13.77,13.77,0,0,0,12.85,3.57a12.446,12.446,0,0,0-.033-1.5C12.705.809,12.37.137,11.792.018S10.655.354,10.049,1.4a11.334,11.334,0,0,0-.573,1.155H6.169A11.334,11.334,0,0,0,5.6,1.4C4.989.354,4.419-.1,3.852.018S2.939.809,2.826,2.071a12.393,12.393,0,0,0-.032,1.5A13.77,13.77,0,0,0,1,7.621L.447,7.526a.382.382,0,1,0-.129.753l.628.107a4.223,4.223,0,0,0,.14.893l-.634.344a.382.382,0,0,0,.365.672l.544-.3a3.255,3.255,0,0,0,1.716,1.6c-.109.37-.29.991-.5,1.747a.382.382,0,0,0,.736.206c.343-1.227.6-2.095.607-2.1a.386.386,0,0,0-.294-.485A2.672,2.672,0,0,1,1.707,8.3a6.543,6.543,0,0,1,.861-2.762A18.521,18.521,0,0,1,3.5,3.882a.382.382,0,0,0,.061-.231,11.837,11.837,0,0,1,.025-1.512c.1-1.075.335-1.355.419-1.372S4.419.9,4.93,1.78a10.9,10.9,0,0,1,.628,1.3.382.382,0,0,0,.356.243H9.731a.382.382,0,0,0,.356-.243,10.859,10.859,0,0,1,.624-1.293c.513-.888.844-1.038.927-1.02s.322.3.418,1.365a11.81,11.81,0,0,1,.026,1.52.383.383,0,0,0,.061.231,18.509,18.509,0,0,1,.933,1.652A6.538,6.538,0,0,1,13.937,8.3a2.672,2.672,0,0,1-1.918,2.668.386.386,0,0,0-.294.486c.024.078,2.344,7.809,2.344,10.151a2.056,2.056,0,0,1-.766,1.753,4.55,4.55,0,0,1-2,.768,26.6,26.6,0,0,0,.559-3.446c.269-2.456.365-4.944.366-4.968a.382.382,0,1,0-.764-.029c0,.023-.09,2.326-.336,4.672a29.565,29.565,0,0,1-.5,3.31c-.272,1.2-.512,1.468-.581,1.524-.1-.077-.6-.634-.893-4.306-.166-2.114-.176-4.193-.176-4.214a.382.382,0,0,0-.382-.381h0a.382.382,0,0,0-.38.383c0,.023.01,2.268.2,4.485a21.482,21.482,0,0,0,.443,3.121l.018.074c-.328.01-.674.015-1.049.015s-.721-.005-1.049-.015l.018-.074a21.477,21.477,0,0,0,.443-3.121c.185-2.217.2-4.462.2-4.485a.382.382,0,0,0-.381-.383h0a.382.382,0,0,0-.382.381c0,.021-.01,2.1-.176,4.21C6.2,24.55,5.7,25.107,5.6,25.184a1.532,1.532,0,0,1-.344-.664.384.384,0,0,0-.032-.1c-.065-.2-.134-.45-.205-.764a29.565,29.565,0,0,1-.5-3.31C4.27,18,4.181,15.7,4.18,15.678a.382.382,0,1,0-.764.029c0,.025.1,2.513.366,4.968a26.584,26.584,0,0,0,.559,3.446,4.555,4.555,0,0,1-2-.765,2.056,2.056,0,0,1-.77-1.755,34.112,34.112,0,0,1,1.336-6.581.382.382,0,0,0-.738-.2A33.924,33.924,0,0,0,.81,21.6a2.8,2.8,0,0,0,1.061,2.356,5.723,5.723,0,0,0,2.72.98c.216.562.525,1.02,1,1.02.448,0,.739-.386.937-.853.4.015.825.023,1.292.023s.892-.008,1.292-.023c.2.467.489.853.937.853.476,0,.785-.458,1-1.02a9.182,9.182,0,0,0,1.205-.255c.168-.035,8.383-1.907,8.385-10.751Zm0,0" transform="translate(-0.001 0)"/>
  </g>
</svg>
