<svg xmlns="http://www.w3.org/2000/svg" width="18.621" height="18.556" viewBox="0 0 18.621 18.556">
  <g id="moon_1_" data-name="moon (1)" transform="translate(0 0)">
    <g id="Group_177" data-name="Group 177" transform="translate(0 0)">
      <path id="Path_443" data-name="Path 443" d="M18.181,11.107a.654.654,0,0,0-.547.119,6.982,6.982,0,0,1-2.118,1.237,6.632,6.632,0,0,1-2.4.428,6.987,6.987,0,0,1-7-7A7.334,7.334,0,0,1,6.5,3.587,6.39,6.39,0,0,1,7.639,1.54a.607.607,0,0,0-.1-.857A.654.654,0,0,0,7,.565,9.6,9.6,0,0,0,1.951,3.944a9.42,9.42,0,1,0,16.634,7.924A.564.564,0,0,0,18.181,11.107ZM14.54,16.08A8.191,8.191,0,0,1,1.285,9.655a8.047,8.047,0,0,1,1.69-4.973A8.181,8.181,0,0,1,5.711,2.4a8.22,8.22,0,0,0-.333.809,7.918,7.918,0,0,0-.452,2.713,8.206,8.206,0,0,0,8.21,8.21,7.967,7.967,0,0,0,2.832-.5c.309-.119.619-.238.9-.381A8.658,8.658,0,0,1,14.54,16.08Z" transform="translate(0 -0.546)"/>
    </g>
  </g>
</svg>
