<svg xmlns="http://www.w3.org/2000/svg" width="35.161" height="32.219" viewBox="0 0 35.161 32.219">
  <g id="family_1_" data-name="family (1)" transform="translate(0 0)">
    <path id="Path_748" data-name="Path 748" d="M288.768,63.2h0a6.473,6.473,0,0,1,6.473,6.473h0a66.772,66.772,0,0,0,.588,8.239,20.786,20.786,0,0,1-7.062,2.354,20.786,20.786,0,0,1-7.062-2.354,66.769,66.769,0,0,0,.588-8.239h0a6.473,6.473,0,0,1,6.473-6.473Z" transform="translate(-262.36 -60.327)" fill="#d59f63"/>
    <path id="Path_749" data-name="Path 749" d="M286.414,69.082V67.316a4.12,4.12,0,0,1,3.317-4.04,6.49,6.49,0,0,0-.963-.079h0a6.473,6.473,0,0,0-6.473,6.473,66.769,66.769,0,0,1-.588,8.239,20.786,20.786,0,0,0,7.062,2.354V71.435Z" transform="translate(-262.36 -60.328)" fill="#cd915a"/>
    <path id="Path_750" data-name="Path 750" d="M279.937,273.7l-4.035-1.614a1.177,1.177,0,0,1-.74-1.093v-2.145h-4.708V271a1.177,1.177,0,0,1-.74,1.093L265.68,273.7a1.765,1.765,0,0,0-1.11,1.639v2.336a.588.588,0,0,0,.588.589h0v5.3h15.3v-5.3h.589v-2.924A1.766,1.766,0,0,0,279.937,273.7Z" transform="translate(-246.401 -251.859)" fill="#fad7a5"/>
    <g id="Group_252" data-name="Group 252" transform="translate(18.757 16.992)">
      <path id="Path_751" data-name="Path 751" d="M351.793,271.793a7.032,7.032,0,0,0,2.414-.432,1.172,1.172,0,0,1-.06-.364v-2.145h-4.708V271a1.167,1.167,0,0,1-.06.364A7.032,7.032,0,0,0,351.793,271.793Z" transform="translate(-344.143 -268.851)" fill="#f0c891"/>
      <path id="Path_752" data-name="Path 752" d="M273.138,397.386v1.765h.588a.588.588,0,0,1,.588.588v3.531h1.765v-5.885Z" transform="translate(-273.138 -388.559)" fill="#f0c891"/>
    </g>
    <path id="Path_753" data-name="Path 753" d="M320.691,153.632h0c-2.925,0-4.708-2.371-4.708-5.3v-2.354c1.693,0,1.884-1.218,2.189-1.9a.347.347,0,0,1,.528-.137c2.493,1.881,7.287.474,7.287,4.393h0A5.3,5.3,0,0,1,320.691,153.632Z" transform="translate(-294.283 -135.463)" fill="#ffe1b4"/>
    <path id="Path_754" data-name="Path 754" d="M318.337,148.947v-4.418a.338.338,0,0,0-.165.163c-.3.684-.5,1.9-2.189,1.9v2.166c0,2.432.978,4.654,3.325,5.3a5.206,5.206,0,0,0,2.854-.023A5.3,5.3,0,0,1,318.337,148.947Z" transform="translate(-294.283 -136.075)" fill="#fad098"/>
    <path id="Path_755" data-name="Path 755" d="M279.937,325.891l-2.51-1a4.706,4.706,0,0,1-9.237,0l-2.51,1a1.765,1.765,0,0,0-1.11,1.639v8.22H278.1v-5.3h2.942V327.53A1.766,1.766,0,0,0,279.937,325.891Z" transform="translate(-246.401 -304.047)" fill="#ff507d"/>
    <g id="Group_253" data-name="Group 253" transform="translate(20.134 20.84)">
      <path id="Path_756" data-name="Path 756" d="M461.654,352.545l2.674-2.674a1.759,1.759,0,0,1,.268.927v2.924h-2.942v-1.177Z" transform="translate(-450.084 -348.155)" fill="#d23c69"/>
      <path id="Path_757" data-name="Path 757" d="M304.07,324.888a4.706,4.706,0,0,1-9.237,0l-1.655.662a6.465,6.465,0,0,0,12.548,0Z" transform="translate(-293.177 -324.888)" fill="#d23c69"/>
    </g>
    <rect id="Rectangle_1171" data-name="Rectangle 1171" width="3.531" height="6.473" transform="translate(1.104 25.23)" fill="#b48764"/>
    <path id="Path_758" data-name="Path 758" d="M23.853,261.693l-5.172-1.411H13.973L8.8,261.693a1.765,1.765,0,0,0-1.3,1.7v5.713h3.531v6.473H25.154V263.4A1.765,1.765,0,0,0,23.853,261.693Z" transform="translate(-6.985 -243.879)" fill="#00aaf0"/>
    <path id="Path_759" data-name="Path 759" d="M70.315,261.067l-2.878-.785H62.73l-2.878.785a5.289,5.289,0,0,0,10.463,0Z" transform="translate(-55.742 -243.879)" fill="#0096dc"/>
    <path id="Path_760" data-name="Path 760" d="M93.19,230.291v2.06a2.942,2.942,0,1,0,5.885,0v-2.06Z" transform="translate(-86.79 -215.947)" fill="#b48764"/>
    <path id="Path_761" data-name="Path 761" d="M93.19,232.291a7,7,0,0,0,5.885,0v-2H93.19Z" transform="translate(-86.79 -215.947)" fill="#966d50"/>
    <path id="Path_762" data-name="Path 762" d="M53.545,83.865V80.334H42.953v3.531a1.177,1.177,0,1,0,0,2.354,5.3,5.3,0,1,0,10.592,0,1.177,1.177,0,1,0,0-2.354Z" transform="translate(-38.907 -76.288)" fill="#c39772"/>
    <path id="Path_763" data-name="Path 763" d="M45.9,86.219V80.334H42.953v3.531a1.177,1.177,0,1,0,0,2.354A5.287,5.287,0,0,0,49.72,91.3,5.3,5.3,0,0,1,45.9,86.219Z" transform="translate(-38.907 -76.288)" fill="#b48764"/>
    <path id="Path_764" data-name="Path 764" d="M60.812,36.229a1.149,1.149,0,0,1,1.3-.084V32.451a2.344,2.344,0,0,0-1.2-2.043,1.761,1.761,0,0,0-1.737-1.488H54.464a4.119,4.119,0,0,0-4.119,4.119v3.106a1.165,1.165,0,0,1,.588-.163,1.139,1.139,0,0,1,.221.021,1.088,1.088,0,0,0,1.29-.77h0l.145-.579a.585.585,0,0,1,.552-.445c1.226-.033,4.7-.211,6.619-1.169l.343,2.056A1.756,1.756,0,0,0,60.812,36.229Z" transform="translate(-46.888 -28.405)" fill="#64463c"/>
    <path id="Path_765" data-name="Path 765" d="M53.876,32.451a3.531,3.531,0,0,1,3.531-3.531H54.464a4.119,4.119,0,0,0-4.119,4.119v3.106a1.165,1.165,0,0,1,.588-.163,1.135,1.135,0,0,1,.509.12.627.627,0,0,0,.9-.443l.251-1a.585.585,0,0,1,.552-.445c.193-.005.445-.014.735-.029V32.451Z" transform="translate(-46.888 -28.405)" fill="#553732"/>
    <path id="Path_766" data-name="Path 766" d="M7.5,289.639v5.713h3.531v-1.933a2.942,2.942,0,0,0-.62-1.806L7.959,288.46A1.758,1.758,0,0,0,7.5,289.639Z" transform="translate(-6.985 -270.122)" fill="#0096dc"/>
    <path id="Path_767" data-name="Path 767" d="M196.833,399.926l-1.921-.64a.588.588,0,0,1-.4-.558v-1.341h-3.531v1.341a.588.588,0,0,1-.4.558l-1.921.64a1.765,1.765,0,0,0-1.207,1.675v1.67H198.04V401.6A1.765,1.765,0,0,0,196.833,399.926Z" transform="translate(-174.575 -371.567)" fill="#e6af78"/>
    <path id="Path_768" data-name="Path 768" d="M234.454,399.74a5.863,5.863,0,0,0,2.22-.437l-.053-.018a.588.588,0,0,1-.4-.558v-1.341h-3.531v1.341a.588.588,0,0,1-.4.558l-.053.018A5.864,5.864,0,0,0,234.454,399.74Z" transform="translate(-216.285 -371.567)" fill="#d29b6e"/>
    <path id="Path_769" data-name="Path 769" d="M192.744,217.438h0a5.3,5.3,0,0,0-5.3,5.3V224.5H198.04v-1.765A5.3,5.3,0,0,0,192.744,217.438Z" transform="translate(-174.575 -203.977)" fill="#64463c"/>
    <path id="Path_770" data-name="Path 770" d="M194.51,217.746a5.285,5.285,0,0,0-7.062,4.988V224.5h3.531v-1.765A5.294,5.294,0,0,1,194.51,217.746Z" transform="translate(-174.575 -203.977)" fill="#553732"/>
    <path id="Path_771" data-name="Path 771" d="M189.448,281.843h-.041a1.112,1.112,0,0,1-1.112-1.112h0a.457.457,0,0,0-.61-.431,23.411,23.411,0,0,1-7.04,1.543h-.564a1.192,1.192,0,0,0-1.189,1.006,1.177,1.177,0,0,0,1.165,1.348h.588v.527a4.119,4.119,0,1,0,8.239.062V284.2h.588a1.178,1.178,0,0,0,1.165-1.348A1.192,1.192,0,0,0,189.448,281.843Z" transform="translate(-166.596 -262.498)" fill="#f0c087"/>
    <path id="Path_772" data-name="Path 772" d="M220.217,200.3l-3.531,1.513-3.531-1.513v3.531l3.531-1.513,3.531,1.513Z" transform="translate(-198.517 -188.016)" fill="#ffdc64"/>
    <path id="Path_773" data-name="Path 773" d="M183,302.734v-3.188a15.48,15.48,0,0,1-2.354.246h-.588a1.177,1.177,0,1,0,0,2.354h.588v.416a4.234,4.234,0,0,0,3.993,4.29,4.123,4.123,0,0,0,1.3-.171A4.119,4.119,0,0,1,183,302.734Z" transform="translate(-166.595 -280.446)" fill="#e6af78"/>
    <path id="Path_774" data-name="Path 774" d="M196.833,430.034l-.96-.32a3.528,3.528,0,0,1-6.259,0l-.96.32a1.765,1.765,0,0,0-1.207,1.675v1.67H198.04v-1.67A1.765,1.765,0,0,0,196.833,430.034Z" transform="translate(-174.575 -401.675)" fill="#ffdc64"/>
    <path id="Path_775" data-name="Path 775" d="M113.089,185.849a2.037,2.037,0,0,0,1.577-.779.515.515,0,1,0-.8-.649.958.958,0,0,1-1.554,0,.515.515,0,1,0-.8.649A2.037,2.037,0,0,0,113.089,185.849Z" transform="translate(-103.747 -173.05)"/>
    <path id="Path_778" data-name="Path 778" d="M361.59,228.693a2.037,2.037,0,0,0,1.577-.779.515.515,0,1,0-.8-.649.958.958,0,0,1-1.554,0,.515.515,0,1,0-.8.649A2.037,2.037,0,0,0,361.59,228.693Z" transform="translate(-335.182 -212.952)"/>
    <path id="Path_781" data-name="Path 781" d="M33.727,42.786l-4.035-1.614a.675.675,0,0,1-.062-.031A10.658,10.658,0,0,0,33.8,39.4a.515.515,0,0,0,.183-.471,66.725,66.725,0,0,1-.583-8.166,6.988,6.988,0,1,0-13.976,0c0,1.056-.048,2.347-.126,3.57l-1.124.562-3.3-1.65-.029-.012a5.77,5.77,0,0,0,.3-1.441,1.691,1.691,0,0,0,.6-2.9V25.466A2.866,2.866,0,0,0,14.479,23.1a2.264,2.264,0,0,0-2.195-1.681H7.576a4.64,4.64,0,0,0-4.634,4.634v2.838a1.691,1.691,0,0,0,.6,2.9,5.809,5.809,0,0,0,2.337,4.226V37.44L1.625,38.718A2.266,2.266,0,0,0,0,40.9v5.748a.515.515,0,0,0,.515.515H.588v5.958a.515.515,0,1,0,1.03,0V47.166H3.531v5.958a.515.515,0,1,0,1.03,0V44.243a2.273,2.273,0,0,0-.383-1.265L3.3,41.657a.515.515,0,1,0-.857.571l.88,1.321a1.246,1.246,0,0,1,.21.694v1.893H1.03V40.9a1.243,1.243,0,0,1,.891-1.2l1.768-.53A5.812,5.812,0,0,0,12.1,42.941a1.69,1.69,0,0,0,1.365.694h.073v.073a4.636,4.636,0,0,0,2.354,4.032v.84a.073.073,0,0,1-.05.07l-1.921.64a2.278,2.278,0,0,0-1.559,2.163v1.67a.515.515,0,1,0,1.03,0v-1.67a1.249,1.249,0,0,1,.855-1.186l.565-.188a4.046,4.046,0,0,0,6.722,0l.565.188a1.249,1.249,0,0,1,.855,1.186v1.67a.515.515,0,0,0,1.03,0v-1.67a2.277,2.277,0,0,0-1.559-2.163L20.5,48.65a.073.073,0,0,1-.05-.07v-.84a4.653,4.653,0,0,0,2.181-2.78,5.222,5.222,0,0,0,8.749-2l1.966.786a1.244,1.244,0,0,1,.786,1.161v2.409H32.218v-.662a.515.515,0,1,0-1.03,0v6.473a.515.515,0,1,0,1.03,0V48.343h1.324v4.781a.515.515,0,1,0,1.03,0V48.343h.073a.515.515,0,0,0,.515-.515V44.9A2.269,2.269,0,0,0,33.727,42.786ZM20.449,30.762a5.958,5.958,0,1,1,11.916,0,67.623,67.623,0,0,0,.552,8,11.026,11.026,0,0,1-3.641,1.4v-.82a5.766,5.766,0,0,0,.782-.531,5.8,5.8,0,0,0,2.161-4.522c0-2.911-2.105-3.329-4.141-3.733a8.262,8.262,0,0,1-3.7-1.377.515.515,0,0,0-.837.4c0,.014-.022,1.369-1.964,1.854a.515.515,0,0,0,.25,1,3.408,3.408,0,0,0,2.558-2,10.787,10.787,0,0,0,3.494,1.134c2.176.432,3.312.749,3.312,2.723a4.768,4.768,0,0,1-1.778,3.72,4.78,4.78,0,0,1-5.786.167,5.82,5.82,0,0,0-1.41-2.173V33.7a.515.515,0,0,0-.745-.461l-1.112.556C20.418,32.727,20.449,31.707,20.449,30.762Zm.735,3.776V36.4l-1.864-.932Zm-6.031,0,1.864.932-1.864.932Zm-1.03,1.469a5.819,5.819,0,0,0-1.327,1.96c0-.048,0-.1,0-.143V36.017a5.858,5.858,0,0,0,1.324-1.369ZM4.561,31.351a.515.515,0,0,0-.515-.515.662.662,0,1,1,0-1.324H5.223a.515.515,0,0,0,.489-.352l.473-1.418c1.184-.027,4.853-.193,6.919-1.226a.515.515,0,1,0-.461-.921c-2.217,1.108-6.785,1.123-6.831,1.123a.515.515,0,0,0-.489.352l-.471,1.413H4.046l-.073,0V26.054a3.608,3.608,0,0,1,3.6-3.6h4.708A1.241,1.241,0,0,1,13.513,23.5a.515.515,0,0,0,.256.368,1.839,1.839,0,0,1,.943,1.594v3.018l-.073,0H14.05a.515.515,0,0,0,0,1.03h.588a.662.662,0,1,1,0,1.324.515.515,0,0,0-.515.515,4.781,4.781,0,0,1-9.562,0Zm4.781,5.811a5.777,5.777,0,0,0,2.427-.532v1.194a2.427,2.427,0,0,1-4.854.007s0,0,0-.007V36.63A5.774,5.774,0,0,0,9.342,37.162ZM4.678,38.878,5.951,38.5a3.456,3.456,0,0,0,6.457.923,5.792,5.792,0,0,0-.05.758v.489a1.692,1.692,0,0,0-.588,1.276,4.781,4.781,0,0,1-7.091-3.065Zm15.5,10.749.329.11a3.013,3.013,0,0,1-4.667,0l.328-.109a1.1,1.1,0,0,0,.755-1.047V48.17a4.61,4.61,0,0,0,2.5,0v.411A1.1,1.1,0,0,0,20.174,49.627Zm-2-2.315a3.608,3.608,0,0,1-3.6-3.6V43.12a.515.515,0,0,0-.515-.515h-.588a.663.663,0,0,1-.662-.662.654.654,0,0,1,.332-.569.512.512,0,0,0,.122-.1c1.273-.037,5.4-.276,8.113-1.827a.515.515,0,0,0-.511-.894c-2.376,1.358-6.11,1.63-7.468,1.684v-.06A4.786,4.786,0,0,1,14.2,37.51a.514.514,0,0,0,.665.186l3.3-1.65,3.3,1.65a.512.512,0,0,0,.665-.186,4.786,4.786,0,0,1,.816,2.668v.752a.515.515,0,0,0,.256.445.654.654,0,0,1,.333.569.663.663,0,0,1-.662.662h-.588a.515.515,0,0,0-.515.515v.512s0,.009,0,.013v.063A3.608,3.608,0,0,1,18.169,47.312Zm8.239-1.765a4.2,4.2,0,0,1-3.519-1.912,1.687,1.687,0,0,0,1.092-2.968v-.489a5.791,5.791,0,0,0-.033-.618,5.807,5.807,0,0,0,4.3.244v.754a1.684,1.684,0,0,0,1.064,1.571l1.111.444A4.19,4.19,0,0,1,26.407,45.547Z" transform="translate(0 -21.42)"/>
    <path id="Path_782" data-name="Path 782" d="M243.125,355.725a.515.515,0,0,0-.724.076.957.957,0,0,1-1.554,0,.515.515,0,1,0-.8.649,1.986,1.986,0,0,0,3.154,0A.515.515,0,0,0,243.125,355.725Z" transform="translate(-223.455 -332.66)"/>
  </g>
</svg>
