<svg xmlns="http://www.w3.org/2000/svg" width="24.984" height="22.896" viewBox="0 0 24.984 22.896">
  <g id="armchair" transform="translate(0 0)">
    <path id="Path_529" data-name="Path 529" d="M15.828,8h6.661a5.828,5.828,0,0,1,5.828,5.828v7.077H10V13.828A5.828,5.828,0,0,1,15.828,8Z" transform="translate(-6.667 -7.583)" fill="#d69c7a"/>
    <path id="Path_530" data-name="Path 530" d="M27.116,28.105a2.5,2.5,0,0,1-2.053,2.844v5.866a.833.833,0,0,1-.833.833H5.914a.833.833,0,0,1-.833-.833V30.949A2.5,2.5,0,1,1,8,28.489v5H22.149v-5a2.5,2.5,0,0,1,4.967-.384Z" transform="translate(-2.58 -18.081)" fill="#7e543b"/>
    <g id="Group_204" data-name="Group 204" transform="translate(3.75 12.073)">
      <path id="Path_531" data-name="Path 531" d="M12.249,56.914H11V54h2.081Z" transform="translate(-11 -46.507)" fill="#d18b61"/>
      <path id="Path_532" data-name="Path 532" d="M48.833,56.914h1.249V54H48Z" transform="translate(-32.597 -46.507)" fill="#d18b61"/>
      <path id="Path_533" data-name="Path 533" d="M15.833,36H28.321a.833.833,0,0,1,.833.833v2.5H15v-2.5A.833.833,0,0,1,15.833,36Z" transform="translate(-13.335 -36)" fill="#d18b61"/>
    </g>
    <path id="Path_534" data-name="Path 534" d="M26.94,16.962a2.946,2.946,0,0,0-2.519-2.448,3.514,3.514,0,0,0-.362-.017V13.244A6.252,6.252,0,0,0,17.814,7H11.154a6.252,6.252,0,0,0-6.244,6.244V14.5a3.514,3.514,0,0,0-.362.017,2.946,2.946,0,0,0-2.519,2.448A2.893,2.893,0,0,0,4.077,20.2v5.537a1.253,1.253,0,0,0,1.249,1.249v2.5a.416.416,0,0,0,.416.416H6.991a.416.416,0,0,0,.4-.3l.745-2.61h12.7l.745,2.61a.416.416,0,0,0,.4.3h1.249a.416.416,0,0,0,.416-.416v-2.5a1.253,1.253,0,0,0,1.249-1.249V20.2a2.893,2.893,0,0,0,2.048-3.235Zm-21.2-3.717a5.417,5.417,0,0,1,5.412-5.412h6.661a5.417,5.417,0,0,1,5.412,5.412v1.374a2.9,2.9,0,0,0-2.081,2.789v1.324a1.249,1.249,0,0,0-.416-.075H8.24a1.249,1.249,0,0,0-.416.075V17.407a2.9,2.9,0,0,0-2.081-2.789Zm15.4,6.661v2.081H7.824V19.905a.416.416,0,0,1,.416-.416H20.729A.416.416,0,0,1,21.145,19.905ZM6.679,29.063h-.52V26.982H7.27Zm16.131,0h-.52L21.7,26.982H22.81ZM24.4,19.455a.42.42,0,0,0-.346.412v5.866a.416.416,0,0,1-.416.416H5.326a.416.416,0,0,1-.416-.416V19.868a.42.42,0,0,0-.346-.412,2.079,2.079,0,0,1,.083-4.113,1.849,1.849,0,0,1,.262-.017h0a2.051,2.051,0,0,1,1.374.525,2.084,2.084,0,0,1,.7,1.557v5a.416.416,0,0,0,.416.416H21.561a.416.416,0,0,0,.416-.416v-5a2.084,2.084,0,0,1,.7-1.557,2.053,2.053,0,0,1,1.64-.508,2.089,2.089,0,0,1,1.794,1.74v0A2.071,2.071,0,0,1,24.4,19.455Z" transform="translate(-1.992 -7)"/>
  </g>
</svg>
